<?xml version="1.0" standalone="no"?><!DOCTYPE svg PUBLIC "-//W3C//DTD SVG 1.1//EN" "http://www.w3.org/Graphics/SVG/1.1/DTD/svg11.dtd"><svg width="200px" height="200px" viewBox="0 0 1024 1024" version="1.1" xmlns="http://www.w3.org/2000/svg"><path d="M901.742 28.706c48.606 0 88.581 37.213 93.138 84.783l0.414 8.976v637.12a93.69 93.69 0 0 1-84.576 92.723l-8.976 0.414H772.634v48.813c0 51.782-41.84 93.76-93.483 93.76H122.258a93.69 93.69 0 0 1-93.552-93.76V266.348c0-51.85 41.908-93.897 93.552-93.897h129.04v-49.986c0-48.744 37.144-88.788 84.576-93.345l8.975-0.414h556.893zM679.151 235.003H122.258A31.207 31.207 0 0 0 91.05 266.28v635.187c0 17.26 13.946 31.276 31.207 31.276H679.15c17.26 0 31.138-13.946 31.138-31.207V266.348a31.207 31.207 0 0 0-31.138-31.345z m-278.792 118.2c17.26 0 31.207 14.016 31.207 31.276l-0.069 168.118h169.705a31.207 31.207 0 0 1 0 62.552H431.497v171.914a31.207 31.207 0 0 1-62.276-1.864l-0.069-170.05H200.206a31.207 31.207 0 0 1 0-62.483l168.946-0.07V384.48c0-17.26 14.016-31.276 31.207-31.276zM901.742 91.258H344.918a31.207 31.207 0 0 0-30.654 25.614l-0.484 5.593-0.069 49.986H679.22c51.643 0 93.483 42.047 93.483 93.897V790.17H901.81a30.517 30.517 0 0 0 17.26-4.833l4.765-3.866a30.655 30.655 0 0 0 8.561-15.81l0.621-6.076v-637.12a31.207 31.207 0 0 0-31.207-31.207z" /></svg>