<?xml version="1.0" standalone="no"?><!DOCTYPE svg PUBLIC "-//W3C//DTD SVG 1.1//EN" "http://www.w3.org/Graphics/SVG/1.1/DTD/svg11.dtd"><svg width="200px" height="200px" viewBox="0 0 1024 1024" version="1.1" xmlns="http://www.w3.org/2000/svg"><path d="M983.32700093 447.71099706v128.57800588c0 17.91042605-6.22151641 32.99289006-18.75881463 45.53018828a62.02663333 62.02663333 0 0 1-45.53018828 18.75881464H640.57800586v278.45999216c0 17.91042605-6.31578181 32.99289006-18.85308005 45.53018828a62.02663333 62.02663333 0 0 1-45.43592287 18.75881463H447.71099706a62.02663333 62.02663333 0 0 1-45.53018828-18.75881463 62.02663333 62.02663333 0 0 1-18.75881464-45.53018828V640.57800586H104.96200198a62.02663333 62.02663333 0 0 1-45.53018828-18.85308005A62.02663333 62.02663333 0 0 1 40.67299907 576.38326833V447.71099706c0-17.91042605 6.22151641-32.99289006 18.75881463-45.53018828a62.02663333 62.02663333 0 0 1 45.53018828-18.75881464h278.45999216V104.96200198c0-17.91042605 6.31578181-32.99289006 18.85308005-45.53018828A62.02663333 62.02663333 0 0 1 447.61673167 40.67299907h128.57800586c17.91042605 0 32.99289006 6.22151641 45.53018828 18.75881463a62.02663333 62.02663333 0 0 1 18.75881465 45.53018828v278.45999216h278.45999214c17.91042605 0 32.99289006 6.31578181 45.53018829 18.85308005a62.02663333 62.02663333 0 0 1 18.75881464 45.43592287z" /></svg>