<?xml version="1.0" standalone="no"?><!DOCTYPE svg PUBLIC "-//W3C//DTD SVG 1.1//EN" "http://www.w3.org/Graphics/SVG/1.1/DTD/svg11.dtd"><svg width="200px" height="200px" viewBox="0 0 1024 1024" version="1.1" xmlns="http://www.w3.org/2000/svg"><path d="M944.416 216.481H276.192c-33.314 0-60.621 27.307-60.621 60.682v667.071c0 33.375 27.307 60.682 60.681 60.682h668.104c33.374 0 60.681-27.307 60.681-60.682V277.163c0-33.375-27.307-60.682-60.681-60.682z m-0.303 727.45H276.617V277.163h667.496V943.93zM276.192 762.493H94.754V95.422H762.19v121.787h61.41V95.422c0-33.375-27.307-61.289-60.682-61.289H94.875c-33.374 0-60.681 27.914-60.681 61.289v667.071c0 33.375 27.307 60.682 60.681 60.682h181.438v-60.682z m546.315-182.287H640.523V398.162h-61.106v182.044h-181.62v60.742h181.984v181.863h60.864V640.948h181.862v-60.742z" /></svg>