<?xml version="1.0" standalone="no"?><!DOCTYPE svg PUBLIC "-//W3C//DTD SVG 1.1//EN" "http://www.w3.org/Graphics/SVG/1.1/DTD/svg11.dtd"><svg width="200px" height="200px" viewBox="0 0 1024 1024" version="1.1" xmlns="http://www.w3.org/2000/svg"><path d="M374.647 989.867a38.707 38.707 0 0 1-39.594-37.82v-345.02c0-11.332 5.393-22.118 14.677-29.286L670.38 329.728a40.823 40.823 0 0 1 55.023 6.007 36.59 36.59 0 0 1-5.12 52.566l-306.04 236.68V838.52l96.256-122.47a40.892 40.892 0 0 1 50.45-10.581l159.538 81.647L909.722 138.58a21.3 21.3 0 0 0-7.51-23.415 23.893 23.893 0 0 0-25.327-3.209l-717.619 321.4 93.048 51.063a36.864 36.864 0 0 1 14.677 51.542 40.55 40.55 0 0 1-54.067 13.994L53.999 462.848a37.274 37.274 0 0 1-19.866-34.406 37.615 37.615 0 0 1 22.733-32.632L843.162 43.554A105.677 105.677 0 0 1 953.207 57.55c30.925 24.576 43.691 64.307 32.7 101.308L783.155 852.855a38.366 38.366 0 0 1-22.528 24.576 41.233 41.233 0 0 1-34.27-1.501L553.37 787.32 406.255 974.78a40.823 40.823 0 0 1-31.676 15.087z" /></svg>