<?xml version="1.0" standalone="no"?><!DOCTYPE svg PUBLIC "-//W3C//DTD SVG 1.1//EN" "http://www.w3.org/Graphics/SVG/1.1/DTD/svg11.dtd"><svg width="200px" height="200px" viewBox="0 0 1024 1024" version="1.1" xmlns="http://www.w3.org/2000/svg"><path d="M960.77326777 35.26470557c-17.26051002-8.76833936-34.52102004-8.76833936-43.15127627 0l-863.02551426 435.44815328c-17.39859437 0-25.89076502 17.46763654-25.89076504 34.86623092 0 17.46763654 8.63025501 34.9352731 17.32955219 34.93527309l207.12612387 130.62754213c17.26051002 8.76833936 34.52102004 8.76833936 51.78153005-8.69929718l457.40352277-417.98051674 17.3295522 8.69929719-414.39033087 443.94032393c-8.63025501 8.69929718-8.63025501 17.46763654-8.630255 26.02884938v191.66070678c0 17.46763654 8.63025501 34.86623092 25.82172285 43.49648592 17.26051002 8.63025501 34.52102004 0 43.15127626-8.69929717l103.70114567-104.59869276 207.12612386 139.25779714c8.56121283 8.69929718 17.26051002 8.69929718 25.75268068 8.69929719h17.3295522c17.32955219-8.69929718 25.82172285-17.46763654 25.82172406-34.86623093L978.03377778 87.39144651c0-26.16693373 0-43.49648592-17.26051001-52.19578312z" /></svg>