<?xml version="1.0" standalone="no"?><!DOCTYPE svg PUBLIC "-//W3C//DTD SVG 1.1//EN" "http://www.w3.org/Graphics/SVG/1.1/DTD/svg11.dtd"><svg width="200px" height="200px" viewBox="0 0 1024 1024" version="1.1" xmlns="http://www.w3.org/2000/svg"><path d="M316.11 415.065l188.977 261.212c3.418 4.66 10.33 4.66 13.748 0l188.977-261.212a8.544 8.544 0 0 0-6.913-13.515h-49.788a34.02 34.02 0 0 0-27.496 13.981L512 570.021 400.307 415.686a33.865 33.865 0 0 0-27.496-13.98h-49.865c-6.836 0-10.874 7.767-6.836 13.437zM36.257 512a475.743 475.743 0 1 0 951.486 0 475.743 475.743 0 0 0-951.486 0z m870.707 0a395.119 395.119 0 1 1-790.16-0.155A395.119 395.119 0 0 1 907.04 512z" /></svg>