<?xml version="1.0" standalone="no"?><!DOCTYPE svg PUBLIC "-//W3C//DTD SVG 1.1//EN" "http://www.w3.org/Graphics/SVG/1.1/DTD/svg11.dtd"><svg width="200px" height="200px" viewBox="0 0 1024 1024" version="1.1" xmlns="http://www.w3.org/2000/svg"><path d="M967.3 511.9c0 61.4-12 121-35.7 177.1-22.9 54.2-55.7 102.8-97.5 144.6s-90.5 74.6-144.6 97.5c-56.1 23.7-115.7 35.7-177.1 35.7s-121-12-177.1-35.7c-54.2-22.9-102.8-55.7-144.6-97.5-41.9-41.8-74.8-90.4-97.7-144.6-23.7-56.1-35.7-115.7-35.7-177.1s12-121 35.7-177.1c22.9-54.2 55.7-102.8 97.5-144.6s90.5-74.6 144.6-97.5C391.2 69 450.8 57 512.2 57s121 12 177.1 35.7c54.2 22.9 102.8 55.7 144.6 97.5s74.6 90.5 97.5 144.6c23.9 56.1 35.9 115.7 35.9 177.1m40 0c0-273.4-221.6-495-495-495s-495 221.6-495 495 221.6 495 495 495 495-221.6 495-495z"  /><path d="M397.7 509.2c0-19.2 7.5-37.3 21-50.8l129.6-129.6c7.8-7.8 20.5-7.8 28.3 0s7.8 20.5 0 28.3L446.9 486.7c-6 6-9.3 14-9.3 22.5s3.3 16.5 9.3 22.5l0.1 0.1 133.6 135c7.8 7.9 7.7 20.5-0.2 28.3-7.9 7.8-20.5 7.7-28.3-0.2l-133.5-135c-13.5-13.5-20.9-31.5-20.9-50.7z"  /></svg>