<?xml version="1.0" standalone="no"?><!DOCTYPE svg PUBLIC "-//W3C//DTD SVG 1.1//EN" "http://www.w3.org/Graphics/SVG/1.1/DTD/svg11.dtd"><svg width="200px" height="200px" viewBox="0 0 1024 1024" version="1.1" xmlns="http://www.w3.org/2000/svg"><path d="M853.4 92C929.9 92 992 141.92 992 203.48v654.06C992 919.1 929.96 992 853.4 992H170.6C94.16 992 32 942.08 32 880.52V203.48C32 141.92 94.1 92 170.6 92h682.8z m-699.96 60C119.6 152 92 173.36 92 199.64v684.72C92 910.7 119.6 932 153.5 932h717c33.96 0 61.5-21.3 61.5-47.64V199.64c0-26.28-27.54-47.64-61.5-47.64h-717zM92 332h840v60H92zM722 32q30 0 30 30v180q0 30-30 30t-30-30V62q0-30 30-30zM302 32q30 0 30 30v180q0 30-30 30t-30-30V62q0-30 30-30zM692 572h120v60H692z m-240 0h120v60H452z m-240 0h120v60H212z" /></svg>