<?xml version="1.0" standalone="no"?><!DOCTYPE svg PUBLIC "-//W3C//DTD SVG 1.1//EN" "http://www.w3.org/Graphics/SVG/1.1/DTD/svg11.dtd"><svg width="200px" height="200px" viewBox="0 0 1024 1024" version="1.1" xmlns="http://www.w3.org/2000/svg"><path d="M489.604 119.82v432.764H922.37a432.764 432.764 0 1 1-432.765-432.83z m360.141 499.303h-426.68v-426.68a366.743 366.743 0 0 0-299.62 360.14 366.549 366.549 0 0 0 366.16 366.16 366.807 366.807 0 0 0 360.14-299.62zM552.584 56.97a432.764 432.764 0 0 1 432.7 432.7H552.648V56.97z m66.539 72.623V423.13h293.601a367.196 367.196 0 0 0-293.601-293.537z" /></svg>