<?xml version="1.0" standalone="no"?><!DOCTYPE svg PUBLIC "-//W3C//DTD SVG 1.1//EN" "http://www.w3.org/Graphics/SVG/1.1/DTD/svg11.dtd"><svg width="200px" height="200px" viewBox="0 0 1024 1024" version="1.1" xmlns="http://www.w3.org/2000/svg"><path d="M271.70351787 398.91981653l0 508.86191787-141.35022934 0L130.35328853 398.91981653 271.70351787 398.91981653M299.974656 342.3797248L102.08324267 342.3797248c-15.61176747 0-28.27004587 12.6582784-28.27004587 28.27004587L73.8131968 936.050688c0 15.61176747 12.6582784 28.27004587 28.27004587 28.27004587l197.89141333 0c15.61176747 0 28.27004587-12.6582784 28.27004587-28.27004587L328.24470187 370.6486784C328.24470187 355.03691093 315.58642347 342.3797248 299.974656 342.3797248L299.974656 342.3797248zM582.3987712 566.9945344l0 340.7872L441.04198827 907.7817344l0-340.7872L582.3987712 566.9945344M610.66881707 510.4467968l-197.89687467 0c-15.61176747 0-28.27004587 12.65063253-28.27004587 28.27769173L384.50189653 936.050688c0 15.61176747 12.6582784 28.27004587 28.27004587 28.27004587l197.89687467 0c15.59866027 0 28.27113813-12.6582784 28.27113813-28.27004587L638.9399552 538.72448853c0-15.59866027-12.67247787-28.26349227-28.27113813-28.26349226l0 0L610.66881707 510.4467968zM893.6456192 116.2182656l0 791.5634688L752.54442667 907.7817344l0-791.5634688L893.6456192 116.2182656M921.91675733 59.67817387L724.2743808 59.67817387c-15.62596693 0-28.27004587 12.6582784-28.27004587 28.27004586L696.00433493 936.050688c0 15.61176747 12.64407893 28.27004587 28.27004587 28.27004587L921.91675733 964.32073387c15.61176747 0 28.27004587-12.6582784 28.27004587-28.27004587l0-848.10246827C950.1868032 72.33645227 937.5285248 59.67817387 921.91675733 59.67817387L921.91675733 59.67817387z" /></svg>