<?xml version="1.0" standalone="no"?><!DOCTYPE svg PUBLIC "-//W3C//DTD SVG 1.1//EN" "http://www.w3.org/Graphics/SVG/1.1/DTD/svg11.dtd"><svg width="200px" height="200px" viewBox="0 0 1024 1024" version="1.1" xmlns="http://www.w3.org/2000/svg"><path d="M113.60506592 813.64928061h791.82936157a37.70616007 37.70616007 0 1 1 0 75.41232014h-829.53552164a37.70616007 37.70616007 0 0 1-37.70616007-37.70616008V263.13934351a37.70616007 37.70616007 0 0 1 75.41232014 0V813.64928061z m219.75150093-176.08776755a37.70616007 37.70616007 0 0 1-54.07063357-52.63779947L468.04297063 390.96322615a37.70616007 37.70616007 0 0 1 48.94259576-4.37391456l102.93781702 73.37618751 185.81595686-306.85273068a37.70616007 37.70616007 0 0 1 64.25129676-0.45247393l120.35806295 192.67847798a37.70616007 37.70616007 0 0 1-63.94964749 39.96852968l-87.85535298-140.7193894-175.10740738 289.20624776a37.70616007 37.70616007 0 0 1-54.14604588 11.16102339L499.56532044 466.75260791l-166.20875359 170.80890515z" /></svg>