<?xml version="1.0" standalone="no"?><!DOCTYPE svg PUBLIC "-//W3C//DTD SVG 1.1//EN" "http://www.w3.org/Graphics/SVG/1.1/DTD/svg11.dtd"><svg width="200px" height="200px" viewBox="0 0 1024 1024" version="1.1" xmlns="http://www.w3.org/2000/svg"><path d="M968.32474075 851.8162963H133.34755555V94.51140741c0-5.33997037-4.36906667-9.70903703-9.70903703-9.70903704h-67.96325927c-5.33997037 0-9.70903703 4.36906667-9.70903703 9.70903704v834.97718518c0 5.33997037 4.36906667 9.70903703 9.70903703 9.70903704h912.6494815c5.33997037 0 9.70903703-4.36906667 9.70903703-9.70903704v-67.96325926c0-5.33997037-4.36906667-9.70903703-9.70903703-9.70903703z"  /><path d="M220.72888889 774.144h650.50548148c5.33997037 0 9.70903703-4.36906667 9.70903704-9.70903703V235.29244445c0-8.73813333-10.55857778-12.98583703-16.62672593-6.9176889L609.09037037 483.60106667l-152.18915555-150.49007408c-3.76225185-3.76225185-9.95176297-3.76225185-13.71401482 0l-229.376 230.10417778c-1.82044445 1.82044445-2.79134815 4.2477037-2.79134815 6.79632593V764.43496297c0 5.33997037 4.36906667 9.70903703 9.70903704 9.70903703z"  /></svg>