<?xml version="1.0" standalone="no"?><!DOCTYPE svg PUBLIC "-//W3C//DTD SVG 1.1//EN" "http://www.w3.org/Graphics/SVG/1.1/DTD/svg11.dtd"><svg width="200px" height="200px" viewBox="0 0 1024 1024" version="1.1" xmlns="http://www.w3.org/2000/svg"><path d="M1011.984 141.348a33.936 33.936 0 0 0-40.817-25.451l-177.03 41.1a33.936 33.936 0 0 0-16.78 56.559l38.649 40.063-206.441 184.194L502.29 336.29a33.936 33.936 0 0 0-47.887 1.226l-230.008 241.13a67.871 67.871 0 1 0 54.014 66.552 66.646 66.646 0 0 0-3.676-20.927l205.499-215.396 105.2 99.732a33.936 33.936 0 0 0 46.001 0.66l231.799-206.724 44.022 45.53a33.936 33.936 0 0 0 57.219-14.705l47.133-175.522a33.747 33.747 0 0 0 0.377-16.497z m-54.391 309.474a33.936 33.936 0 0 0-33.936 33.935v269.128a33.936 33.936 0 0 1-33.936 33.936H142.48a33.936 33.936 0 0 1-33.936-33.936V142.48a33.936 33.936 0 0 1 33.936-33.936H705.62a33.936 33.936 0 0 0 0-67.965H142.574a101.807 101.807 0 0 0-101.901 101.9v611.406c0 56.182 45.624 101.807 101.807 101.807H889.72a101.807 101.807 0 0 0 101.807-101.807V484.663a33.936 33.936 0 0 0-33.935-33.936z m-16.968 472.835H91.576a33.936 33.936 0 0 0 0 67.871h849.049a33.936 33.936 0 1 0 0-67.871z" /></svg>