<?xml version="1.0" standalone="no"?><!DOCTYPE svg PUBLIC "-//W3C//DTD SVG 1.1//EN" "http://www.w3.org/Graphics/SVG/1.1/DTD/svg11.dtd"><svg width="200px" height="183.35px" viewBox="0 0 1117 1024" version="1.1" xmlns="http://www.w3.org/2000/svg"><path d="M397.85 96.127h634.994q46.847 0 46.847 46.847v-0.128q0 46.847-46.847 46.847H397.85q-46.847 0-46.847-46.847v0.128q0-46.847 46.847-46.847z m0 381.048h634.994q46.847 0 46.847 46.847v-0.128q0 46.846-46.847 46.846H397.85q-46.847 0-46.847-46.846v0.128q0-46.847 46.847-46.847z m0 381.176h634.994q46.847 0 46.847 46.847v-0.129q0 46.847-46.847 46.847H397.85q-46.847 0-46.847-46.847v0.129q0-46.847 46.847-46.847zM314.395 41.984A33.791 33.791 0 0 0 290.46 32a33.664 33.664 0 0 0-23.936 9.984l-119.166 119.42-57.47-57.982a33.791 33.791 0 0 0-23.935-9.984 33.919 33.919 0 0 0-23.936 57.856l81.662 82.046a33.535 33.535 0 0 0 23.68 9.856 33.023 33.023 0 0 0 23.807-9.984l143.23-143.485a34.047 34.047 0 0 0 0-47.744z m0 386.808a33.664 33.664 0 0 0-23.935-9.856 33.535 33.535 0 0 0-23.936 9.856L147.358 548.086l-57.47-57.984a33.791 33.791 0 0 0-23.935-10.112 33.919 33.919 0 0 0-23.936 57.984l81.662 81.918a33.535 33.535 0 0 0 47.743 0l142.973-143.487a34.176 34.176 0 0 0 0-47.614z m0 361.977a33.791 33.791 0 0 0-23.935-9.985 33.664 33.664 0 0 0-23.936 9.985L147.358 910.19l-57.47-57.983a33.664 33.664 0 0 0-23.935-9.856 33.535 33.535 0 0 0-23.936 9.856 33.919 33.919 0 0 0 0 47.871l81.662 82.046a33.791 33.791 0 0 0 47.743 0l142.973-143.74a34.176 34.176 0 0 0 0-47.616z" /></svg>