<?xml version="1.0" standalone="no"?><!DOCTYPE svg PUBLIC "-//W3C//DTD SVG 1.1//EN" "http://www.w3.org/Graphics/SVG/1.1/DTD/svg11.dtd"><svg width="200px" height="200px" viewBox="0 0 1024 1024" version="1.1" xmlns="http://www.w3.org/2000/svg"><path d="M849.5 737a112.5 112.5 0 1 0 0 225 112.5 112.5 0 0 0 0-225z m0 56.25a56.25 56.25 0 1 1 0 112.5 56.25 56.25 0 0 1 0-112.5zM512 737a112.5 112.5 0 1 0 0 225 112.5 112.5 0 0 0 0-225z m0 56.25a56.25 56.25 0 1 1 0 112.5 56.25 56.25 0 0 1 0-112.5zM174.5 737a112.5 112.5 0 1 0 0 225 112.5 112.5 0 0 0 0-225z m0 56.25a56.25 56.25 0 1 1 0 112.5 56.25 56.25 0 0 1 0-112.5z m675-393.75a112.5 112.5 0 1 0 0 225 112.5 112.5 0 0 0 0-225z m0 56.25a56.25 56.25 0 1 1 0 112.5 56.25 56.25 0 0 1 0-112.5zM512 399.5a112.5 112.5 0 1 0 0 225 112.5 112.5 0 0 0 0-225z m0 56.25a56.25 56.25 0 1 1 0 112.5 56.25 56.25 0 0 1 0-112.5zM174.5 399.5a112.5 112.5 0 1 0 0 225 112.5 112.5 0 0 0 0-225z m0 56.25a56.25 56.25 0 1 1 0 112.5 56.25 56.25 0 0 1 0-112.5zM849.5 62a112.5 112.5 0 1 0 0 225 112.5 112.5 0 0 0 0-225z m0 56.25a56.25 56.25 0 1 1 0 112.5 56.25 56.25 0 0 1 0-112.5zM512 62a112.5 112.5 0 1 0 0 225 112.5 112.5 0 0 0 0-225z m0 56.25a56.25 56.25 0 1 1 0 112.5 56.25 56.25 0 0 1 0-112.5zM174.5 62a112.5 112.5 0 1 0 0 225 112.5 112.5 0 0 0 0-225z m0 56.25a56.25 56.25 0 1 1 0 112.5 56.25 56.25 0 0 1 0-112.5z" /></svg>