<?xml version="1.0" standalone="no"?><!DOCTYPE svg PUBLIC "-//W3C//DTD SVG 1.1//EN" "http://www.w3.org/Graphics/SVG/1.1/DTD/svg11.dtd"><svg width="200px" height="200px" viewBox="0 0 1024 1024" version="1.1" xmlns="http://www.w3.org/2000/svg"><path d="M932 752a60 60 0 0 1 60 60v120a60 60 0 0 1-60 60H812a60 60 0 0 1-60-60V812a60 60 0 0 1 60-60h120z m0 60H812v120h120V812z m-360-60a60 60 0 0 1 60 60v120a60 60 0 0 1-60 60H452a60 60 0 0 1-60-60V812a60 60 0 0 1 60-60h120z m0 60H452v120h120V812z m-360-60a60 60 0 0 1 60 60v120a60 60 0 0 1-60 60H92a60 60 0 0 1-60-60V812a60 60 0 0 1 60-60h120z m0 60H92v120h120V812z m720-420a60 60 0 0 1 60 60v120a60 60 0 0 1-60 60H812a60 60 0 0 1-60-60V452a60 60 0 0 1 60-60h120z m0 60H812v120h120V452z m-360-60a60 60 0 0 1 60 60v120a60 60 0 0 1-60 60H452a60 60 0 0 1-60-60V452a60 60 0 0 1 60-60h120z m0 60H452v120h120V452z m-360-60a60 60 0 0 1 60 60v120a60 60 0 0 1-60 60H92a60 60 0 0 1-60-60V452a60 60 0 0 1 60-60h120z m0 60H92v120h120V452zM932 32a60 60 0 0 1 60 60v120a60 60 0 0 1-60 60H812a60 60 0 0 1-60-60V92a60 60 0 0 1 60-60h120z m0 60H812v120h120V92zM572 32a60 60 0 0 1 60 60v120a60 60 0 0 1-60 60H452a60 60 0 0 1-60-60V92a60 60 0 0 1 60-60h120z m0 60H452v120h120V92zM212 32a60 60 0 0 1 60 60v120a60 60 0 0 1-60 60H92a60 60 0 0 1-60-60V92a60 60 0 0 1 60-60h120z m0 60H92v120h120V92z" /></svg>