<?xml version="1.0" standalone="no"?><!DOCTYPE svg PUBLIC "-//W3C//DTD SVG 1.1//EN" "http://www.w3.org/Graphics/SVG/1.1/DTD/svg11.dtd"><svg width="200px" height="200px" viewBox="0 0 1024 1024" version="1.1" xmlns="http://www.w3.org/2000/svg"><path d="M590.0192 297.44746667v273.06666666q0 8.53333333-5.48586667 14.0192t-14.0192 5.48586667H375.46666667q-8.53333333 0-14.0192-5.48586667t-5.48586667-14.0192v-39.00906666q0-8.53333333 5.48586667-14.0192T375.46666667 512h136.53333333V297.44746667q0-8.53333333 5.48586667-14.0192t14.0192-5.48586667h39.00906666q8.53333333 0 14.0192 5.48586667t5.48586667 14.0192zM843.5808 512q0-90.20906667-44.49493333-166.4T678.4 224.91413333t-166.4-44.49493333-166.4 44.49493333T224.91413333 345.6t-44.49493333 166.4 44.49493333 166.4T345.6 799.08586667t166.4 44.49493333 166.4-44.49493333T799.08586667 678.4t44.49493333-166.4z m136.53333333 0q0 127.39093333-62.7808 234.97173333T746.97173333 917.33333333 512 980.11413333 277.02826667 917.33333333 106.66666667 746.97173333 43.88586667 512 106.66666667 277.02826667 277.02826667 106.66666667 512 43.88586667 746.97173333 106.66666667 917.33333333 277.02826667 980.11413333 512z" /></svg>