<?xml version="1.0" standalone="no"?><!DOCTYPE svg PUBLIC "-//W3C//DTD SVG 1.1//EN" "http://www.w3.org/Graphics/SVG/1.1/DTD/svg11.dtd"><svg width="200px" height="200px" viewBox="0 0 1024 1024" version="1.1" xmlns="http://www.w3.org/2000/svg"><path d="M801.995 51.2H242.663c-102.855 0-186.368 83.4-186.368 186.368v223.687h46.649V246.898c0-82.375 66.674-149.163 149.163-149.163H792.55c82.375 0 149.163 66.674 149.163 149.163v214.357h46.649V237.568c0-102.855-83.513-186.368-186.368-186.368z m139.719 736.37c0 82.375-66.674 149.162-149.163 149.162H251.993c-82.375 0-149.163-66.673-149.163-149.162V573.212H56.181V796.9c0 102.855 83.4 186.368 186.368 186.368h559.332c102.855 0 186.368-83.4 186.368-186.368V573.212H941.6V787.57z m0 0"  /><path d="M690.492 659.115L548.498 517.234l141.88-141.881c6.03-6.485 5.803-16.612-0.454-22.87-6.258-6.257-16.384-6.485-22.87-0.455L525.287 493.91 383.292 352.03c-6.371-6.372-16.839-6.372-23.21 0-6.372 6.371-6.372 16.839 0 23.21l141.88 141.881-141.88 141.995c-6.03 6.485-5.803 16.611 0.455 22.869 6.258 6.258 16.384 6.485 22.87 0.455l141.88-141.995 141.881 141.881c6.372 6.372 16.84 6.372 23.21 0 6.486-6.371 6.486-16.725 0.114-23.21z m0 0"  /></svg>