<?xml version="1.0" standalone="no"?><!DOCTYPE svg PUBLIC "-//W3C//DTD SVG 1.1//EN" "http://www.w3.org/Graphics/SVG/1.1/DTD/svg11.dtd"><svg  viewBox="0 0 1024 1024" version="1.1" xmlns="http://www.w3.org/2000/svg" width="200" height="200" xmlns:xlink="http://www.w3.org/1999/xlink"><path d="M917.942857 102.034286H106.057143c-20.114286 0-36.571429 16.457143-36.571429 36.571428v626.651429c0 20.114286 16.457143 36.571429 36.571429 36.571428h811.885714c20.114286 0 36.571429-16.457143 36.571429-36.571428V138.605714a36.571429 36.571429 0 0 0-36.571429-36.571428z m-36.571428 626.468571H142.628571V175.177143h738.742858v553.325714zM230.4 848.822857h563.2v73.142857H230.4z" fill="#4C4C4C"></path><path d="M409.234286 599.954286l101.485714-96.365715 96.365714 101.485715 53.028572-50.468572-96.365715-101.485714 101.485715-96.365714-50.468572-53.028572-101.485714 96.365715-96.365714-101.485715-53.028572 50.468572 96.365715 101.485714-101.485715 96.365714z" fill="#4C4C4C"></path></svg>