<?xml version="1.0" standalone="no"?><!DOCTYPE svg PUBLIC "-//W3C//DTD SVG 1.1//EN" "http://www.w3.org/Graphics/SVG/1.1/DTD/svg11.dtd"><svg width="200px" height="200px" viewBox="0 0 1024 1024" version="1.1" xmlns="http://www.w3.org/2000/svg"><path d="M80 512C80 273.4074575 273.4074575 80 512 80s432 193.4074575 432 432c0 238.5925425-193.4074575 432-432 432S80 750.5925425 80 512zM32 512c0 265.09830469 214.90169531 480 480 480 265.09830469 0 480-214.90169531 480-480 0-265.09830469-214.90169531-480-480-480C246.90169531 32 32 246.90169531 32 512zM692.0976275 378.16135625c-13.00881375-13.13898281-34.06372875-13.13898281-47.30033906 0L456.53152531 569.32338969l-78.02847468-78.6223725c-12.77288156-13.13898281-34.06372875-13.13898281-46.82847469 0-12.77288156 13.14711844-12.77288156 34.41355969 0.47186437 47.31661031l99.09152532 100.61288156 1.65966093 1.90372875c13.23661031 12.90305063 34.05559313 12.90305063 47.29220344 0l211.90779656-214.58440687C705.3423725 412.56677938 705.3423725 391.53627125 692.0976275 378.16135625z" /></svg>