<?xml version="1.0" standalone="no"?><!DOCTYPE svg PUBLIC "-//W3C//DTD SVG 1.1//EN" "http://www.w3.org/Graphics/SVG/1.1/DTD/svg11.dtd"><svg width="200px" height="200px" viewBox="0 0 1024 1024" version="1.1" xmlns="http://www.w3.org/2000/svg"><path d="M512 384c-229.8 0-416-57.3-416-128v256c0 70.7 186.2 128 416 128s416-57.3 416-128V256c0 70.7-186.2 128-416 128zM512 704c-229.8 0-416-57.3-416-128v256c0 70.7 186.2 128 416 128s416-57.3 416-128V576c0 70.7-186.2 128-416 128z m0-384c229.8 0 416-57.3 416-128S741.8 64 512 64 96 121.3 96 192s186.2 128 416 128z" /></svg>