<?xml version="1.0" standalone="no"?><!DOCTYPE svg PUBLIC "-//W3C//DTD SVG 1.1//EN" "http://www.w3.org/Graphics/SVG/1.1/DTD/svg11.dtd"><svg width="200px" height="200px" viewBox="0 0 1024 1024" version="1.1" xmlns="http://www.w3.org/2000/svg"><path d="M368.6 87.32h288v51h-288v-51z m553.798 0h-151.8v51h134.4a35.58 35.58 0 0 1 35.4 35.34v99.9H83.6v-99.9a35.22 35.22 0 0 1 35.4-35.34h134.4v-51H101a69 69 0 0 0-69 68.58v767.458a68.94 68.94 0 0 0 69 68.58h821.398a69.12 69.12 0 0 0 69.6-68.58V155.9a69.12 69.12 0 0 0-69.6-68.58z m18 237.3v580.978a35.58 35.58 0 0 1-35.4 35.34H119a35.22 35.22 0 0 1-35.4-35.34V324.62h856.798zM284.6 32h51.6v183h-51.6V32zM689 32h51.6v183H689V32zM347.6 551.36v248.338h57V456.02h-37.2l-3 4.08a292.62 292.62 0 0 1-75.6 73.02l-4.2 2.88v57.78l14.4-8.7a441.18 441.18 0 0 0 48.6-33.72z m281.4 192a64.5 64.5 0 0 1-45.6 5.34 57.24 57.24 0 0 1-37.8-49.62l-2.4-9.42-52.8 14.4 1.8 8.76a115.14 115.14 0 0 0 39 69.9 113.64 113.64 0 0 0 59.4 22.618q5.4 0.36 10.8 0.36a118.8 118.8 0 0 0 43.8-7.62 123.54 123.54 0 0 0 40.2-24.539 101.46 101.46 0 0 0 25.8-39.72 154.14 154.14 0 0 0 9-45.18 134.1 134.1 0 0 0-4.2-41.52 175.02 175.02 0 0 0-16.2-38.22 78.66 78.66 0 0 0-37.8-32.22 135.66 135.66 0 0 0-51-12 110.64 110.64 0 0 0-39 6c3.6-15.66 7.8-34.26 12-55.68h123.6v-53.4h-168l-1.2 7.56c-27 124.44-34.8 156.42-36 161.28l-4.2 11.1 49.8 6 3.6-4.56a57.3 57.3 0 0 1 33.6-22.74 72.6 72.6 0 0 1 37.8 0 49.38 49.38 0 0 1 26.4 19.08 63.96 63.96 0 0 1 11.4 36 96 96 0 0 1-6.6 40.26A61.8 61.8 0 0 1 629 743.3z" /></svg>