<?xml version="1.0" standalone="no"?><!DOCTYPE svg PUBLIC "-//W3C//DTD SVG 1.1//EN" "http://www.w3.org/Graphics/SVG/1.1/DTD/svg11.dtd"><svg   viewBox="0 0 1024 1024" version="1.1" xmlns="http://www.w3.org/2000/svg"  xmlns:xlink="http://www.w3.org/1999/xlink" width="200" height="200"><path d="M759.488 3.136a48 48 0 0 1 48 48v94.272h94.272a119.168 119.168 0 0 1 119.168 119.168V904.896a119.168 119.168 0 0 1-119.168 119.168H119.168A119.168 119.168 0 0 1 0 904.896V264.576a119.168 119.168 0 0 1 119.168-119.168 48 48 0 1 1 0 96 23.168 23.168 0 0 0-23.168 23.168V430.016h828.928V264.576a23.168 23.168 0 0 0-23.168-23.168h-94.272v94.336a48 48 0 0 1-96 0V51.136a48 48 0 0 1 48-48z m165.44 522.88H96v378.88a23.168 23.168 0 0 0 23.168 23.168H901.76a23.168 23.168 0 0 0 23.168-23.168V526.016zM309.44 51.136a48 48 0 0 0-96 0v284.608a48 48 0 1 0 96 0V241.408h307.712a48 48 0 0 0 0-96H309.44V51.136z" ></path><path d="M344.704 664m48 0l220.16 0q48 0 48 48l0 0q0 48-48 48l-220.16 0q-48 0-48-48l0 0q0-48 48-48Z" ></path></svg>