<?xml version="1.0" standalone="no"?><!DOCTYPE svg PUBLIC "-//W3C//DTD SVG 1.1//EN" "http://www.w3.org/Graphics/SVG/1.1/DTD/svg11.dtd"><svg width="200px" height="200px" viewBox="0 0 1024 1024" version="1.1" xmlns="http://www.w3.org/2000/svg"><path d="M719.163 429.15a41.388 41.388 0 0 1-41.462-41.462V97.82H346.299v290.014c0 22.83-18.558 41.388-41.462 41.388h-72.614L512 740.078 791.85 429.15h-72.76z m41.388-82.85h124.313c35.791 0 54.718 42.492 30.783 69.152L542.784 829.704a41.462 41.462 0 0 1-61.568 0L108.353 415.452a41.462 41.462 0 0 1 30.783-69.153H263.45V97.748c0-45.734 37.117-82.85 82.85-82.85h331.402c45.733 0 82.85 37.116 82.85 82.85v248.551zM77.054 926.251h869.892c11.489 0 20.695 9.28 20.695 20.694v41.462a20.694 20.694 0 0 1-20.62 20.695H76.98a20.694 20.694 0 0 1-20.694-20.695v-41.462c0-11.415 9.205-20.694 20.62-20.694z" /></svg>