<?xml version="1.0" standalone="no"?><!DOCTYPE svg PUBLIC "-//W3C//DTD SVG 1.1//EN" "http://www.w3.org/Graphics/SVG/1.1/DTD/svg11.dtd"><svg width="200px" height="200px" viewBox="0 0 1024 1024" version="1.1" xmlns="http://www.w3.org/2000/svg"><path d="M995.334 526.154a37.214 37.214 0 0 0 0-28.446 36.316 36.316 0 0 0-8.01-11.944l-153.41-153.411a37.007 37.007 0 0 0-52.265 52.264l90.307 90.376h-320.01V154.846l90.307 90.307a36.868 36.868 0 0 0 52.265 0 37.007 37.007 0 0 0 0-52.265L541.038 39.476c-1.727-1.795-3.867-2.623-5.87-3.935-1.933-1.381-3.728-3.038-6.006-4.005a37.283 37.283 0 0 0-28.514 0c-2.279 0.967-4.005 2.624-6.076 4.005-1.933 1.38-4.074 2.071-5.8 3.935l-153.48 153.412a37.007 37.007 0 0 0 52.334 52.265l90.307-90.307v320.147H157.992l90.238-90.376a37.007 37.007 0 0 0-52.334-52.333L42.623 485.764a36.247 36.247 0 0 0-8.01 40.39 35.488 35.488 0 0 0 8.01 12.013l153.273 153.342a36.868 36.868 0 0 0 52.334 0 36.868 36.868 0 0 0 0-52.265l-90.238-90.307h320.01v320.08l-90.307-90.308a36.868 36.868 0 0 0-52.334 0 37.007 37.007 0 0 0 0 52.334l153.411 153.343a37.283 37.283 0 0 0 52.472 0l153.343-153.343a37.007 37.007 0 0 0-52.265-52.334l-90.307 90.307V548.937h320.01l-90.307 90.307a37.007 37.007 0 0 0 52.265 52.265l153.41-153.342a36.592 36.592 0 0 0 8.01-12.013" /></svg>