<?xml version="1.0" standalone="no"?><!DOCTYPE svg PUBLIC "-//W3C//DTD SVG 1.1//EN" "http://www.w3.org/Graphics/SVG/1.1/DTD/svg11.dtd"><svg   viewBox="0 0 1024 1024" version="1.1" xmlns="http://www.w3.org/2000/svg"  xmlns:xlink="http://www.w3.org/1999/xlink" width="200" height="200"><path d="M646.927661 16.444235c26.021647 0 51.2 9.637647 70.475294 27.105883l157.635765 141.793882c22.226824 19.998118 34.876235 48.429176 34.876235 78.305882v438.633412a105.411765 105.411765 0 0 1-105.411764 105.411765h-128.240942v69.872941a105.411765 105.411765 0 0 1-105.411764 105.411765H165.647661A105.411765 105.411765 0 0 1 60.235896 877.507765V297.020235c0-58.187294 47.164235-105.411765 105.411765-105.411764h69.872941V121.856c0-58.247529 47.164235-105.411765 105.411765-105.411765z m-411.407059 265.637647H165.647661a15.058824 15.058824 0 0 0-15.058823 15.058824v580.367059c0 8.312471 6.746353 15.058824 15.058823 15.058823h405.202824a15.058824 15.058824 0 0 0 15.058823-15.058823V807.755294H340.932367a105.411765 105.411765 0 0 1-105.411765-105.411765V282.021647z m411.407059-175.284706H340.932367a15.058824 15.058824 0 0 0-15.058823 15.058824v580.427294c0 8.312471 6.686118 15.058824 15.058823 15.058824h463.570824a15.058824 15.058824 0 0 0 15.058823-15.058824V263.649882a15.058824 15.058824 0 0 0-4.999529-11.143529L656.986955 110.652235a15.058824 15.058824 0 0 0-10.059294-3.855059z" ></path></svg>