<?xml version="1.0" standalone="no"?><!DOCTYPE svg PUBLIC "-//W3C//DTD SVG 1.1//EN" "http://www.w3.org/Graphics/SVG/1.1/DTD/svg11.dtd"><svg width="200px" height="200px" viewBox="0 0 1024 1024" version="1.1" xmlns="http://www.w3.org/2000/svg"><path d="M516.073 694.044l61.604-60.001-80.61-78.644-61.603 60.002v28.982h50.972v49.661h29.71zM749.6 321.654c-5.68-5.461-11.505-5.315-17.476 0.51L546.438 503.262c-6.044 5.825-6.262 11.578-0.582 17.112 5.68 5.461 11.505 5.316 17.476-0.51L749.017 338.84c6.044-5.825 6.263-11.578 0.583-17.112z m42.453 307.291v98.232c0 40.996-14.928 76.094-44.856 105.221-29.855 29.127-65.827 43.69-107.989 43.69H197.86c-42.09 0-78.134-14.563-107.99-43.69-29.927-29.127-44.928-64.225-44.928-105.221V296.823c0-40.996 14.928-76.094 44.856-105.221 29.855-29.127 65.9-43.69 107.989-43.69h441.348c22.283 0 42.963 4.368 62.114 12.96a15.729 15.729 0 0 1 9.539 11.87 15.874 15.874 0 0 1-4.733 15l-25.996 25.341a15.801 15.801 0 0 1-17.04 4.15 96.702 96.702 0 0 0-23.884-3.13H197.86c-23.375 0-43.327 8.082-60.002 24.32a78.643 78.643 0 0 0-24.904 58.4v430.354c0 22.719 8.301 42.234 24.904 58.4 16.675 16.238 36.627 24.32 60.002 24.32h441.275c23.375 0 43.4-8.082 60.002-24.32a78.643 78.643 0 0 0 24.904-58.4v-65.172a15.292 15.292 0 0 1 4.806-11.433l33.933-33.059a16.238 16.238 0 0 1 18.568-3.64c7.137 2.766 10.632 7.79 10.632 15z m-50.973-381.71l152.918 148.912-356.662 347.56H384.564V594.72l356.589-347.486z m235.639 68.23l-48.788 47.623-152.918-148.986 48.861-47.55a49.807 49.807 0 0 1 36.118-14.563c14.126 0 26.214 4.879 36.044 14.563l80.683 78.644a47.332 47.332 0 0 1 14.854 35.098 47.332 47.332 0 0 1-14.854 35.17z" /></svg>