<?xml version="1.0" standalone="no"?><!DOCTYPE svg PUBLIC "-//W3C//DTD SVG 1.1//EN" "http://www.w3.org/Graphics/SVG/1.1/DTD/svg11.dtd"><svg width="200px" height="200px" viewBox="0 0 1024 1024" version="1.1" xmlns="http://www.w3.org/2000/svg"><path d="M512 297.97c181.926 0 338.582 101.699 411.836 248.551h71.458C917.898 364.388 730.864 235.831 512 235.831S106.033 364.389 28.706 546.522h71.458C173.418 399.669 330.074 297.97 512 297.97z m0 497.102c-181.926 0-338.582-101.768-411.836-248.551H28.706c77.396 182.133 264.43 310.69 483.294 310.69s405.898-128.557 483.294-310.69h-71.458C850.582 693.304 693.926 795.072 512 795.072zM338.152 546.521c0 91.55 77.81 165.7 173.848 165.7 95.968 0 173.848-74.15 173.848-165.7 0-91.55-77.81-165.7-173.848-165.7-95.968 0-173.848 74.15-173.848 165.7z m282.52 0c0 57.167-48.674 103.563-108.672 103.563-60.067 0-108.672-46.396-108.672-103.563S452.002 442.958 512 442.958c60.067 0 108.672 46.396 108.672 103.563z" /></svg>