<?xml version="1.0" standalone="no"?><!DOCTYPE svg PUBLIC "-//W3C//DTD SVG 1.1//EN" "http://www.w3.org/Graphics/SVG/1.1/DTD/svg11.dtd"><svg   viewBox="0 0 1024 1024" version="1.1" xmlns="http://www.w3.org/2000/svg"  xmlns:xlink="http://www.w3.org/1999/xlink" width="200" height="200"><path d="M492.664471 19.516235a83.004235 83.004235 0 0 1 74.330353 46.200471l-40.478118 20.058353 40.538353-19.998118 107.218823 217.389177 240.218353 34.93647a82.883765 82.883765 0 0 1 45.477647 141.432471l-0.060235 0.060235-173.598118 169.261177 40.96 239.134117a83.004235 83.004235 0 0 1-120.771764 87.461647l-213.835294-112.459294-214.377412 112.760471a82.883765 82.883765 0 0 1-120.771765-87.341177l40.96-239.194353L25.118118 459.836235v-0.060235L18.793412 452.969412a82.883765 82.883765 0 0 1 51.681882-134.625883h0.180706l240.338824-35.177411 107.218823-217.449412A82.944 82.944 0 0 1 492.724706 19.516235z m0 99.689412l-102.4 207.510588a83.064471 83.064471 0 0 1-62.34353 45.296941l-229.014588 33.490824 165.466353 161.792a82.883765 82.883765 0 0 1 23.792941 73.487059l-39.152941 228.291765 205.040941-107.821177a82.944 82.944 0 0 1 77.161412 0l204.498823 107.459765-39.152941-228.291765v-0.060235a82.763294 82.763294 0 0 1 18.31153-67.523765l5.481411-5.903059 165.76753-161.611294-228.713412-33.310118a83.184941 83.184941 0 0 1-62.403765-45.296941l-102.4-207.510588z" ></path></svg>