<?xml version="1.0" standalone="no"?><!DOCTYPE svg PUBLIC "-//W3C//DTD SVG 1.1//EN" "http://www.w3.org/Graphics/SVG/1.1/DTD/svg11.dtd"><svg width="200px" height="200px" viewBox="0 0 1024 1024" version="1.1" xmlns="http://www.w3.org/2000/svg"><path d="M92.764 698.1h345.394a406.74 406.74 0 0 1-94.045-91.687H92.763a42.935 42.935 0 0 0-43.965 41.83v7.733c0 23.198 19.663 42.05 43.966 42.05z m774.596 11.268c-8.248-20.694-32.846-31.299-55.013-23.493l-10.31 3.683c-22.314 7.511-33.582 30.562-25.334 51.11l74.823 187.204c8.322 20.621 32.92 31.152 55.013 23.493l10.458-3.682c22.314-7.512 33.582-30.636 25.26-51.183L867.36 709.368z m-179.104 141.62H92.764a42.935 42.935 0 0 0-43.966 41.977v7.732c0 23.199 19.663 42.125 43.966 42.125h595.492c24.303 0 43.966-18.853 43.966-41.977v-7.88a42.935 42.935 0 0 0-43.966-41.978zM363.629 428.78A301.576 301.576 0 0 0 460.4 603.32a325.702 325.702 0 0 0 121.514 69.594 335.82 335.82 0 0 0 248.035-18.338c159-77.769 221.966-264.164 140.81-416.314-69.3-129.468-220.64-192.066-362.333-159.81a321.533 321.533 0 0 0-157.895 85.723 304.521 304.521 0 0 0-88.668 177.19 297.716 297.716 0 0 0 1.767 87.416z m319.103-283.9c135.36 0 245.017 104.943 245.017 234.411 0 129.394-109.731 234.338-245.017 234.338S437.79 508.76 437.79 379.366s109.73-234.412 244.942-234.412zM95.93 354.62a46.102 46.102 0 0 0-47.132 45.07v8.47c0 24.892 21.136 44.923 47.132 44.923h180.43c-4.713-23.86-7.364-48.532-7.364-73.792 0-8.248 0.736-16.423 1.252-24.671H95.93z m-3.166-168.058h228.814a399.892 399.892 0 0 1 74.013-91.761H92.764a42.935 42.935 0 0 0-43.966 41.83v7.807c0 23.271 19.663 42.124 43.966 42.124z" /></svg>