<?xml version="1.0" standalone="no"?><!DOCTYPE svg PUBLIC "-//W3C//DTD SVG 1.1//EN" "http://www.w3.org/Graphics/SVG/1.1/DTD/svg11.dtd"><svg width="200px" height="200px" viewBox="0 0 1024 1024" version="1.1" xmlns="http://www.w3.org/2000/svg"><path d="M569.155 1001.158c46.583 0 84.367-37.706 84.367-84.289V466.281a26.394 26.394 0 0 1 9.427-21.21L946.217 217.97l3.456-3.378c22.86-25.452 28.672-60.016 15.24-91.202A83.818 83.818 0 0 0 887.3 72.801H129.407c-33.779 0-63.158 19.403-76.67 50.59-13.59 31.42-7.462 66.77 15.869 90.887l2.985 3.142 281.146 224.744a26.316 26.316 0 0 1 10.527 21.053v386.33c-0.158 30.951 16.732 59.388 43.833 74.235l121.68 67.321c12.413 6.677 26.317 10.212 40.456 10.055zM109.768 174.372l-1.414-1.414a26.316 26.316 0 0 1 21.053-42.105H887.3c9.898 0 19.01 5.656 23.487 14.532a26.551 26.551 0 0 1-3.849 28.908L626.657 400.216a84.368 84.368 0 0 0-31.186 65.75v449.725a26.316 26.316 0 0 1-39.278 23.723l-121.838-66.457a26.159 26.159 0 0 1-13.197-23.41v-386.33c0-25.687-11.783-49.882-32.05-65.75l-279.34-223.095z m833.7 363.079a29.065 29.065 0 1 0 0-58.13H735.061a29.065 29.065 0 1 0 0 58.13h208.405z m0 138.256a29.065 29.065 0 0 0 0-58.052H735.061a29.065 29.065 0 1 0 0 58.13h208.405z m0 137.47a29.065 29.065 0 1 0 0-58.13H735.061a29.065 29.065 0 1 0 0 58.13h208.405z" /></svg>