<?xml version="1.0" standalone="no"?><!DOCTYPE svg PUBLIC "-//W3C//DTD SVG 1.1//EN" "http://www.w3.org/Graphics/SVG/1.1/DTD/svg11.dtd"><svg width="200px" height="200px" viewBox="0 0 1024 1024" version="1.1" xmlns="http://www.w3.org/2000/svg"><path d="M451.934 902.047A60.122 60.122 0 0 1 392 842V541.597L108.406 235.344A60 60 0 0 1 152 134.188h0.234l719.888 5.625a60 60 0 0 1 43.397 101.25L632 541.755V782a30 30 0 0 1-13.912 25.313l-136.613 86.83a30 30 0 0 1-2.672 1.51 60 60 0 0 1-26.869 6.394zM152 194.187l0.29 0.31 291.666 315A30 30 0 0 1 452 529.812v311.991l120-76.256V529.812a30 30 0 0 1 8.175-20.625l291.694-309.234 0.131-0.14h-0.234z m720.112 5.485" /></svg>