<?xml version="1.0" standalone="no"?><!DOCTYPE svg PUBLIC "-//W3C//DTD SVG 1.1//EN" "http://www.w3.org/Graphics/SVG/1.1/DTD/svg11.dtd"><svg   viewBox="0 0 1024 1024" version="1.1" xmlns="http://www.w3.org/2000/svg"  xmlns:xlink="http://www.w3.org/1999/xlink" width="200" height="200"><path d="M886.784 72.96c-36.032 27.776-96.128 43.712-164.992 43.712-67.648 0-120.704-14.336-166.912-45.056C499.008 34.368 432.64 0 326.144 0c-106.112 0-193.152 37.76-232.32 75.2a33.344 33.344 0 0 0-10.304 24.128v891.328c0 8.832 25.28 33.28 50.304 33.28 24.32 0 48.32-24.448 48.32-33.28v-332.672c33.152-24.704 65.728-48.448 144-48.448 83.968 0 137.408 24.128 191.808 60.416 56.896 37.888 123.52 56.32 203.84 56.32 84.416 0 157.44-20.48 205.696-57.6a33.28 33.28 0 0 0 12.992-26.432V99.328a33.28 33.28 0 0 0-53.696-26.368z m-39.68 523.84c-33.728 19.84-83.584 31.104-139.712 31.104-62.144 0-110.912-12.8-153.344-40.256-51.2-33.152-112.192-63.872-210.24-63.872-63.872 0-120.32 14.464-161.664 33.92V141.632c30.528-21.952 89.984-43.008 161.664-43.008 77.056 0 126.208 21.568 176.256 53.952 52.288 33.792 113.536 50.176 187.328 50.176 52.672 0 100.544-8.384 139.712-24.192v418.24z" ></path></svg>