<?xml version="1.0" standalone="no"?><!DOCTYPE svg PUBLIC "-//W3C//DTD SVG 1.1//EN" "http://www.w3.org/Graphics/SVG/1.1/DTD/svg11.dtd"><svg width="200px" height="200px" viewBox="0 0 1024 1024" version="1.1" xmlns="http://www.w3.org/2000/svg"><path d="M414.462 118.25a28.125 28.125 0 0 1 27.282 21.544L470.6 287.28h386.212c53.775 0 105.188 44.606 105.188 98.381V809.17c0 53.719-51.413 96.581-105.188 96.581H151.775C98.112 905.75 62 862.888 62 809.169V216.575c0-53.775 36-98.325 89.831-98.325h262.631zM392.3 175.288H154.137c-22.725 0-33.525 19.35-33.525 42.074V809c0 22.725 10.8 40.331 33.525 40.331h702.226c22.724 0 48.937-17.606 48.937-40.331V385.606c0-22.781-26.212-42.131-48.938-42.131H448.438a28.125 28.125 0 0 1-27.338-21.488l-28.8-146.7zM540.125 230.75a28.125 28.125 0 0 1 0-56.25h336.994a28.125 28.125 0 0 1 0 56.25H540.125z" /></svg>