<?xml version="1.0" standalone="no"?><!DOCTYPE svg PUBLIC "-//W3C//DTD SVG 1.1//EN" "http://www.w3.org/Graphics/SVG/1.1/DTD/svg11.dtd"><svg width="200px" height="200px" viewBox="0 0 1024 1024" version="1.1" xmlns="http://www.w3.org/2000/svg"><path d="M594.708 63.015c-15.754-11.815-37.416-17.723-63.016-17.723-5.907 0-11.815 0-17.723 1.97-68.923 9.846-114.215 74.83-141.784 133.907-11.816 27.57-23.631 57.108-33.477 86.646-5.908 13.785-9.846 27.57-15.754 41.354 0 1.97-7.877 29.539-9.846 29.539h-70.893c-9.846 0-17.723 7.877-17.723 17.723s7.877 17.723 17.723 17.723h61.047l-35.447 147.692c-31.507 161.477-76.8 348.554-88.615 382.03-11.815 33.478-27.57 51.2-49.23 51.2-3.94 0-7.878 0-9.847-1.968-1.97-1.97-3.938-3.939-3.938-7.877 0-1.97 1.969-7.877 5.907-13.785 3.939-5.908 5.908-13.784 5.908-19.692 0-13.785-3.938-23.63-13.785-31.508-7.877-7.877-17.723-11.815-29.538-11.815s-21.662 3.938-31.508 11.815c-9.846 7.877-13.784 19.692-13.784 33.477 0 19.692 7.877 35.446 23.63 49.23 15.754 13.785 35.447 19.693 61.047 19.693 41.353 0 80.738-19.692 108.307-51.2 17.723-19.692 29.539-43.323 41.354-68.923 35.446-76.8 53.17-161.477 72.862-242.215 19.692-82.708 39.384-165.416 57.107-250.093h68.923c9.847 0 17.723-7.877 17.723-17.723s-7.876-17.723-17.723-17.723H411.57C445.046 204.8 484.431 116.185 492.308 102.4c13.784-21.662 27.569-33.477 41.354-33.477 5.907 0 9.846 1.97 11.815 3.939 1.97 3.938 1.97 5.907 1.97 7.876 0 1.97-1.97 5.908-5.909 13.785-3.938 7.877-5.907 15.754-5.907 23.63 0 11.816 3.938 19.693 11.815 27.57 7.877 7.877 17.723 11.815 29.539 11.815s21.661-3.938 29.538-11.815c7.877-7.877 11.815-19.692 11.815-33.477 1.97-21.661-5.907-37.415-23.63-49.23z m313.107 393.847c25.6 0 74.831-19.693 74.831-86.647 0-64.984-47.261-68.923-61.046-68.923-29.538 0-57.108 21.662-82.708 64.985-25.6 45.292-53.169 92.554-53.169 92.554-5.908-31.508-11.815-57.108-13.785-68.923-5.907-27.57-37.415-86.646-102.4-86.646-64.984 0-124.061 37.415-124.061 37.415-11.815 7.877-17.723 19.692-17.723 33.477 0 21.661 17.723 39.384 39.384 39.384 5.908 0 11.816-1.969 17.724-3.938 0 0 49.23-27.57 59.076 0 3.939 7.877 5.908 17.723 7.877 27.57 11.816 43.322 23.631 92.553 33.477 137.845l-43.323 61.047s-47.261-17.724-72.861-17.724-74.831 19.693-74.831 86.647 47.261 68.923 61.046 68.923c29.539 0 57.108-21.662 82.708-64.985 25.6-45.292 53.169-92.554 53.169-92.554 7.877 39.385 15.754 72.862 19.692 86.646 15.754 45.293 53.17 72.862 104.37 72.862 0 0 51.2 0 112.246-33.477 13.784-5.908 25.6-19.692 25.6-37.415 0-21.662-17.723-39.385-39.385-39.385-5.908 0-11.815 1.97-17.723 3.938 0 0-43.323 23.631-57.108 5.908-9.846-19.692-19.692-47.261-25.6-78.77-5.907-29.538-13.784-63.014-19.692-96.491l43.323-63.016c-1.97 1.97 47.262 19.693 70.892 19.693z" /></svg>