<?xml version="1.0" standalone="no"?><!DOCTYPE svg PUBLIC "-//W3C//DTD SVG 1.1//EN" "http://www.w3.org/Graphics/SVG/1.1/DTD/svg11.dtd"><svg width="200px" height="155.62px" viewBox="0 0 1316 1024" version="1.1" xmlns="http://www.w3.org/2000/svg"><path d="M156.19 649.143q21.429 0 30-17.143t0-34.285-30-17.143-30 17.143 0 34.285 30 17.143z m789.108-31.071q-5.358-6.965-20.625-26.787t-22.233-28.928-20.357-26.25-22.768-28.392-21.696-25.18-24.107-26.25l-66.964 75q-44.465 50.358-111.697 49.287t-110.09-52.5q-30.535-36.965-30.267-84.644t31.34-84.106l94.82-110.357q-11.786-5.893-27.32-8.84t-25.447-3.215-30.268 0.268-26.25 0.537q-49.286 0-84.643 35.357l-84.643 84.643h-83.035v291.428q2.678 0 11.25-0.268t11.785 0 10.447 1.072 10.982 2.41 9.375 4.553 9.911 7.233l159.107 156.429q61.607 59.463 121.607 59.463 41.786 0 66.964-25.178 30.536 10.715 60.268-4.285t38.84-45.538q39.642 3.215 68.035-23.57 10.714-9.643 19.286-24.375t7.5-27.055q5.357 5.358 23.035 5.358 23.036 0 41.25-11.25t26.518-28.392 6.429-38.303-16.339-39.375z m85.178 31.071h51.429V374.857h-49.822l-84.107-96.429q-35.357-40.713-90.536-40.713h-89.464q-47.678 0-78.214 35.892L577.799 403.785q-15 17.68-15 40.18t14.464 40.178Q600.299 511.465 636.19 512t59.465-26.25l103.393-116.785q13.392-12.322 28.66-11.518t25.179 14.463 4.553 30.268q8.572 10.179 30 33.75t32.143 36.429q15.536 19.286 44.197 56.518t34.553 45.268q27.857 35.357 32.143 75z m154.286 0q21.428 0 30-17.143t0-34.285-30-17.143-30 17.143 0 34.285 30 17.143z m102.857-308.571v342.856q0 13.929-10.179 24.107t-24.107 10.18h-232.5q-14.464 34.821-43.928 57.054t-66.965 27.589q-17.678 25.715-43.125 43.661t-54.91 24.375q-22.5 28.392-55.982 43.66t-68.84 13.125q-32.143 18.215-67.5 21.162t-68.303-7.5-62.679-28.662-55.446-43.393l-153.75-151.07H87.618q-13.929 0-24.107-10.18t-10.178-24.108v-360q0-13.928 10.179-24.106t24.107-10.179h225.536q7.5-7.5 25.178-25.715t25.447-25.713 23.571-21.43 27.054-20.088 27.321-13.662 33.214-10.445 36.429-2.947h62.679q53.035 0 96.964 30 43.928-30 96.964-30h89.464q18.75 0 35.893 3.214t30.268 7.768 27.59 14.197 23.839 16.606 23.035 21.162 20.893 22.5 21.965 25.713 22.232 25.982h190.178q13.929 0 24.107 10.18t10.179 24.107z" /></svg>