<?xml version="1.0" standalone="no"?><!DOCTYPE svg PUBLIC "-//W3C//DTD SVG 1.1//EN" "http://www.w3.org/Graphics/SVG/1.1/DTD/svg11.dtd"><svg width="200px" height="200px" viewBox="0 0 1024 1024" version="1.1" xmlns="http://www.w3.org/2000/svg"><path d="M512 22.478C241.644 22.478 22.478 241.644 22.478 512S241.644 1001.522 512 1001.522 1001.522 782.356 1001.522 512 782.356 22.478 512 22.478z m38.233 719.168h-84.588v-102.23h84.588v102.23z m39.331-224.8c-29.58 27.482-39.331 49.221-39.331 77.753v6.414h-84.588v-11.259c0-40.74 15.076-73.009 64.617-117.126 30.75-27.543 38.283-49.202 38.283-73.608 0-27.283-16.224-52.848-54.087-52.848-40.7 0-56.845 26.964-61.42 63.198h-80.002c2.877-49.851 35.035-127.475 142.99-127.016 103.32 0.46 134.938 68.743 134.938 119.214 0 42.678-13.876 71.61-61.4 115.277z" /></svg>