<?xml version="1.0" standalone="no"?><!DOCTYPE svg PUBLIC "-//W3C//DTD SVG 1.1//EN" "http://www.w3.org/Graphics/SVG/1.1/DTD/svg11.dtd"><svg width="200px" height="200px" viewBox="0 0 1024 1024" version="1.1" xmlns="http://www.w3.org/2000/svg"><path d="M274.32277333 763.71119787a27.32652658 27.32652658 0 0 0-27.96202666 27.43244344c0 17.10555819 13.98101333 23.99014798 27.96202666 23.99014799h471.8592a27.32652658 27.32652658 0 0 0 27.96202667-27.43244345c0-17.15851605-10.48576-27.43244231-27.96202667-27.43244231h-471.8592v3.44229433zM826.5728 146.90490141v719.59852032H221.89397333c-13.98101333 0-24.46677333-10.27392626-27.96202666-27.43244346v-102.73926485c3.49525333-10.32688526 13.98101333-24.04310585 27.96202666-24.04310585H774.144V146.90490141c0-27.43244231-24.46677333-51.36963243-52.4288-51.36963243h-524.288c-27.96202667 0-52.4288 23.93718898-52.4288 51.36963243v719.59852032c0 27.43244231 24.46677333 51.36963243 52.4288 51.36963242h629.1456c27.96202667 0 52.4288-23.93718898 52.4288-51.36963242V146.90490141h-52.4288z m-328.55381333 438.60133546a38.55370354 38.55370354 0 0 1-52.4288 0 36.75311787 36.75311787 0 0 1 0-51.36963242 38.55370354 38.55370354 0 0 1 52.4288 0c6.99050667 6.88458979 10.48576 17.10555819 10.48576 23.99014798a38.50074453 38.50074453 0 0 1-10.48576 27.37948444zM354.7136 314.78297827c3.49525333-13.66326272 10.48576-27.37948445 20.97152-37.6534107 10.48576-13.76917959 24.46677333-23.99014798 38.44778667-30.87473778a139.38646585 139.38646585 0 0 1 62.91456-13.66326272c17.47626667 0 34.95253333 3.38933646 52.4288 6.8316308 13.98101333 3.44229547 24.46677333 13.71622173 34.95253333 23.99014798s17.47626667 20.54785251 20.97152 34.26407424 6.99050667 27.43244231 3.49525333 41.09570617c0 13.76917959-6.99050667 27.43244231-13.98101333 37.70636971-6.99050667 10.27392626-17.47626667 20.54785251-27.96202667 30.87473777-10.48576 10.27392626-20.97152 17.10555819-27.96202666 23.93718898-6.99050667 3.44229547-10.48576 10.32688526-10.48576 20.60081152v13.71622173c0 6.83163193-3.49525333 13.66326272-6.99050667 20.54785251-6.99050667 6.88458979-13.98101333 10.27392626-20.97152 10.27392626s-17.47626667-3.44229547-20.97152-6.8845898a25.94960839 25.94960839 0 0 1-6.99050667-17.10555819V448.44993991c0-6.88458979 3.49525333-13.71622173 6.99050667-20.54785365 3.49525333-6.88458979 10.48576-13.71622173 13.98101333-17.15851605 6.99050667-6.88458979 13.98101333-10.27392626 20.97152-17.10555819 6.99050667-6.88458979 13.98101333-10.27392626 20.97152-17.15851605 6.99050667-3.44229547 10.48576-10.27392626 13.98101334-17.10555819 3.49525333-6.88458979 6.99050667-10.27392626 6.99050666-17.15851605a43.53179193 43.53179193 0 0 0-13.98101333-34.26407424 68.05152313 68.05152313 0 0 0-41.94304-13.71622173c-6.99050667 0-17.47626667 3.44229547-24.46677333 6.88458979a41.73120626 41.73120626 0 0 0-17.47626667 17.10555819c-3.49525333 6.88458979-10.48576 13.71622173-13.98101333 20.54785252-3.49525333 6.88458979-3.49525333 10.32688526-3.49525334 17.15851605 0 6.88458979-3.49525333 13.71622173-10.48576 17.10555819-6.99050667 3.44229547-13.98101333 6.88458979-20.97152 6.88458979s-13.98101333-3.44229547-20.97152-6.88458979a30.82177991 30.82177991 0 0 1-10.48576-23.93718898c-6.99050667-13.76917959-6.99050667-23.99014798-3.49525333-34.31703325z" /></svg>