<?xml version="1.0" standalone="no"?><!DOCTYPE svg PUBLIC "-//W3C//DTD SVG 1.1//EN" "http://www.w3.org/Graphics/SVG/1.1/DTD/svg11.dtd"><svg width="200px" height="200px" viewBox="0 0 1024 1024" version="1.1" xmlns="http://www.w3.org/2000/svg"><path d="M518.06814827 815.40740693c-48.54518507 0-91.02222187-18.2044448-127.43111147-54.61333333L44.75259307 372.43259307c-24.27259307-24.27259307-18.2044448-60.6814816 6.0681472-84.95407467 24.27259307-24.27259307 60.6814816-18.2044448 84.95407466 6.06814827l351.952592 388.3614816c6.06814827 6.06814827 18.2044448 12.13629653 30.34074134 12.13629653s24.27259307-6.06814827 36.40888853-18.2044448l333.74814827-388.3614816c24.27259307-24.27259307 60.6814816-30.34074027 84.95407466-6.06814827 24.27259307 24.27259307 30.34074027 60.6814816 6.0681472 84.95407467L645.49925973 754.7259264c-30.34074027 42.4770368-72.81777813 60.6814816-127.43111146 60.68148053 6.06814827 0 0 0 0 0z" /></svg>