<?xml version="1.0" standalone="no"?><!DOCTYPE svg PUBLIC "-//W3C//DTD SVG 1.1//EN" "http://www.w3.org/Graphics/SVG/1.1/DTD/svg11.dtd"><svg   viewBox="0 0 1024 1024" version="1.1" xmlns="http://www.w3.org/2000/svg"  xmlns:xlink="http://www.w3.org/1999/xlink" width="200" height="200"><path d="M596.931765 405.323294a79.570824 79.570824 0 0 1 65.415529 35.297882l0.120471 0.180706 177.573647 267.806118a45.176471 45.176471 0 0 1-37.647059 70.174118H252.687059a45.176471 45.176471 0 0 1-37.526588-70.294589l116.85647-175.043764a79.691294 79.691294 0 0 1 115.832471-18.070589l19.215059 15.36 63.849411-91.316705A79.510588 79.510588 0 0 1 596.931765 405.383529z m-0.90353 98.725647l-82.522353 117.940706a45.176471 45.176471 0 0 1-65.295058 9.396706l-47.585883-38.068706-63.427765 95.111529h381.048471l-122.277647-184.380235zM0 165.647059A165.647059 165.647059 0 0 1 165.647059 0h653.974588a165.647059 165.647059 0 0 1 165.647059 165.647059v653.974588a165.647059 165.647059 0 0 1-165.647059 165.647059H165.647059A165.647059 165.647059 0 0 1 0 819.621647V165.647059zM165.647059 90.352941c-41.562353 0-75.294118 33.731765-75.294118 75.294118v653.974588c0 41.562353 33.731765 75.294118 75.294118 75.294118h653.974588c41.562353 0 75.294118-33.731765 75.294118-75.294118V165.647059c0-41.562353-33.731765-75.294118-75.294118-75.294118H165.647059z m103.122823 184.982588h0.120471a62.403765 62.403765 0 1 1-0.120471 0z" ></path></svg>