<?xml version="1.0" standalone="no"?><!DOCTYPE svg PUBLIC "-//W3C//DTD SVG 1.1//EN" "http://www.w3.org/Graphics/SVG/1.1/DTD/svg11.dtd"><svg width="200px" height="200px" viewBox="0 0 1024 1024" version="1.1" xmlns="http://www.w3.org/2000/svg"><path d="M271.073 996.288a228.83 228.83 0 0 1-230.4-232.285 238.9 238.9 0 0 1 69.678-165.672l119.246-118.46a39.042 39.042 0 1 1 56.559 53.81L165.339 652.613c-29.772 29.693-46.74 69.913-47.211 111.861-0.707 41.163 15.396 80.911 44.54 109.976a157.109 157.109 0 0 0 221.838-2.749l185.781-186.174c30.008-29.537 46.976-69.835 47.212-111.862a150.589 150.589 0 0 0-44.462-109.583 38.884 38.884 0 1 1 54.988-54.988c43.833 43.833 68.028 103.692 66.928 165.75a238.491 238.491 0 0 1-69.677 165.671l-184.29 186.174a237.706 237.706 0 0 1-169.913 69.678z m165.279-356.951a38.727 38.727 0 0 1-27.494-11.155 228.436 228.436 0 0 1-67.007-165.75 238.637 238.637 0 0 1 69.756-165.671l186.175-186.174a234.564 234.564 0 0 1 331.342-2.75c43.598 44.07 67.714 103.692 67.007 165.75a238.491 238.491 0 0 1-69.677 167.557L807.208 557.326a38.727 38.727 0 0 1-54.596-54.595l118.853-118.853c29.851-29.694 46.74-69.914 47.212-111.862a151.767 151.767 0 0 0-44.462-109.976 157.109 157.109 0 0 0-221.838 2.75L466.438 350.962a158.366 158.366 0 0 0-47.132 111.862c-0.786 41.084 15.318 80.675 44.462 109.583a38.727 38.727 0 0 1 0 54.989 38.727 38.727 0 0 1-27.495 11.94z" /></svg>