<?xml version="1.0" standalone="no"?><!DOCTYPE svg PUBLIC "-//W3C//DTD SVG 1.1//EN" "http://www.w3.org/Graphics/SVG/1.1/DTD/svg11.dtd"><svg width="200px" height="200px" viewBox="0 0 1024 1024" version="1.1" xmlns="http://www.w3.org/2000/svg"><path d="M153.6 270.063c0 17.681-13.926 33.11-29.9 33.11H64.033c-15.974 0-29.9-15.429-29.9-33.11v-66.219c0-17.75 13.926-33.177 29.9-33.177h59.733c15.907 0 29.833 15.428 29.833 33.109v66.219z m836.267-66.219c0-17.75-13.927-33.177-29.901-33.177H263.1c-15.906 0-29.833 15.428-29.833 33.109v66.219c0 17.749 13.927 33.177 29.833 33.177h696.934c15.906 0 29.833-15.428 29.833-33.11v-66.218zM153.6 512.956c0-17.75-13.926-33.178-29.9-33.178H64.033c-15.974 0-29.9 15.497-29.9 33.178v66.218c0 17.75 13.926 33.178 29.9 33.178h59.733c15.907 0 29.833-15.497 29.833-33.178v-66.218z m756.6 0c0-17.75-13.927-33.178-29.833-33.178H263.1c-15.906 0-29.833 15.497-29.833 33.178v66.218c0 17.75 13.927 33.178 29.833 33.178h617.267c15.906 0 29.832-15.497 29.832-33.178v-66.218zM153.6 822.272c0-17.75-13.926-33.178-29.9-33.178H64.033c-15.974 0-29.9 15.429-29.9 33.11v66.218c0 17.75 13.926 33.178 29.9 33.178h59.733c15.907 0 29.833-15.428 29.833-33.11v-66.218z m836.267 0c0-17.75-13.927-33.178-29.901-33.178H263.1c-15.906 0-29.833 15.429-29.833 33.11v66.218c0 17.75 13.927 33.178 29.833 33.178h696.934c15.906 0 29.833-15.428 29.833-33.11v-66.218z" /></svg>