<?xml version="1.0" standalone="no"?><!DOCTYPE svg PUBLIC "-//W3C//DTD SVG 1.1//EN" "http://www.w3.org/Graphics/SVG/1.1/DTD/svg11.dtd"><svg width="200px" height="200px" viewBox="0 0 1024 1024" version="1.1" xmlns="http://www.w3.org/2000/svg"><path d="M999.849 471.177h-77.22A415.396 415.396 0 0 0 546.59 95.058v-77.14h-75.57v77.219a415.396 415.396 0 0 0-375.882 376.04h-77.22v75.57h77.22a415.396 415.396 0 0 0 375.961 375.961v77.22h75.57v-77.22A415.396 415.396 0 0 0 922.63 546.746h77.219v-75.57zM546.589 846.51V659.943h-75.412V846.51a339.905 339.905 0 0 1-299.921-299.842h186.567v-75.57H171.256a339.905 339.905 0 0 1 299.842-299.842v186.567h75.57V171.256A339.905 339.905 0 0 1 846.51 471.098H659.943v75.57H846.51A339.905 339.905 0 0 1 546.668 846.51z" /></svg>