<?xml version="1.0" standalone="no"?><!DOCTYPE svg PUBLIC "-//W3C//DTD SVG 1.1//EN" "http://www.w3.org/Graphics/SVG/1.1/DTD/svg11.dtd"><svg width="200px" height="200px" viewBox="0 0 1024 1024" version="1.1" xmlns="http://www.w3.org/2000/svg"><path d="M512 152a360 360 0 1 1 0 720 360 360 0 0 1 0-720z m0 60a300 300 0 1 0 0 600 300 300 0 0 0 0-600zM782 512h180q30 0 30 30t-30 30H782q-30 0-30-30t30-30zM62 512h180q30 0 30 30t-30 30H62q-30 0-30-30t30-30zM542 752q30 0 30 30v180q0 30-30 30t-30-30V782q0-30 30-30zM542 32q30 0 30 30v180q0 30-30 30t-30-30V62q0-30 30-30z" /></svg>