<?xml version="1.0" standalone="no"?><!DOCTYPE svg PUBLIC "-//W3C//DTD SVG 1.1//EN" "http://www.w3.org/Graphics/SVG/1.1/DTD/svg11.dtd"><svg width="200px" height="200px" viewBox="0 0 1024 1024" version="1.1" xmlns="http://www.w3.org/2000/svg"><path d="M334.23481362 468.7425991h355.07283437V335.59043792q0-73.51197392-52.01252504-125.52449897T511.76941036 158.05341392t-125.52328534 52.01252503-52.01252503 125.52449897v133.15216118z m576.99350756 66.57608059v399.4576972q0 27.73993245-19.41807408 47.15800651t-47.15800651 19.41807407H178.89022102q-27.74114608 0-47.15922013-19.41807407t-19.41807408-47.15800651V535.31867969q0-27.73993245 19.41807408-47.15800651t47.15922013-19.41807408h22.19121779V335.59043792q0-127.60466015 91.54286933-219.14752948T511.76941036 24.90125274t219.14752949 91.5416557 91.5416557 219.14752948v133.15216118h22.1924314q27.73993245 0 47.15800652 19.41807408t19.41807408 47.15800651z" /></svg>