<?xml version="1.0" standalone="no"?><!DOCTYPE svg PUBLIC "-//W3C//DTD SVG 1.1//EN" "http://www.w3.org/Graphics/SVG/1.1/DTD/svg11.dtd"><svg width="200px" height="200px" viewBox="0 0 1024 1024" version="1.1" xmlns="http://www.w3.org/2000/svg"><path d="M95.701 292.437L490.24 55.893a42.667 42.667 0 0 1 43.904 0L928.299 292.48a21.333 21.333 0 0 1 10.368 18.304v542.55A42.667 42.667 0 0 1 896 896H128a42.667 42.667 0 0 1-42.667-42.667V310.741a21.333 21.333 0 0 1 10.368-18.304z m687.062 59.307l-268.16 232.064-273.664-232.32-55.211 65.024 329.387 279.68L838.57 416.299l-55.808-64.555z" /></svg>