<?xml version="1.0" standalone="no"?><!DOCTYPE svg PUBLIC "-//W3C//DTD SVG 1.1//EN" "http://www.w3.org/Graphics/SVG/1.1/DTD/svg11.dtd"><svg width="200px" height="200px" viewBox="0 0 1024 1024" version="1.1" xmlns="http://www.w3.org/2000/svg"><path d="M222.023 719.126a604.256 604.256 0 0 1-5.247-89.547V281.123c0-41.356 1.312-72.977 5.247-113.643-23.681 2.762-33.554 3.452-67.04 3.452h-60.55c-30.861 0-45.36-0.69-65.727-4.142v87.476c24.303-2.762 43.427-4.142 67.73-4.142h31.552v379.455c0 35.832-1.312 62.69-5.247 89.547h99.282z m273.407-4.073c34.383 0 55.786 1.38 80.986 4.073v-89.133c-17.675 3.383-44.463 5.385-78.224 5.385H348.094c8.01-25.614 14.499-39.147 30.517-60.757 13.394-18.227 40.182-46.603 63.795-67.523 69.732-60.067 75.048-65.52 90.1-83.058 26.235-31.068 37.973-63.518 37.973-108.05 0.069-92.517-57.789-149.2-151.686-149.2-53.576 0-95.968 20.92-122.757 60.066-19.815 29.067-29.48 56.753-36.937 108.051l76.637 11.461c3.728-31.069 7.525-45.913 16.57-62.138 13.463-26.236 37.006-39.768 68.144-39.768 45.568 0 73.944 28.307 73.944 74.22 0 34.521-14.982 56.753-64.278 99.283-53.646 45.222-69.732 60.757-88.512 81.746a345.072 345.072 0 0 0-73.391 132.284c-6.974 24.303-10.771 47.984-13.947 86.44 18.71-2.692 27.34-3.382 69.111-3.382H495.5z m113.229-133.32c11.323 38.456 19.47 55.716 35.211 74.358 35.695 43.151 85.958 63.035 159.35 63.035 67.177 0 119.925-18.641 154.446-53.784 23.199-24.579 37.628-61.033 37.628-96.935 0-39.146-9.39-66.97-30.102-91.618-22.024-25.891-45.223-37.145-89.755-44.464 33.21-9.251 47.018-14.567 60.826-25.89 26.996-21.265 43.359-57.72 43.359-97.557 0-86.302-67.8-142.088-172.605-142.088-50.263 0-90.998 11.944-123.033 36.523-29.481 22.577-43.911 45.775-59.653 94.933l89.755 15.88c7.595-27.203 13.808-38.457 26.374-51.092 15.051-13.256 37.697-20.574 68.42-20.574 53.37 0 82.851 25.89 82.851 71.735 0 51.09-37.006 81.607-99.766 81.607-26.995 0-40.803-0.69-60.895-3.314v82.367c21.334-2.692 39.492-3.383 67.11-3.383s57.166 6.697 72.217 15.949c22.577 13.947 35.143 39.216 35.143 69.732 0 52.472-39.561 86.303-101.7 86.303-30.102 0-55.233-8.63-75.946-25.89-15.672-13.257-21.334-23.89-29.48-54.475l-89.755 18.641zM28.706 788.167h966.588v69.042H28.706v-69.042z" /></svg>