<?xml version="1.0" standalone="no"?><!DOCTYPE svg PUBLIC "-//W3C//DTD SVG 1.1//EN" "http://www.w3.org/Graphics/SVG/1.1/DTD/svg11.dtd"><svg width="200px" height="200px" viewBox="0 0 1024 1024" version="1.1" xmlns="http://www.w3.org/2000/svg"><path d="M705.368 70.13A52.288 52.288 0 0 1 747.124 90.9l237.652 237.725a50.668 50.668 0 0 1 0 73.35 53.245 53.245 0 0 1-36.38 15.76 50.226 50.226 0 0 1-36.896-15.76L757.73 248.279v668.99a53.76 53.76 0 0 1-52.362 52.361 51.551 51.551 0 0 1-52.435-52.361V122.566c0-28.942 23.492-52.435 52.435-52.435z m-392.97 0c28.943 0 52.436 23.494 52.436 52.362V917.12a53.76 53.76 0 0 1-52.435 52.435 51.551 51.551 0 0 1-43.377-22.314L33.285 711.283a51.92 51.92 0 0 1 73.056-73.792l153.696 153.697V122.492c0-28.795 23.567-52.361 52.362-52.361z" /></svg>