<?xml version="1.0" standalone="no"?><!DOCTYPE svg PUBLIC "-//W3C//DTD SVG 1.1//EN" "http://www.w3.org/Graphics/SVG/1.1/DTD/svg11.dtd"><svg width="200px" height="200px" viewBox="0 0 1024 1024" version="1.1" xmlns="http://www.w3.org/2000/svg"><path d="M992 700.5715625V872q0 21.4284375-15 36.4284375t-36.4284375 15H769.143125q-21.4284375 0-36.4284375-15t-15-36.4284375V700.5715625q0-21.4284375 15-36.4284375t36.4284375-15h51.4284375V546.284375H546.284375v102.8578125h51.429375q21.4284375 0 36.4284375 15t15 36.4284375V872q0 21.4284375-15 36.4284375t-36.4284375 15H426.284375q-21.4284375 0-36.4284375-15t-15-36.4284375V700.5715625q0-21.4284375 15-36.4284375t36.4284375-15h51.429375V546.284375H203.4284375v102.8578125h51.4284375q21.4284375 0 36.4284375 15t15 36.4284375V872q0 21.4284375-15 36.4284375t-36.4284375 15H83.4284375q-21.4284375 0-36.4284375-15T32 872V700.5715625q0-21.4284375 15-36.4284375t36.4284375-15h51.4284375V546.284375q0-27.856875 20.3578125-48.21375t48.21375-20.356875H477.715625V374.856875H426.284375q-21.4284375 0-36.4284375-15t-15-36.4284375V152q0-21.4284375 15-36.4284375t36.4284375-15H597.715625q21.4284375 0 36.4284375 15t15 36.4284375v171.4284375q0 21.4284375-15 36.4284375t-36.4284375 15H546.284375V477.715625h274.28625q27.856875 0 48.21375 20.356875t20.3578125 48.21375v102.8578125h51.4284375q21.4284375 0 36.4284375 15t15 36.4284375z" /></svg>