<?xml version="1.0" standalone="no"?><!DOCTYPE svg PUBLIC "-//W3C//DTD SVG 1.1//EN" "http://www.w3.org/Graphics/SVG/1.1/DTD/svg11.dtd"><svg width="200px" height="200px" viewBox="0 0 1024 1024" version="1.1" xmlns="http://www.w3.org/2000/svg"><path d="M992 560c0 122.71875-46.875 245.53125-140.625 339.1875-18.75 18.75-49.125 18.75-67.875 0-18.75-18.75-18.75-49.125 0-67.875 62.71875-62.625 97.59375-141.75 107.90625-223.40625h-43.40625c-26.53125 0-48-21.46875-48-48s21.46875-48 48-48h43.40625c-10.21875-81.65625-45.1875-160.6875-107.90625-223.40625-62.71875-62.71875-141.84375-97.59375-223.5-107.8125V224.1875c0 26.53125-21.46875 48-48 48-26.53125 0-48-21.46875-48-48v-43.40625c-81.65625 10.21875-160.78125 45.09375-223.5 107.8125S142.90625 430.34375 132.59375 512h43.40625c26.53125 0 48 21.46875 48 48s-21.46875 48-48 48h-43.40625c10.21875 81.65625 45.1875 160.6875 107.90625 223.40625 18.75 18.75 18.75 49.125 0 67.875-18.75 18.75-49.125 18.75-67.875 0C78.875 805.53125 32 682.71875 32 560c0-122.71875 46.875-245.53125 140.625-339.1875C266.375 127.15625 389.1875 80.28125 512 80.28125s245.71875 46.875 339.375 140.53125c93.75 93.65625 140.625 216.375 140.625 339.1875zM464 464c0-26.53125 21.46875-48 48-48 26.53125 0 48 21.46875 48 48l45.28125 361.875c1.6875 7.03125 2.71875 14.34375 2.71875 21.84375 0 52.96875-42.9375 95.90625-96 95.90625-53.0625 0-96-42.9375-96-95.90625 0-7.59375 1.125-14.8125 2.71875-21.84375l45.28125-361.875z" /></svg>