<?xml version="1.0" standalone="no"?><!DOCTYPE svg PUBLIC "-//W3C//DTD SVG 1.1//EN" "http://www.w3.org/Graphics/SVG/1.1/DTD/svg11.dtd"><svg width="200px" height="200px" viewBox="0 0 1024 1024" version="1.1" xmlns="http://www.w3.org/2000/svg"><path d="M825.58 239.414V102.287h89.626a38.074 38.074 0 0 0 38.516-37.411 38.074 38.074 0 0 0-38.516-37.412H108.647a38.074 38.074 0 0 0-38.516 37.412c0 20.62 17.306 37.411 38.516 37.411h95.518v140.22c0 103.84 67.68 184.407 215.263 245.753-153.18 61.494-216.515 141.914-216.515 258.714V909.95h-95.37a37.117 37.117 0 0 0-37.486 36.381v2.136c0 19.884 16.791 36.38 37.56 36.38h808.62c20.62 0 37.558-16.349 37.558-36.38v-2.21a37.117 37.117 0 0 0-37.558-36.307h-89.479V743.881c0-116.727-63.335-194.79-217.694-258.714C756.5 423.821 825.506 344.505 825.506 239.414zM749.726 745.06v164.89h-110.91V800.956a34.981 34.981 0 0 0-35.423-34.392 34.981 34.981 0 0 0-35.497 34.392V909.95h-88.594V692.256a34.981 34.981 0 0 0-35.423-34.466 34.981 34.981 0 0 0-35.424 34.466V909.95H280.02V745.06c0-89.11 39.252-157.306 234.19-223.66 194.865 65.839 235.443 135.286 235.443 223.66zM515.314 452.616c-208.783-70.11-233.601-148.763-233.601-210.182l1.252 1.252V102.287H749.43v140.22c0.147 61.494-25.776 140-234.117 210.109z" /></svg>