<?xml version="1.0" standalone="no"?><!DOCTYPE svg PUBLIC "-//W3C//DTD SVG 1.1//EN" "http://www.w3.org/Graphics/SVG/1.1/DTD/svg11.dtd"><svg width="200px" height="200px" viewBox="0 0 1024 1024" version="1.1" xmlns="http://www.w3.org/2000/svg"><path d="M844.3 711.117V661.2c0-55.165-28.1-83.196-83.265-83.196s-83.196 28.031-83.196 83.196v49.917H844.23zM611.212 894.08c0 9.251 7.388 16.708 16.57 16.777h266.503a16.777 16.777 0 0 0 16.57-16.708V761.173l-299.643-0.07v133.045z m-49.917 33.554V727.825c0-9.251 7.457-16.708 16.64-16.708h49.986V661.2a133.182 133.182 0 0 1 266.295 0v49.917h49.917a16.57 16.57 0 0 1 16.64 16.708v199.808a33.278 33.278 0 0 1-33.348 33.14H594.643a33.278 33.278 0 0 1-33.347-33.14z m216.378-63.173a16.64 16.64 0 0 1-33.278 0v-36.8h-16.778a16.64 16.64 0 1 1 0-33.278h66.902a16.64 16.64 0 1 1 0 33.278h-16.846v36.8zM348.923 518.007A266.295 266.295 0 1 1 494.6 561.365a399.408 399.408 0 0 0-399.27 399.408H28.706a466.172 466.172 0 0 1 320.286-442.835zM494.6 494.809a199.739 199.739 0 1 0 0-399.478 199.739 199.739 0 0 0 0 399.478z" /></svg>