<?xml version="1.0" standalone="no"?><!DOCTYPE svg PUBLIC "-//W3C//DTD SVG 1.1//EN" "http://www.w3.org/Graphics/SVG/1.1/DTD/svg11.dtd"><svg width="200px" height="200px" viewBox="0 0 1024 1024" version="1.1" xmlns="http://www.w3.org/2000/svg"><path d="M850.2272 437.0432H352.08533334v-135.168c0-93.32053333 77.6192-169.43786667 172.71466666-169.43786667 95.09546667 0 172.71466667 76.11733333 172.71466667 169.50613334 0 27.0336 22.528 49.152 50.03946667 49.152a49.7664 49.7664 0 0 0 50.10773333-49.152C797.66186667 154.48746667 674.98666667 34.13333333 524.8 34.13333333S251.93813334 154.48746667 251.93813334 301.94346667v135.168h-52.56533334a49.7664 49.7664 0 0 0-50.03946666 49.152v454.4512c0 27.0336 22.528 49.152 50.03946666 49.152h650.8544a49.7664 49.7664 0 0 0 50.03946667-49.152V486.1952c0-27.0336-22.528-49.152-50.03946667-49.152z m-285.35466666 314.50453333c-2.52586667 0-5.05173333 2.4576-5.05173334 4.9152v46.6944c0 46.6944-15.01866667 54.0672-35.0208 54.0672-20.00213333 0-35.0208-4.9152-35.0208-54.0672v-49.152c0-2.4576-2.52586667-4.9152-5.05173333-4.9152a56.86613333 56.86613333 0 0 1-24.9856-49.152c0-34.4064 30.03733333-63.8976 65.05813333-63.8976 35.0208 0 65.05813333 27.0336 65.05813334 63.8976 2.52586667 22.1184-9.96693333 39.3216-24.9856 51.6096z" /></svg>