<?xml version="1.0" standalone="no"?><!DOCTYPE svg PUBLIC "-//W3C//DTD SVG 1.1//EN" "http://www.w3.org/Graphics/SVG/1.1/DTD/svg11.dtd"><svg width="200px" height="200px" viewBox="0 0 1024 1024" version="1.1" xmlns="http://www.w3.org/2000/svg"><path d="M576.623 97.748H447.791a96.59 96.59 0 0 0-94.795 98.385c0.967 51.988 42.806 94.794 94.795 94.794h128.901c53.439 0 95.969-45.084 94.864-98.385a96.659 96.659 0 0 0-94.933-94.794z m0 322.771H447.791a96.59 96.59 0 0 0-94.795 98.523c0.967 51.989 42.806 92.862 94.795 94.795h128.901c53.439-1.933 95.969-45.084 94.864-98.385a96.659 96.659 0 0 0-94.933-94.933z m0 321.736H447.791c-53.37 2.071-95.9 45.154-94.795 98.454a96.659 96.659 0 0 0 94.795 94.795h128.901a96.659 96.659 0 0 0 94.864-98.454 96.383 96.383 0 0 0-94.933-94.588v-0.138z m-354.738 64.347A128.418 128.418 0 0 1 93.191 677.77a127.728 127.728 0 0 1 37.766-90.997 128.418 128.418 0 0 1 91.274-37.697h64.278v-64.693h-64.21A193.525 193.525 0 0 0 28.707 677.701c0 106.67 86.717 193.318 193.11 193.318v64.416l96.66-96.659-96.798-96.659v64.416h0.207v0.07zM802.322 162.44h-64.347v64.762h64.347A128.625 128.625 0 0 1 931.223 355.62c0 34.52-13.74 66.763-37.973 91.135-24.165 24.165-57.65 37.766-91.48 37.628v-64.416l-96.66 96.659 96.66 96.659v-64.417a193.732 193.732 0 0 0 193.524-193.18A192.903 192.903 0 0 0 802.322 162.51z" /></svg>