<?xml version="1.0" standalone="no"?><!DOCTYPE svg PUBLIC "-//W3C//DTD SVG 1.1//EN" "http://www.w3.org/Graphics/SVG/1.1/DTD/svg11.dtd"><svg width="200px" height="200px" viewBox="0 0 1024 1024" version="1.1" xmlns="http://www.w3.org/2000/svg"><path d="M360.86 499.52A45 45 0 0 1 410 512.9c8.22 9.54 12.42 22.14 11.7 35.04l-0.78 6.48-24.66 115.08c-4.08 22.02-20.52 37.5-41.58 37.5a44.34 44.34 0 0 1-23.52-6.96l-5.22-3.72-95.64-75.78a48.36 48.36 0 0 1-17.7-45.9 42.96 42.96 0 0 1 22.56-30.48l6.24-2.7 119.46-42z m-0.42 60.78l-78.78 27.6 62.28 49.32 16.5-76.92zM92.6 512c0 232.2 202.2 420.9 434.22 420.9 232.08 0 406.44-188.76 406.44-420.9 0-232.02-174.36-420.9-406.44-420.9S92.6 279.98 92.6 512zM512 992C247.34 992 32 776.66 32 512S262.16 32 526.82 32C791.6 32 992 247.34 992 512S791.54 992 526.82 992H512zM521.42 766.52a30.3 30.3 0 0 1 5.4-60A194.7 194.7 0 0 0 721.4 512a194.7 194.7 0 0 0-194.46-194.46A194.76 194.76 0 0 0 332.36 512a30.3 30.3 0 0 1-60.54 0 255.3 255.3 0 0 1 255-255 255.3 255.3 0 0 1 255.06 255 255.36 255.36 0 0 1-242.64 254.7l-12.3 0.3-5.46-0.48z m5.4-479.52c-120 0-218.4 94.56-224.64 213.06l-0.36 11.94h0.54a224.76 224.76 0 0 1 224.52-224.46A224.7 224.7 0 0 1 751.28 512a224.76 224.76 0 0 1-212.52 224.16l-12.06 0.42v0.36l12.06-0.24a225.36 225.36 0 0 0 212.76-212.76l0.3-11.94a225.3 225.3 0 0 0-225-225z" /></svg>