<?xml version="1.0" standalone="no"?><!DOCTYPE svg PUBLIC "-//W3C//DTD SVG 1.1//EN" "http://www.w3.org/Graphics/SVG/1.1/DTD/svg11.dtd"><svg width="200px" height="200px" viewBox="0 0 1024 1024" version="1.1" xmlns="http://www.w3.org/2000/svg"><path d="M245.358 133.897a41.15 41.15 0 0 1 39.56 72.15 390.226 390.226 0 1 0 607.985 323.738A390.088 390.088 0 0 0 702.21 194.378a41.08 41.08 0 0 1-12.98-7.456l-4.004-2.14 0.69-1.036a41.15 41.15 0 0 1 44.325-66.764l0.69-1.105a472.455 472.455 0 0 1-228.184 886.293A472.455 472.455 0 0 1 245.22 133.483l0.138 0.414z m256.56 442.077a41.218 41.218 0 0 1-41.218-41.218V92.679a41.218 41.218 0 1 1 82.436 0v442.077c0 22.714-18.503 41.218-41.218 41.218z" /></svg>