<?xml version="1.0" standalone="no"?><!DOCTYPE svg PUBLIC "-//W3C//DTD SVG 1.1//EN" "http://www.w3.org/Graphics/SVG/1.1/DTD/svg11.dtd"><svg width="200px" height="200px" viewBox="0 0 1024 1024" version="1.1" xmlns="http://www.w3.org/2000/svg"><path d="M846.53700693 126.57777814a130.22245973 130.22245973 0 0 1 129.5549632 120.57410346l0.3640896 9.28426667v500.92562987a130.22245973 130.22245973 0 0 1-120.63478613 129.4942816l-9.22358507 0.36408853H156.4065184a130.22245973 130.22245973 0 0 1-129.4942816-120.57410347L26.54814827 757.36177814V256.43614827a130.22245973 130.22245973 0 0 1 120.57410346-129.4942816L156.4065184 126.57777814h690.13048853z m74.2134528 261.53718506H82.19306667v369.24681494a74.45617813 74.45617813 0 0 0 66.62826666 73.7886816l7.58518507 0.42477013h690.13048853a74.45617813 74.45617813 0 0 0 73.8493632-66.62826667l0.3640896-7.58518506V388.1149632z m-76.03389653 304.31762987a27.8528 27.8528 0 0 1 0 55.6449184h-83.4977184a27.8528 27.8528 0 0 1 0-55.6449184h83.4977184z m-580.72177813-235.62619307c46.23928853 0 78.27911147 14.26014827 94.60242986 42.6590816l3.76225174 7.46382187a19.8428448 19.8428448 0 0 1-11.16539307 27.7921184l-9.22358507 3.7015712a18.93262187 18.93262187 0 0 1-20.38897706-7.58518613l-1.8811264-3.51952534a49.75881493 49.75881493 0 0 0-53.8244736-31.55437013c-35.19525973 0-53.8244736 11.16539307-55.6449184 35.25594027-3.70157013 18.56853333 16.68740693 29.7339264 59.34648853 37.07638506 72.39300693 13.0465184 107.58826667 42.7197632 105.76782187 85.3788448-3.70157013 48.24177813-37.13706667 74.21345173-103.88669654 76.03389654-55.40219307 3.4588448-91.44699307-15.65582187-108.0130368-54.4312896l-3.3374816-8.61677014a18.81125973 18.81125973 0 0 1 12.98583787-24.15122986l7.46382187-1.82044374c9.7090368-2.42725973 19.6001184 3.2768 22.20942186 12.9858368 9.28426667 27.7921184 33.37481493 40.7779552 68.6914368 38.95751147 38.95751147 0 59.34648853-12.9858368 59.3464896-38.95751147 3.70157013-20.38897813-20.38897813-33.37481493-66.74962986-44.540208-70.5118816-12.9858368-102.06625173-38.95751147-100.24580694-77.91502186 3.76225173-46.36065173 35.25594027-72.3323264 100.18512534-74.21345174z m185.56397013 3.70157014c10.25517013 0 18.56853333 8.3133632 18.56853333 18.56853333v191.08598507c0 10.25517013 8.2526816 18.56853333 18.50785174 18.56853333h96.48355626c8.79881493 0 16.1412736 6.06814827 18.0830816 14.26014827l0.48545174 4.24770346a18.56853333 18.56853333 0 0 1-18.56853334 18.56853334H442.09493333a18.56853333 18.56853333 0 0 1-18.50785173-18.50785174V479.07650347c0-10.25517013 8.3133632-18.56853333 18.50785173-18.56853333h7.46382187z m395.157808 84.04385173a27.8528 27.8528 0 0 1 0 55.6449184h-83.4977184a27.8528 27.8528 0 0 1 0-55.6449184h83.4977184z m1.82044373-362.26844373H156.4065184a74.45617813 74.45617813 0 0 0-73.7886816 66.56758506l-0.42477013 7.58518507v76.03389653h838.55739306V256.43614827a74.45617813 74.45617813 0 0 0-74.2134528-74.21345173z" /></svg>