<?xml version="1.0" standalone="no"?><!DOCTYPE svg PUBLIC "-//W3C//DTD SVG 1.1//EN" "http://www.w3.org/Graphics/SVG/1.1/DTD/svg11.dtd"><svg width="200px" height="200px" viewBox="0 0 1024 1024" version="1.1" xmlns="http://www.w3.org/2000/svg"><path d="M685.55093333 915.33653333a46.16853333 46.16853333 0 0 1-46.976-46.976V155.888a46.976 46.976 0 0 1 93.952 0v712.47253333a48.1568 48.1568 0 0 1-46.976 46.976z"  /><path d="M903.4688 420.53333333a45.0496 45.0496 0 0 1-33.12-14.16746666l-217.48266667-217.48266667a46.47893333 46.47893333 0 0 1 65.74186667-65.74186667l217.48266667 217.48266667a45.42293333 45.42293333 0 0 1 0 65.74186667 47.72266667 47.72266667 0 0 1-32.62186667 14.16746666z m-570.24 494.8032a46.16853333 46.16853333 0 0 1-46.976-46.976V155.888a46.976 46.976 0 1 1 93.952 0v712.47253333a48.1568 48.1568 0 0 1-46.976 46.976z"  /><path d="M333.22986667 915.33653333a45.0496 45.0496 0 0 1-32.87146667-14.1056l-217.48266667-217.48266666a46.47893333 46.47893333 0 1 1 65.55626667-66.11413334l217.48266667 217.48266667a46.976 46.976 0 0 1-32.87146667 79.84746667z"  /></svg>