<?xml version="1.0" standalone="no"?><!DOCTYPE svg PUBLIC "-//W3C//DTD SVG 1.1//EN" "http://www.w3.org/Graphics/SVG/1.1/DTD/svg11.dtd"><svg width="200px" height="200px" viewBox="0 0 1024 1024" version="1.1" xmlns="http://www.w3.org/2000/svg"><path d="M775.451 32c20.278 0 37.795 7.14 50.814 20.577 24.417 25.197 23.577 83.99 23.397 91.249v760.945c0 27.896-3.96 47.574-14.218 62.152-8.1 11.399-22.858 24.957-51.594 24.957-18.958 0-41.035-5.7-68.391-14.278l-4.98-2.04C581.915 906.391 371.462 764.988 338.526 752.33h-58.013c-83.09 0-149.801-58.853-149.801-133.963V425.79c0-80.15 72.29-153.101 149.8-153.101h56.634c34.076-16.018 243.81-150.461 373.573-222.452l1.32-0.66C736.156 37.759 756.913 32 775.451 32z m14.278 199.055s14.099-149.861-59.692-118.485c-73.791 31.436-332.959 204.994-364.155 219.033H313.93c-90.709 0-123.225 63.952-123.225 133.963v110.566c0 65.692 29.816 117.165 123.285 117.165h53.213c30.176 11.159 344.837 230.971 362.235 230.971 55.253 21.898 59.872-39.895 60.232-69.11zM370.682 271.97h59.992v479.94h-59.992z" /></svg>