<?xml version="1.0" standalone="no"?><!DOCTYPE svg PUBLIC "-//W3C//DTD SVG 1.1//EN" "http://www.w3.org/Graphics/SVG/1.1/DTD/svg11.dtd"><svg width="200px" height="200px" viewBox="0 0 1024 1024" version="1.1" xmlns="http://www.w3.org/2000/svg"><path d="M512 803.362c4.506 0 8.875 1.092 12.97 3.413l198.315 110.388c11.879 6.622 27.307 5.734 38.434-2.117a34.884 34.884 0 0 0 14.336-34.133L737.28 641.98a28.945 28.945 0 0 1 7.646-24.713L911.633 445.1a34.816 34.816 0 0 0 8.124-35.362 35.499 35.499 0 0 0-28.467-23.894l-227.328-34.952a27.443 27.443 0 0 1-20.685-15.702L544.358 122.88a35.84 35.84 0 0 0-64.853 0l-98.918 212.31a27.443 27.443 0 0 1-20.617 15.7l-227.396 35.021a35.977 35.977 0 0 0-28.467 23.894 34.816 34.816 0 0 0 8.123 35.225l166.64 172.237c6.28 6.417 9.147 15.702 7.713 24.713l-38.638 238.797a34.884 34.884 0 0 0 14.336 34.201 36.66 36.66 0 0 0 38.502 2.048L498.96 806.64a26.692 26.692 0 0 1 12.97-3.413z m235.383 186.505a91.871 91.871 0 0 1-44.646-11.606L512 872.585 321.331 978.398a93.525 93.525 0 0 1-98.099-5.461 95.232 95.232 0 0 1-38.502-92.57l37.41-229.922L60.894 484.557a94.413 94.413 0 0 1-21.845-96.12 93.116 93.116 0 0 1 74.274-63.01l219.272-33.587 95.232-203.776A93.525 93.525 0 0 1 512 34.134c35.84 0 68.881 21.162 84.173 53.93l95.232 203.708 219.272 33.587c34.543 5.256 63.01 29.355 74.274 62.942a94.55 94.55 0 0 1-21.845 96.256L801.86 650.377l37.41 229.99a95.232 95.232 0 0 1-38.434 92.433c-15.838 11.196-34.338 17.067-53.453 17.067z" /></svg>