<?xml version="1.0" standalone="no"?><!DOCTYPE svg PUBLIC "-//W3C//DTD SVG 1.1//EN" "http://www.w3.org/Graphics/SVG/1.1/DTD/svg11.dtd"><svg width="200px" height="200px" viewBox="0 0 1024 1024" version="1.1" xmlns="http://www.w3.org/2000/svg"><path d="M627.78026667 112.64c110.86506667 11.12746667 199.81653333 77.824 218.79466666 192.23893333h-64.17066666l103.56053333 154.07786667 103.6288-154.07786667h-71.4752C899.14026667 150.80106667 782.47253333 50.65386667 635.0848 36.38613333c-20.41173333-1.6384-39.3216 15.83786667-39.3216 38.0928 1.36533333 19.11466667 14.47253333 36.52266667 32.01706667 38.16106667z m-160.42666667-77.89226667H107.1104c-20.41173333 0-36.4544 17.47626667-36.4544 39.7312v343.17653334c0 22.25493333 16.04266667 39.7312 36.4544 39.7312h360.2432c20.41173333 0 36.4544-17.47626667 36.4544-39.7312V74.47893333c0-22.25493333-16.04266667-39.7312-36.4544-39.7312z m-35.0208 346.38506667H142.1312V111.0016h290.26986667v270.1312h-0.06826667zM397.312 908.62933333c-123.97226667-11.12746667-218.79466667-93.73013333-223.16373333-230.4h68.53973333l-103.49226667-154.07786666L35.6352 678.22933333h68.53973333c2.8672 176.40106667 126.83946667 290.74773333 285.9008 306.65386667 20.41173333 1.57013333 39.38986667-15.90613333 39.38986667-38.16106667a38.02453333 38.02453333 0 0 0-32.1536-38.0928z m522.24-344.81493333H559.24053333c-20.48 0-36.4544 17.54453333-36.4544 39.7312v344.81493333c0 22.18666667 15.9744 39.66293333 36.4544 39.66293334h360.2432c20.41173333 0 36.38613333-17.47626667 36.38613334-39.66293334V603.5456c0.06826667-22.18666667-17.408-39.7312-36.31786667-39.7312z m-35.08906667 346.38506667H594.26133333V641.6384h290.2016v268.56106667z" /></svg>