<?xml version="1.0" standalone="no"?><!DOCTYPE svg PUBLIC "-//W3C//DTD SVG 1.1//EN" "http://www.w3.org/Graphics/SVG/1.1/DTD/svg11.dtd"><svg width="200px" height="200px" viewBox="0 0 1024 1024" version="1.1" xmlns="http://www.w3.org/2000/svg"><path d="M512 962C263.47167969 962 62 760.52832031 62 512S263.47167969 62 512 62s450 201.47167969 450 450-201.47167969 450-450 450z m0-815.61445312C310.07832031 146.38554688 146.36445312 310.07832031 146.36445312 512c0 201.94277344 163.71386719 365.63554688 365.63554688 365.63554688S877.63554688 713.94277344 877.63554688 512c0-201.92167969-163.71386719-365.61445312-365.63554688-365.61445312z m182.80722656 407.80722656H512A42.21386719 42.21386719 0 0 1 469.80722656 512V258.88554688a42.19277344 42.19277344 0 1 1 84.38554688 0v210.92167968h140.61445312a42.19277344 42.19277344 0 1 1 0 84.38554688z" /></svg>