<?xml version="1.0" standalone="no"?><!DOCTYPE svg PUBLIC "-//W3C//DTD SVG 1.1//EN" "http://www.w3.org/Graphics/SVG/1.1/DTD/svg11.dtd"><svg width="200px" height="200px" viewBox="0 0 1024 1024" version="1.1" xmlns="http://www.w3.org/2000/svg"><path d="M512 962a450 450 0 1 1 450-450 450 450 0 0 1-450 450z m0-843.75a393.75 393.75 0 1 0 393.75 393.75A393.75 393.75 0 0 0 512 118.25z m210.9375 450H455.75V272.9375a14.0625 14.0625 0 0 1 14.0625-14.0625h28.125a14.0625 14.0625 0 0 1 14.0625 14.0625v239.0625h210.9375a14.0625 14.0625 0 0 1 14.0625 14.0625v28.125a14.0625 14.0625 0 0 1-14.0625 14.0625z" /></svg>