<?xml version="1.0" standalone="no"?><!DOCTYPE svg PUBLIC "-//W3C//DTD SVG 1.1//EN" "http://www.w3.org/Graphics/SVG/1.1/DTD/svg11.dtd"><svg width="200px" height="200px" viewBox="0 0 1024 1024" version="1.1" xmlns="http://www.w3.org/2000/svg"><path d="M519.282 986.86a483.753 483.753 0 0 1-343.275-142.178A483.753 483.753 0 0 1 33.769 501.407a483.753 483.753 0 0 1 142.177-343.275A483.753 483.753 0 0 1 519.282 15.955a483.753 483.753 0 0 1 343.275 142.177 483.753 483.753 0 0 1 142.177 343.275 483.753 483.753 0 0 1-142.177 343.275A483.753 483.753 0 0 1 519.282 986.86z m0-901.97a413.787 413.787 0 0 0-294.548 121.97 413.787 413.787 0 0 0-121.97 294.547c0 111.23 43.327 215.844 121.97 294.548a413.787 413.787 0 0 0 294.487 121.97 413.787 413.787 0 0 0 294.548-121.97 413.787 413.787 0 0 0 121.97-294.548 413.787 413.787 0 0 0-121.97-294.487A413.787 413.787 0 0 0 519.221 84.95z m189.083 417.428l-275.98 210.989v-423.8l275.98 212.81z" /></svg>