<?xml version="1.0" standalone="no"?><!DOCTYPE svg PUBLIC "-//W3C//DTD SVG 1.1//EN" "http://www.w3.org/Graphics/SVG/1.1/DTD/svg11.dtd"><svg width="200px" height="200px" viewBox="0 0 1024 1024" version="1.1" xmlns="http://www.w3.org/2000/svg"><path d="M308.01 424.172c21.402 0 38.87 17.33 38.87 38.802v275.478h310.689V462.974c0-21.403 17.33-38.87 38.802-38.87h68.144l-262.36-289.08-262.221 289.08h68.144z m-38.872 73.323H152.664a38.87 38.87 0 0 1-28.86-64.83L473.297 44.303a38.87 38.87 0 0 1 57.788 0l349.49 388.362a38.87 38.87 0 0 1-28.859 64.83H735.172v233.017c0 42.875-34.728 77.672-77.603 77.672h-310.69a77.672 77.672 0 0 1-77.672-77.672V497.495zM94.462 885.857h815.525c10.701 0 19.4 8.699 19.4 19.4v38.871a19.4 19.4 0 0 1-19.4 19.4H94.324a19.4 19.4 0 0 1-19.332-19.4v-38.87c0-10.702 8.7-19.401 19.401-19.401z" /></svg>