<?xml version="1.0" standalone="no"?><!DOCTYPE svg PUBLIC "-//W3C//DTD SVG 1.1//EN" "http://www.w3.org/Graphics/SVG/1.1/DTD/svg11.dtd"><svg width="200px" height="200px" viewBox="0 0 1024 1024" version="1.1" xmlns="http://www.w3.org/2000/svg"><path d="M988.59721008 817.09677985h-335.54432c-13.04894578 0-23.61237808-10.5634323-23.61237808-23.61237807 0-13.04894578 10.5634323-23.61237808 23.61237808-23.61237808h335.54432c13.04894578 0 23.61237808 10.5634323 23.61237807 23.61237808 0 13.04894578-10.5634323 23.61237808-23.61237807 23.61237807z"  /><path d="M820.82505008 984.86893985c-13.04894578 0-23.61237808-10.5634323-23.61237808-23.61237807v-335.54432c0-13.04894578 10.5634323-23.61237808 23.61237808-23.61237808s23.61237808 10.5634323 23.61237807 23.61237808v335.54432c0 13.04894578-10.5634323 23.61237808-23.61237807 23.61237807zM495.84416237 529.39859437c-136.70324148 0-247.92996978-111.2267283-247.92996978-247.92996978S359.14092089 33.53865482 495.84416237 33.53865482s247.92996978 111.2267283 247.92996978 247.92996977-111.2267283 247.92996978-247.92996978 247.92996978z m0-448.6351834c-110.60534992 0-200.70521363 90.0998637-200.70521362 200.70521362 0 110.60534992 90.0998637 200.70521363 200.70521362 200.70521363 110.60534992 0 200.70521363-90.0998637 200.70521363-200.70521363 0-110.60534992-90.0998637-200.70521363-200.70521363-200.70521362z"  /><path d="M38.50968178 976.16964267c-13.04894578 0-23.61237808-10.5634323-23.61237808-23.61237808 0-256.00788859 208.16175408-464.79102103 464.79102105-464.79102104 99.42053925 0 193.87005155 31.06891852 274.02786133 89.47848534 10.5634323 7.45654045 13.04894578 22.36962133 4.97102695 32.93305363a23.11527538 23.11527538 0 0 1-32.93305362 4.97102696c-72.07989097-52.81716148-157.2087277-80.15780978-246.06583466-80.15780978-229.90999703 0-416.94488652 187.03488948-416.94488653 416.94488652-0.62137837 13.67032415-11.18481067 24.23375645-24.23375644 24.23375645z"  /></svg>