<?xml version="1.0" standalone="no"?><!DOCTYPE svg PUBLIC "-//W3C//DTD SVG 1.1//EN" "http://www.w3.org/Graphics/SVG/1.1/DTD/svg11.dtd"><svg width="200px" height="200px" viewBox="0 0 1024 1024" version="1.1" xmlns="http://www.w3.org/2000/svg"><path d="M512 32C248 32 32 248 32 512s216 480 480 480 480-216 480-480S776 32 512 32z m0 822.856875c-37.7146875 0-68.5715625-30.856875-68.5715625-68.5715625S474.2853125 717.715625 512 717.715625s68.5715625 30.856875 68.5715625 68.570625-30.856875 68.5715625-68.5715625 68.5715625zM580.5715625 512c0 37.7146875-30.856875 68.5715625-68.5715625 68.5715625S443.4284375 549.7146875 443.4284375 512V237.7146875c0-37.7146875 30.856875-68.5715625 68.5715625-68.5715625s68.5715625 30.856875 68.5715625 68.5715625V512z" /></svg>