<?xml version="1.0" standalone="no"?><!DOCTYPE svg PUBLIC "-//W3C//DTD SVG 1.1//EN" "http://www.w3.org/Graphics/SVG/1.1/DTD/svg11.dtd"><svg t="1657186091179" class="icon" viewBox="0 0 1024 1024" version="1.1" xmlns="http://www.w3.org/2000/svg" p-id="3674" xmlns:xlink="http://www.w3.org/1999/xlink" width="200" height="200"><path d="M863.08586667 570.51413333v292.57173334q0 15.84746667-11.5808 27.42826666t-27.42933334 11.5808H590.0192V668.0384H433.9808v234.05653333H199.92533333q-15.84853333 0-27.42933333-11.5808t-11.5808-27.42826666V570.51413333q0-0.60906667 0.30506667-1.82826666t0.30506666-1.82826667L512 277.94133333 862.47573333 566.85866667q0.61013333 1.21813333 0.61013334 3.65653333zM999.008 528.45866667l-37.78986667 45.104q-4.8768 5.48586667-12.8 6.70506666h-1.82826666q-7.92426667 0-12.8-4.26666666L512 224.30506667 90.20906667 576q-7.31413333 4.87573333-14.62826667 4.26666667-7.9232-1.2192-12.8-6.70506667L24.992 528.45866667q-4.8768-6.096-4.26666667-14.32426667t6.704-13.10506667L465.67573333 135.92533333Q485.1808 120.07466667 512 120.07466667t46.32426667 15.84853333L707.04746667 260.26666667V141.40906667q0-8.53333333 5.48586666-14.01813334t14.0192-5.48586666h117.02826667q8.53333333 0 14.0192 5.48586666t5.48586667 14.01813334v248.68586666l133.48586666 110.93333334Q1002.66666667 505.90506667 1003.27466667 514.13333333t-4.26666667 14.32426667z" p-id="3675"></path></svg>