<?xml version="1.0" standalone="no"?><!DOCTYPE svg PUBLIC "-//W3C//DTD SVG 1.1//EN" "http://www.w3.org/Graphics/SVG/1.1/DTD/svg11.dtd"><svg width="200px" height="200px" viewBox="0 0 1024 1024" version="1.1" xmlns="http://www.w3.org/2000/svg"><path d="M840.32 175.89333333C656.96-7.46666667 359.57333333-7.46666667 176.21333333 175.89333333s-183.36 480.74666667 0 664.21333334c183.36 183.36 480.74666667 183.36 664.21333334 0s183.36-480.85333333-0.10666667-664.21333334zM508.26666667 841.17333333c-35.84 0-65.17333333-29.33333333-65.17333334-65.17333333V573.12H240.32c-35.84 0-65.17333333-29.33333333-65.17333333-65.17333333s29.33333333-65.17333333 65.17333333-65.17333334h202.77333333V240c0-35.84 29.33333333-65.17333333 65.17333334-65.17333333s65.17333333 29.33333333 65.17333333 65.17333333v202.77333333h202.77333333c35.84 0 65.17333333 29.33333333 65.17333334 65.17333334s-29.33333333 65.17333333-65.17333334 65.17333333H573.44v202.77333333c0 35.94666667-29.33333333 65.28-65.17333333 65.28z" /></svg>