<?xml version="1.0" standalone="no"?><!DOCTYPE svg PUBLIC "-//W3C//DTD SVG 1.1//EN" "http://www.w3.org/Graphics/SVG/1.1/DTD/svg11.dtd"><svg width="200px" height="200px" viewBox="0 0 1024 1024" version="1.1" xmlns="http://www.w3.org/2000/svg"><path d="M609.659 341.285c3.582 5.94 10.37 9.144 17.345 8.296l29.976-3.677a17.816 17.816 0 0 0 14.706-23.377l-33.936-98.602a17.91 17.91 0 0 0-16.78-12.066H256.165a17.722 17.722 0 0 0-16.497 11.312l-38.177 98.79a17.816 17.816 0 0 0 14.8 24.038l34.312 3.487a17.722 17.722 0 0 0 17.156-8.672l1.886-3.394c24.037-40.722 37.234-50.903 41.76-53.448 4.618-2.64 19.795-8.578 61.555-8.578l9.897 0.094v315.695c-2.262 0.283-5.373 0.566-9.897 0.566h-39.875a17.816 17.816 0 0 0-17.816 17.816v25.923c0 9.803 8.013 17.816 17.816 17.816h207.101a17.816 17.816 0 0 0 17.817-17.816v-25.923a17.816 17.816 0 0 0-17.817-17.816h-39.874a39.591 39.591 0 0 1-9.898-0.943V275.959c5.185-0.094 11.972-0.282 21.21-0.282 43.268 0 54.014 7.07 55.05 7.918 4.054 2.922 16.026 14.234 41.006 54.58l1.98 3.205zM955.613 40.673H78.85a38.272 38.272 0 0 0-38.177 38.083v876.951c0 20.927 17.156 38.083 38.083 38.083h503a19.136 19.136 0 0 0 19.136-19.041V927.05a19.136 19.136 0 0 0-19.136-19.042H126.455V126.455h781.554v464.162c0 10.464 8.578 19.042 19.042 19.042h47.698a19.136 19.136 0 0 0 19.041-19.042V78.757a38.272 38.272 0 0 0-38.083-38.084z m18.665 704.634H857.765V628.795a19.136 19.136 0 0 0-19.041-19.136h-71.265a19.136 19.136 0 0 0-19.136 19.136v116.512H631.811a19.136 19.136 0 0 0-19.041 19.041v71.265c0 10.37 8.578 19.042 19.041 19.042h116.512v116.512c0 10.463 8.579 19.041 19.136 19.041h71.265a19.136 19.136 0 0 0 19.041-19.041V854.655h116.513a19.136 19.136 0 0 0 19.041-19.042v-71.265a19.136 19.136 0 0 0-19.041-19.041z" /></svg>