<?xml version="1.0" standalone="no"?><!DOCTYPE svg PUBLIC "-//W3C//DTD SVG 1.1//EN" "http://www.w3.org/Graphics/SVG/1.1/DTD/svg11.dtd"><svg width="200px" height="200px" viewBox="0 0 1024 1024" version="1.1" xmlns="http://www.w3.org/2000/svg"><path d="M884.05333333 38.5024c18.70506667-6.48533333 39.86773333-5.7344 58.02666667 2.11626667a77.96053333 77.96053333 0 0 1 45.39733333 91.3408l-152.7808 758.71573333c-2.52586667 11.33226667-4.02773333 22.9376-7.91893333 33.92853333a79.18933333 79.18933333 0 0 1-41.84746667 44.6464 81.23733333 81.23733333 0 0 1-60.89386666 2.18453334c-11.264-3.95946667-20.75306667-11.40053333-30.9248-17.408l-144.72533334-89.97546667-142.60906666 118.30613333a30.03733333 30.03733333 0 0 1-27.4432 6.3488 29.01333333 29.01333333 0 0 1-19.11466667-21.0944c-2.048-6.82666667-0.88746667-14.1312-1.16053333-21.16266666 0-82.60266667-0.2048-165.20533333-0.13653334-247.808l407.1424-421.00053334c7.5776-8.192 15.1552-16.52053333 21.36746667-25.8048 1.8432-3.00373333 3.95946667-6.144 4.3008-9.69386666-0.2048-2.73066667-3.6864-1.91146667-5.46133333-1.36533334-8.192 3.20853333-15.36 8.46506667-22.45973334 13.5168-12.97066667 9.76213333-25.66826667 20.00213333-38.57066666 29.9008L232.448 667.648l-157.01333333-97.55306667a79.872 79.872 0 0 1-34.2016-36.38613333 77.34613333 77.34613333 0 0 1-1.50186667-61.30346667 80.55466667 80.55466667 0 0 1 47.3088-44.91946666l779.74186667-381.26933334c5.66613333-2.73066667 11.264-5.80266667 17.27146666-7.71413333z" /></svg>