<?xml version="1.0" standalone="no"?><!DOCTYPE svg PUBLIC "-//W3C//DTD SVG 1.1//EN" "http://www.w3.org/Graphics/SVG/1.1/DTD/svg11.dtd"><svg width="200px" height="200px" viewBox="0 0 1024 1024" version="1.1" xmlns="http://www.w3.org/2000/svg"><path d="M955.677 49.268a42.812 42.812 0 0 1 21.367 37l-0.236 3.299L875.08 933.085a42.97 42.97 0 0 1-42.577 40.691 42.97 42.97 0 0 1-21.367-5.656L508.23 793.022a27.494 27.494 0 0 1 27.494-47.682l286.803 165.592 88.688-736.448-455.538 579.732a3.614 3.614 0 0 0-0.785 2.357v161.744a27.494 27.494 0 1 1-54.988 0.078V756.573c0-8.327 1.885-16.654 5.341-24.195L55.835 531.986a42.812 42.812 0 0 1-0.079-73.999l1.886-1.1L914.2 48.64a42.89 42.89 0 0 1 41.477 0.628z m-75.963 76.512L103.44 495.93l334.485 191.986 441.79-562.136z" /></svg>