<?xml version="1.0" standalone="no"?><!DOCTYPE svg PUBLIC "-//W3C//DTD SVG 1.1//EN" "http://www.w3.org/Graphics/SVG/1.1/DTD/svg11.dtd"><svg width="200px" height="200px" viewBox="0 0 1024 1024" version="1.1" xmlns="http://www.w3.org/2000/svg"><path d="M434.88 479.62h284.384v69.18H438.401l158.935 158.865 195.596-195.527-195.182-195.32L434.88 479.62zM994.604 512a482.535 482.535 0 1 1-965.139 0C29.396 245.498 245.43 29.396 512 29.396c266.502 0 482.604 216.102 482.604 482.604zM511.793 97.748a414.045 414.045 0 1 0 0 828.09 414.045 414.045 0 0 0 0.069-828.09zM793 512.138L548.592 756.547 304.183 512.138l244.41-244.547L793 512z" /></svg>