<?xml version="1.0" standalone="no"?><!DOCTYPE svg PUBLIC "-//W3C//DTD SVG 1.1//EN" "http://www.w3.org/Graphics/SVG/1.1/DTD/svg11.dtd"><svg   viewBox="0 0 1024 1024" version="1.1" xmlns="http://www.w3.org/2000/svg"  xmlns:xlink="http://www.w3.org/1999/xlink" width="200" height="200"><path d="M132.347037 1002.560804C59.261778 1002.560804 0 941.827081 0 866.949889V331.609965c0-74.877192 59.261778-135.610915 132.347037-135.610915h38.65455V270.108271h-38.65455c-33.278752 0-60.157744 27.518968-60.157744 61.565691v535.339925c0 34.046723 26.878992 61.629689 60.157744 61.629689h522.476407c33.278752 0 60.157744-27.518968 60.157744-61.629689l0.063998-23.679112H787.170481v23.679112c0 74.877192-59.19778 135.610915-132.347037 135.610915H132.347037z" ></path><path d="M289.205155 845.702686c-73.085259 0-132.347037-60.669725-132.347037-135.610914V174.751847c0-74.877192 59.261778-135.546917 132.347037-135.546917h158.522055a36.990613 36.990613 0 0 1 0 73.981226H289.269152c-33.278752 0-60.157744 27.518968-60.157744 61.565691v535.339925c0 34.046723 26.878992 61.693686 60.157744 61.693686h522.476408c33.278752 0 60.157744-27.646963 60.157744-61.693686V628.494831a36.094646 36.094646 0 0 1 72.189293 0v81.660938c0 74.877192-59.261778 135.674912-132.347037 135.674912H289.269152z" ></path><path d="M859.807757 78.435459L495.981401 442.197818l-18.175319 104.188093L581.738185 528.018599l363.826356-363.826356a19.071285 19.071285 0 0 0 0-26.94299m0 0l-58.813794-58.877792a19.071285 19.071285 0 0 0-26.94299 0M808.289689 26.917391a91.836556 91.836556 0 0 1 129.915128 0l58.813795 58.877792a91.836556 91.836556 0 0 1 0 129.915128L625.128558 587.536367a36.414634 36.414634 0 0 1-19.391273 10.111621l-166.39376 29.438896a36.414634 36.414634 0 0 1-42.238416-42.174418l29.182905-166.649751a36.414634 36.414634 0 0 1 10.111621-19.45527L808.289689 26.917391z" ></path></svg>