<?xml version="1.0" standalone="no"?><!DOCTYPE svg PUBLIC "-//W3C//DTD SVG 1.1//EN" "http://www.w3.org/Graphics/SVG/1.1/DTD/svg11.dtd"><svg width="200px" height="200px" viewBox="0 0 1024 1024" version="1.1" xmlns="http://www.w3.org/2000/svg"><path d="M816.40106667 81.06666667h-608.93866667C149.504 81.06666667 102.4 124.89386667 102.4 178.96106667v691.67786667C102.4 924.70613334 149.43573333 968.53333334 207.53066667 968.53333334h608.93866666c58.09493333 0 105.13066667-43.8272 105.13066667-97.8944V178.96106667C921.46346667 124.96213334 874.496 81.06666667 816.40106667 81.06666667zM279.89333333 567.808c-30.3104 0-54.8864-22.86933333-54.8864-51.13173333s24.576-51.13173333 54.8864-51.13173333h206.91626667c30.3104 0 54.8864 22.86933333 54.8864 51.13173333s-24.576 51.13173333-54.8864 51.13173333h-206.848z m531.11466667 124.24533334l-55.22773333 50.24426666 12.97066666 70.79253334c4.096 21.64053333-20.48 38.22933333-41.50613333 27.98933333l-68.26666667-33.45066667-68.4032 33.5872c-20.95786667 10.24-45.4656-6.3488-41.3696-28.0576l13.03893334-70.72426666-55.296-50.24426667c-16.93013333-15.36-7.50933333-42.25706667 15.83786666-45.39733333l76.3904-10.30826667 34.26986667-64.512c10.51306667-19.72906667 40.7552-19.72906667 51.26826667 0l34.13333333 64.512 76.45866667 10.24c23.21066667 3.20853333 32.63146667 30.03733333 15.70133333 45.32906667z m-38.7072-335.53066667H279.89333333c-30.3104 0-54.8864-22.86933333-54.8864-51.13173333 0-28.19413333 24.576-51.13173333 54.8864-51.13173334h492.40746667c30.3104 0 54.8864 22.9376 54.8864 51.2 0 28.19413333-24.576 51.06346667-54.8864 51.06346667z" /></svg>