<?xml version="1.0" standalone="no"?><!DOCTYPE svg PUBLIC "-//W3C//DTD SVG 1.1//EN" "http://www.w3.org/Graphics/SVG/1.1/DTD/svg11.dtd"><svg width="200px" height="200px" viewBox="0 0 1024 1024" version="1.1" xmlns="http://www.w3.org/2000/svg"><path d="M973.143 273.143q22.857 32.571 10.286 73.714L826.286 864.571Q815.429 901.143 782.57 926t-70 24.857H185.143q-44 0-84.857-30.571t-56.857-75.143q-13.715-38.286-1.143-72.572 0-2.285 1.714-15.428T46.286 736q0.571-4.571-1.715-12.286t-1.714-11.143q1.143-6.285 4.572-12t9.428-13.428 9.429-13.429Q79.429 652 92 621.43t17.143-52.286q1.714-5.714 0.286-17.143t-0.286-16q1.714-6.286 9.714-16t9.714-13.143q12-20.571 24-52.571t14.286-51.429q0.572-5.143-1.428-18.286t0.285-16q2.286-7.428 12.572-17.428t12.571-12.857q10.857-14.857 24.286-48.286t15.714-55.143q0.572-4.571-1.714-14.571T228 205.143q1.143-4.572 5.143-10.286t10.286-13.143 9.714-12q4.571-6.857 9.428-17.428t8.572-20 9.143-20.572 11.143-18.285T306.57 80t20.572-6.571 27.143 3.142l-0.572 1.715q21.715-5.143 29.143-5.143h434.857q42.286 0 65.143 32t10.286 74.286L736.57 697.143q-20.571 68-40.857 87.714t-73.428 19.714H125.714q-15.428 0-21.714 8.572-6.286 9.143-0.571 24.571 13.714 40 82.285 40h527.429q16.571 0 32-8.857t20-23.714l171.428-564q4-12.572 2.858-32.572 21.714 8.572 33.714 24.572z m-608 1.143q-2.286 7.428 1.143 12.857t11.428 5.428h347.429q7.428 0 14.571-5.428t9.429-12.857l12-36.572q2.286-7.428-1.143-12.857t-11.429-5.428H401.143q-7.429 0-14.572 5.428t-9.428 12.857zM317.714 420.57q-2.285 7.429 1.143 12.858t11.429 5.428h347.428q7.429 0 14.572-5.428t9.428-12.858l12-36.571q2.286-7.429-1.143-12.857t-11.428-5.429H353.714q-7.428 0-14.571 5.429T329.714 384z" /></svg>