<?xml version="1.0" standalone="no"?><!DOCTYPE svg PUBLIC "-//W3C//DTD SVG 1.1//EN" "http://www.w3.org/Graphics/SVG/1.1/DTD/svg11.dtd"><svg width="200px" height="200px" viewBox="0 0 1024 1024" version="1.1" xmlns="http://www.w3.org/2000/svg"><path d="M217.309 319.181h59.23v59.31a30.636 30.636 0 0 0 61.43 0v-59.31h59.15a30.636 30.636 0 0 0 0-61.35h-59.386v-59.31a30.636 30.636 0 0 0-61.351 0v59.31h-59.31a30.636 30.636 0 1 0 0.158 61.272zM836.318 43.612H208.275c-80.754 0-146.269 65.515-146.269 146.112v628.279c0 80.596 65.515 146.11 146.112 146.11h628.279c80.597 0 146.111-65.514 146.111-146.11v-628.28c0-80.675-65.514-146.19-146.111-146.19z m84.839 146.112v283.581H552.972v-368.42h283.425c46.74 0 84.838 38.099 84.838 84.839z m-712.96-84.682H491.62v368.263H123.279V189.724c0-46.74 38.099-84.84 84.839-84.84z m-84.84 713.04V534.577H491.7V902.84H208.118a84.839 84.839 0 0 1-84.84-84.838z m713.04 84.838H552.972V534.578h368.263v283.425a84.839 84.839 0 0 1-84.838 84.838zM656.035 304.335H847.08a30.636 30.636 0 0 0 0-61.43H656.114a30.636 30.636 0 0 0 0 61.351z m42.97 307.07a30.636 30.636 0 0 0-42.655-7.778 30.636 30.636 0 0 0-7.777 42.734l124.352 179.811a30.872 30.872 0 0 0 42.733 7.856 30.636 30.636 0 0 0 7.699-42.734l-124.352-179.89zM344.567 718.787l50.04-72.427a30.715 30.715 0 0 0-50.433-34.957l-36.92 53.417-36.921-53.417a30.636 30.636 0 0 0-42.734-7.777 30.636 30.636 0 0 0-7.777 42.734l50.118 72.427-50.118 72.427a30.715 30.715 0 1 0 50.51 34.8l36.921-53.417 36.921 53.417a30.872 30.872 0 0 0 42.734 7.856 30.636 30.636 0 0 0 7.698-42.656l-50.04-72.427z" /></svg>