<?xml version="1.0" standalone="no"?><!DOCTYPE svg PUBLIC "-//W3C//DTD SVG 1.1//EN" "http://www.w3.org/Graphics/SVG/1.1/DTD/svg11.dtd"><svg width="200px" height="200px" viewBox="0 0 1024 1024" version="1.1" xmlns="http://www.w3.org/2000/svg"><path d="M431.99753443 58.91160519h-319.75095296c-37.4121563 0-53.27025038 22.46023851-53.27024924 53.33497628-0.12945408 91.07076779 0.32363406 241.36666112 0.32363406 312.69571926 0 37.4121563 19.35334741 60.32548295 52.94661518 60.32548409 50.81062741 0.25890816 275.73665223 0.12945408 319.75095296 0 37.80051741-0.06472704 53.27025038-14.11046741 53.33497743-53.27025039v-319.75095296A52.36407296 52.36407296 0 0 0 431.99753443 58.91160519z m-54.37060664 222.66058297c-3.23634517 11.1977563-11.00357518 17.34681259-22.65441963 17.34681259H271.86315037c-27.63839261 0-55.34151111 0.12945408-82.97990258 0-17.15263261-0.12945408-27.63839261-17.47626667-22.0071515-36.18234482 3.23634517-10.80939406 10.93884814-16.82899741 22.26605852-16.95845148 21.23042816-0.12945408 42.3314011 0 63.49710222 0 33.98163001 0 67.96325888-0.12945408 101.88016185 0 17.86462777 0 28.47984185 16.82899741 23.04278187 35.79398371zM911.62396445 58.91160519h-319.75095296c-31.26309888 0-53.27025038 19.41807445-53.27025039 53.33497628v319.75095296a53.07606926 53.07606926 0 0 0 53.27025039 53.27025039c45.11465927 0.19418112 270.04068295 0.12945408 319.75095296 0a52.68770816 52.68770816 0 0 0 53.33497628-53.27025039v-319.75095296c0-33.85217593-22.00715037-53.33497629-53.27024924-53.33497628zM831.75095296 298.78954667c-31.58673408 0.19418112-53.33497629 0-53.33497629 0v53.27025038c0 10.61521408-12.94538297 26.79694222-26.5380352 26.79694222-11.90975261 0-26.53803406-11.78029853-26.73221518-26.79694222-0.45308814-32.23400334 0-53.27025038 0-53.27025038s-20.97152 0.51781518-53.33497628 0c-10.22685184 0-26.79694222-12.55702073-26.79694222-26.79694222 0-11.39193629 12.68647481-26.53803406 26.79694222-26.53803407h53.33497628s-0.45308814-21.3598811 0-53.27025038a27.31475741 27.31475741 0 0 1 26.73221518-27.05585038c12.03920555 0 26.53803406 10.48576 26.5380352 27.05585038 0.19418112 31.0689189 0 53.27025038 0 53.27025038s21.74824334-0.3883611 53.33497629 0c15.53445888 0.25890816 26.99112334 15.08137074 26.99112334 26.53803407 0 12.16865963-17.21735851 26.73221518-26.99112334 26.79694222zM431.99753443 538.53803406h-319.75095296c-39.93650517 0-53.20552334 11.90975261-53.27024924 53.27025039-0.12945408 90.94131371 0 272.50030592 0 319.75095296 0 32.88127261 25.37294962 53.33497629 53.27024924 53.33497742 46.4739237 0.19418112 272.11194482 0.06472704 319.75095296 0 37.80051741-0.12945408 53.27025038-14.23992149 53.33497743-53.33497742v-319.75095296a52.4288 52.4288 0 0 0-53.33497743-53.27025039z m-63.43237518 309.84773632c-12.42756779 12.10393259-29.58019925 12.36284075-41.87831296 0.25890703a4066.79198037 4066.79198037 0 0 1-48.02736924-48.15682333c-1.94180779-1.94180779-3.10689223-4.78979186-4.98397298-7.76723001-19.80643555 19.87116259-37.54161038 37.86524445-55.40623815 55.66514631-10.48576 10.35630592-22.58969259 12.03920555-34.95253333 5.30760591-12.29811371-6.66687261-19.61225443-20.19479666-16.18172814-33.26963258a39.28923705 39.28923705 0 0 1 9.70903665-16.31118222c16.95845149-17.67044779 34.49944519-34.75835221 52.4288-52.55825408-2.33016889-2.45962297-4.14252259-4.5308837-6.14905628-6.47269148-16.31118222-16.4406363-32.88127261-32.75181853-48.99827371-49.38663481a27.83257259 27.83257259 0 0 1-2.71852999-35.85871075c8.02613703-12.29811371 22.71914667-18.25299001 35.14671331-13.33374408a41.42522482 41.42522482 0 0 1 13.20429114 9.25594852c17.47626667 17.15263261 34.56417223 34.69362517 53.33497628 53.72333852 4.98397184-5.76069518 9.12649443-11.00357518 13.78683221-15.79336704 12.03920555-12.29811371 24.27259221-24.40204629 36.44125298-36.57070592 15.40500594-15.46973184 32.10454926-16.37590926 45.69720035-2.58907704 13.26901703 13.39847111 12.29811371 30.42164963-2.5890759 45.30884038l-45.17938632 45.43829334-5.89014812 6.3432374 28.47984185 28.22093369c8.60867925 8.67340629 17.47626667 17.21735851 25.8907648 26.08494592 12.03920555 12.55702073 11.45666333 30.22746851-1.22981149 42.46085632z m596.39378148-256.57748593c0-26.53803406-28.47984185-53.27025038-53.27024924-53.27025039h-319.75095296c-27.57366557 0-53.33497629 28.15620779-53.33497743 53.27025039v319.75095296c0 23.43114297 26.53803406 53.33497629 53.27025039 53.33497742 44.66156999 0.19418112 270.36431815 0.06472704 319.75095296 0 37.80051741-0.12945408 53.39970333-25.37294962 53.39970332-64.40327965 0.12945408-92.17112519 0-216.44679851-0.06472704-308.68265073zM831.75095296 831.75095296h-158.06312334c-21.16570112 0-28.47984185-12.36284075-28.47984185-26.6027611a27.18530333 27.18530333 0 0 1 26.60276224-26.66748815h159.87547591c13.33374407 0 26.66748814 10.80939406 26.66748814 26.66748815 0 14.43410147-16.18172814 26.6027611-26.6027611 26.6027611z m0-106.54049963c-59.93712185 0.58254222-79.29046926-0.06472704-159.87547591 0-10.55048704 0-26.66748814-11.00357518-26.66748928-26.66748814 0-14.75773667 13.01011001-26.53803406 22.97805482-26.47330816l163.56491037-0.19417998c12.62174777 0.32363406 26.53803406 13.78683221 26.6027611 26.66748814 0.12945408 13.07483705-13.85155925 26.53803406-26.6027611 26.66748814z" /></svg>