<?xml version="1.0" standalone="no"?><!DOCTYPE svg PUBLIC "-//W3C//DTD SVG 1.1//EN" "http://www.w3.org/Graphics/SVG/1.1/DTD/svg11.dtd"><svg width="200px" height="200px" viewBox="0 0 1024 1024" version="1.1" xmlns="http://www.w3.org/2000/svg"><path d="M851.831 79.644c76.254 0 138.036 49.22 138.036 109.91v644.983c0 60.758-61.782 132.574-138.036 132.574H172.17c-76.254 0-138.036-49.152-138.036-109.91V189.555c0-60.69 61.782-109.91 138.036-109.91H851.83z m-689.493 68.267c-32.973 0-59.938 20.48-59.938 45.875V852.97c0 25.327 26.897 45.875 60.006 45.875h699.12c33.177 0 60.006-20.48 60.006-45.875V193.786c0-25.327-26.83-45.875-60.007-45.875h-699.05zM102.4 352.711h819.2v68.267H102.4zM750.933 11.378q34.134 0 34.134 34.133v204.8q0 34.133-34.134 34.133-34.133 0-34.133-34.133v-204.8q0-34.133 34.133-34.133zM273.067 11.378q34.133 0 34.133 34.133v204.8q0 34.133-34.133 34.133-34.134 0-34.134-34.133v-204.8q0-34.133 34.134-34.133zM443.733 762.311h136.534v68.267H443.733z m-204.8 0h136.534v68.267H238.933z m409.6-136.533h136.534v68.266H648.533z m-204.8 0h136.534v68.266H443.733z m-204.8 0h136.534v68.266H238.933z m409.6-136.534h136.534v68.267H648.533z m-204.8 0h136.534v68.267H443.733z" /></svg>