<?xml version="1.0" standalone="no"?><!DOCTYPE svg PUBLIC "-//W3C//DTD SVG 1.1//EN" "http://www.w3.org/Graphics/SVG/1.1/DTD/svg11.dtd"><svg width="200px" height="200px" viewBox="0 0 1024 1024" version="1.1" xmlns="http://www.w3.org/2000/svg"><path d="M886.318 199.776V927.7h-606.63V199.776h606.63m0-60.646h-606.63a60.73 60.73 0 0 0-60.647 60.646V927.7c0 33.472 27.175 60.647 60.646 60.647h606.631a60.73 60.73 0 0 0 60.647-60.647V199.776a60.73 60.73 0 0 0-60.647-60.646zM765.025 78.483v60.647H279.687l-60.646 60.646v606.631h-60.647V78.483h606.631m0-60.646h-606.63a60.73 60.73 0 0 0-60.647 60.646v727.924c0 33.472 27.175 60.647 60.646 60.647h121.293V199.776h545.985V78.483a60.73 60.73 0 0 0-60.647-60.646z m-29.412 394.285h-303.15a30.24 30.24 0 1 1 0-60.647h303.233a30.24 30.24 0 1 1 0 60.647z m0 181.94h-303.15a30.24 30.24 0 1 1 0-60.647h303.233a30.24 30.24 0 1 1 0 60.646z m0 182.022h-303.15a30.24 30.24 0 1 1 0-60.647h303.233a30.24 30.24 0 1 1 0 60.647z" /></svg>