<?xml version="1.0" standalone="no"?><!DOCTYPE svg PUBLIC "-//W3C//DTD SVG 1.1//EN" "http://www.w3.org/Graphics/SVG/1.1/DTD/svg11.dtd"><svg width="200px" height="200px" viewBox="0 0 1024 1024" version="1.1" xmlns="http://www.w3.org/2000/svg"><path d="M1011.2 816.333v62.6H55.467V128H115.2v688.333h896z m-59.733-610.1v212.583c0 6.827-3.004 11.605-9.08 14.404-6.144 2.73-11.605 1.57-16.589-3.618l-56.456-59.187-295.39 309.453a14.473 14.473 0 0 1-10.718 4.915 14.473 14.473 0 0 1-10.786-4.915l-108.68-113.8-194.15 203.366-89.703-93.935L432.98 389.46a14.473 14.473 0 0 1 10.718-4.847c4.028 0 7.578 1.639 10.718 4.847l108.817 114.006 216.474-226.85-56.457-59.12c-4.983-5.256-6.144-11.059-3.481-17.407s7.236-9.558 13.79-9.558h202.956c4.37 0 7.92 1.502 10.718 4.438a15.633 15.633 0 0 1 4.233 11.264z" /></svg>