<?xml version="1.0" standalone="no"?><!DOCTYPE svg PUBLIC "-//W3C//DTD SVG 1.1//EN" "http://www.w3.org/Graphics/SVG/1.1/DTD/svg11.dtd"><svg width="200px" height="200px" viewBox="0 0 1024 1024" version="1.1" xmlns="http://www.w3.org/2000/svg"><path d="M981.33333313 650.66666656C981.33333313 331.73333375 719.97866656 52.69333344 383.936 52.69333344L384.00000031 159.99999969C189.26933375 199.46666656 42.66666687 359.89333344 42.66666687 565.33333344c0 234.66666656 190.99733344 426.66666656 426.66666657 426.66666656 204.07466625 0 384.59733375-150.82666688 426.66666656-341.33333344h85.33333312z m-85.33333313-85.33333312H469.33333344V138.66666688c211.37066625 37.97333344 390.22933312 211.41333375 426.66666656 426.66666656z m-85.33333312 85.33333312c-40.53333375 142.72000031-186.00533344 256.00000031-341.33333344 256.00000031-188.22400031 0-341.33333344-154.02666656-341.33333344-341.33333343 0-158.08000031 108.97066687-282.24 256.00000031-319.99999969v405.33333281h426.66666656z" /></svg>