<?xml version="1.0" standalone="no"?><!DOCTYPE svg PUBLIC "-//W3C//DTD SVG 1.1//EN" "http://www.w3.org/Graphics/SVG/1.1/DTD/svg11.dtd"><svg width="200px" height="200px" viewBox="0 0 1024 1024" version="1.1" xmlns="http://www.w3.org/2000/svg"><path d="M689.71289956 221.33300702h116.6120071v0.06904217c16.70817382 0 21.26494894-10.77055883 10.5634323-22.92195752l-148.85464018-156.31118185c-12.08235774-12.08235774-18.50326676-7.5946248-18.50326798 8.97546589v124.27567407c0 25.82172285 14.49882905 45.91295724 40.18246876 45.91295724z m-204.98582005 488.26531476H247.49862517a51.57440475 51.57440475 0 0 1-51.43632039-51.43632039c0-28.23819537 23.06004188-51.43632039 51.43632039-51.43632039h275.96103862c49.91739616-77.1199601 142.08852029-128.76340702 245.4444563-128.76340702 19.53889819 0 34.59006222 5.31623663 60.27370192 8.97546468V315.23018311c0-25.75268189-43.97977995-42.46085571-69.73246184-42.4608557H607.82903781c-25.75268189 0-35.62569364-22.78387317-35.62569243-48.53655507V72.68549215c0-25.75268189-31.13796069-43.97977995-55.37171713-43.97977995H137.99794885C88.01151051 28.7057122 71.37237886 68.1977592 71.37237886 118.18419754v727.70311387c0 49.98643834 16.57008947 82.16002924 66.62556999 82.16002804h400.51288018c-36.17802983-51.36727822-57.85723062-106.46282786-57.85723063-169.70533608 0-16.57008947 1.3808411-35.90186113 4.14252207-48.74368159zM247.56766734 388.48378865H637.51711644c28.30723633 0 51.43632039 23.06004188 51.4363204 51.43632038 0 28.30723633-23.06004188 51.43632039-51.4363204 51.4363204H247.56766734a51.50536257 51.50536257 0 0 1 0-102.87264078z m517.9533934 142.43373117c-130.9727518 0-233.56922508 102.0441371-233.56922508 232.18838399 0 125.86364048 107.01516405 232.18838399 233.56922508 232.18838399 131.04179397 0 233.63826725-102.0441371 233.63826726-232.18838399 0-128.14202865-104.87486023-232.18838399-233.63826726-232.18838399z m140.9838479 179.50930686l-145.40253866 145.33349649a25.68363971 25.68363971 0 0 1-36.31611419 0l-99.97287546-99.97287546a25.68363971 25.68363971 0 0 1 36.31611419-36.38515636l81.74577618 81.7457774 127.17543941-127.10639844a25.68363971 25.68363971 0 0 1 36.45419853 36.31611419z" /></svg>