<?xml version="1.0" standalone="no"?><!DOCTYPE svg PUBLIC "-//W3C//DTD SVG 1.1//EN" "http://www.w3.org/Graphics/SVG/1.1/DTD/svg11.dtd"><svg   viewBox="0 0 1024 1024" version="1.1" xmlns="http://www.w3.org/2000/svg"  xmlns:xlink="http://www.w3.org/1999/xlink" width="200" height="200"><path d="M0 113.904941C0 51.079529 50.898824 0.180706 113.724235 0.180706h739.328c62.825412 0 113.724235 50.898824 113.724236 113.724235v739.328a113.724235 113.724235 0 0 1-113.724236 113.724235H113.724235A113.724235 113.724235 0 0 1 0 853.232941V113.844706z m113.724235-23.371294a23.371294 23.371294 0 0 0-23.371294 23.371294v739.328c0 12.890353 10.480941 23.371294 23.371294 23.371294h739.328a23.371294 23.371294 0 0 0 23.371294-23.371294V113.844706a23.371294 23.371294 0 0 0-23.371294-23.371294H113.724235z" ></path><path d="M441.464471 227.147294a45.176471 45.176471 0 0 1 0 63.849412L303.344941 429.176471a45.176471 45.176471 0 0 1-63.849412 0l-55.235764-55.235765a45.176471 45.176471 0 1 1 63.849411-63.849412l23.311059 23.250824 106.134589-106.134589a45.176471 45.176471 0 0 1 63.849411 0zM441.404235 547.84a45.176471 45.176471 0 0 1 0 63.849412l-138.119529 138.119529a45.176471 45.176471 0 0 1-63.849412 0l-55.235765-55.235765a45.176471 45.176471 0 1 1 63.849412-63.849411l23.311059 23.250823 106.134588-106.134588a45.176471 45.176471 0 0 1 63.849412 0zM512.963765 323.222588a45.176471 45.176471 0 0 1 45.17647-45.17647h213.714824a45.176471 45.176471 0 0 1 0 90.352941H558.140235a45.176471 45.176471 0 0 1-45.17647-45.176471zM512.903529 665.298824a45.176471 45.176471 0 0 1 45.176471-45.176471h213.714824a45.176471 45.176471 0 0 1 0 90.352941H558.08a45.176471 45.176471 0 0 1-45.176471-45.17647z" ></path></svg>