<?xml version="1.0" standalone="no"?><!DOCTYPE svg PUBLIC "-//W3C//DTD SVG 1.1//EN" "http://www.w3.org/Graphics/SVG/1.1/DTD/svg11.dtd"><svg   viewBox="0 0 1024 1024" version="1.1" xmlns="http://www.w3.org/2000/svg"  xmlns:xlink="http://www.w3.org/1999/xlink" width="200" height="200"><path d="M46.705778 203.320889a156.444444 156.444444 0 0 1 156.444444-156.444445H820.906667a156.444444 156.444444 0 0 1 156.444444 156.444445v617.699555a156.444444 156.444444 0 0 1-156.444444 156.444445H203.093333a156.444444 156.444444 0 0 1-156.444444-156.444445V203.320889z m156.444444-71.111111c-39.253333 0-71.111111 31.857778-71.111111 71.111111v617.699555c0 39.253333 31.857778 71.111111 71.111111 71.111112H820.906667c39.253333 0 71.111111-31.857778 71.111111-71.111112V203.320889c0-39.253333-31.857778-71.111111-71.111111-71.111111H203.093333z" ></path><path d="M779.036444 343.950222a42.666667 42.666667 0 0 1-0.227555 60.302222L484.693333 695.751111a75.434667 75.434667 0 0 1-89.429333 12.288 75.207111 75.207111 0 0 1-24.007111-21.162667L270.279111 549.546667a42.666667 42.666667 0 1 1 68.721778-50.574223l94.094222 127.886223 285.582222-283.136a42.666667 42.666667 0 0 1 60.359111 0.284444z" ></path></svg>