<?xml version="1.0" standalone="no"?><!DOCTYPE svg PUBLIC "-//W3C//DTD SVG 1.1//EN" "http://www.w3.org/Graphics/SVG/1.1/DTD/svg11.dtd"><svg width="200px" height="200px" viewBox="0 0 1024 1024" version="1.1" xmlns="http://www.w3.org/2000/svg"><path d="M339.05777777 47.78666666H193.42222222c-80.09955555 0-145.63555555 65.536-145.63555556 145.63555556v145.63555555c0 80.09955555 65.536 145.63555555 145.63555556 145.63555555h145.63555555c80.09955555 0 145.63555555-65.536 145.63555555-145.63555555V193.42222222c0-80.09955555-65.536-145.63555555-145.63555555-145.63555556z m509.72444445 0H703.14666666c-80.09955555 0-145.63555555 65.536-145.63555556 145.63555556v145.63555555c0 80.09955555 65.536 145.63555555 145.63555556 145.63555555h145.63555556c80.09955555 0 145.63555555-65.536 145.63555555-145.63555555V193.42222222c0-80.09955555-65.536-145.63555555-145.63555555-145.63555556zM339.05777777 557.5111111H193.42222222c-80.09955555 0-145.63555555 65.536-145.63555556 145.63555556v145.63555556c0 80.09955555 65.536 145.63555555 145.63555556 145.63555555h145.63555555c80.09955555 0 145.63555555-65.536 145.63555555-145.63555555V703.14666666c0-80.09955555-65.536-145.63555555-145.63555555-145.63555556z m509.72444445 0H703.14666666c-80.09955555 0-145.63555555 65.536-145.63555556 145.63555556v145.63555556c0 80.09955555 65.536 145.63555555 145.63555556 145.63555555h145.63555556c80.09955555 0 145.63555555-65.536 145.63555555-145.63555555V703.14666666c0-80.09955555-65.536-145.63555555-145.63555555-145.63555556z" /></svg>