<?xml version="1.0" standalone="no"?><!DOCTYPE svg PUBLIC "-//W3C//DTD SVG 1.1//EN" "http://www.w3.org/Graphics/SVG/1.1/DTD/svg11.dtd"><svg width="200px" height="200px" viewBox="0 0 1024 1024" version="1.1" xmlns="http://www.w3.org/2000/svg"><path d="M362.66666666 106.66666666H234.66666666c-70.4 0-128 57.6-128 128v128c0 70.4 57.6 128 128 128h128c70.4 0 128-57.6 128-128V234.66666666c0-70.4-57.6-128-128-128z m448 0H682.66666666c-70.4 0-128 57.6-128 128v128c0 70.4 57.6 128 128 128h128c70.4 0 128-57.6 128-128V234.66666666c0-70.4-57.6-128-128-128zM362.66666666 554.66666666H234.66666666c-70.4 0-128 57.6-128 128v128c0 70.4 57.6 128 128 128h128c70.4 0 128-57.6 128-128V682.66666666c0-70.4-57.6-128-128-128z m448 0H682.66666666c-70.4 0-128 57.6-128 128v128c0 70.4 57.6 128 128 128h128c70.4 0 128-57.6 128-128V682.66666666c0-70.4-57.6-128-128-128z" /></svg>