<?xml version="1.0" standalone="no"?><!DOCTYPE svg PUBLIC "-//W3C//DTD SVG 1.1//EN" "http://www.w3.org/Graphics/SVG/1.1/DTD/svg11.dtd"><svg width="200px" height="200px" viewBox="0 0 1024 1024" version="1.1" xmlns="http://www.w3.org/2000/svg"><path d="M897.703 469.188c47.29 0 85.624 38.334 85.624 85.624v342.812a85.624 85.624 0 0 1-85.624 85.703H640.515a85.624 85.624 0 0 1-85.624-85.624v-342.97c0-47.29 38.334-85.624 85.624-85.624h257.109zM383.485 640.515c47.29 0 85.624 38.413 85.624 85.703v171.406a85.624 85.624 0 0 1-85.546 85.703H126.297a85.624 85.624 0 0 1-85.624-85.624V726.218c0-47.29 38.335-85.624 85.624-85.624h257.188z m482.717-85.624H671.937a31.422 31.422 0 0 0-31.422 31.422v279.89c0 17.36 14.14 31.421 31.422 31.421h194.265a31.422 31.422 0 0 0 31.422-31.422V586.234a31.422 31.422 0 0 0-31.422-31.422zM352.063 726.218H157.719a31.422 31.422 0 0 0-31.422 31.422v108.562c0 17.36 14.062 31.422 31.422 31.422h194.265a31.422 31.422 0 0 0 31.422-31.422V757.64a31.422 31.422 0 0 0-31.422-31.422z m31.422-685.545c47.29 0 85.624 38.335 85.624 85.624v342.89a85.624 85.624 0 0 1-85.624 85.625H126.297a85.624 85.624 0 0 1-85.624-85.624v-342.89c0-47.29 38.335-85.625 85.624-85.625h257.188z m-31.422 85.624H157.719a31.422 31.422 0 0 0-31.422 31.422v280.047c0 17.282 14.062 31.422 31.422 31.422h194.265a31.422 31.422 0 0 0 31.422-31.422V157.719a31.422 31.422 0 0 0-31.422-31.422z m545.561-85.624c47.368 0 85.703 38.335 85.703 85.624v171.485a85.624 85.624 0 0 1-85.624 85.624H640.515a85.624 85.624 0 0 1-85.624-85.624V126.297c0-47.368 38.334-85.703 85.624-85.703h257.109z m-31.422 85.624H671.937a31.422 31.422 0 0 0-31.422 31.422V266.36c0 17.282 14.14 31.422 31.422 31.422h194.265a31.422 31.422 0 0 0 31.422-31.422V157.72a31.422 31.422 0 0 0-31.422-31.423z" /></svg>