<?xml version="1.0" standalone="no"?><!DOCTYPE svg PUBLIC "-//W3C//DTD SVG 1.1//EN" "http://www.w3.org/Graphics/SVG/1.1/DTD/svg11.dtd"><svg width="200px" height="200px" viewBox="0 0 1024 1024" version="1.1" xmlns="http://www.w3.org/2000/svg"><path d="M938.886 352.513L774.29 268.765l92.102-182.547a34.245 34.245 0 0 0 0.345-47.64 34.452 34.452 0 0 0-47.777-0.69L716.985 239.836l-141.812-71.803a95.623 95.623 0 0 0-42.392-11.461c-23.474 0-38.733 12.22-45.36 23.82l-1.174 2.347C381.993 412.51 80.97 539.134 77.863 540.445a45.43 45.43 0 0 0-26.098 28.929c-6.076 21.058 5.523 39.837 7.802 43.427l3.728 5.524L612.87 958.702c19.332 11.875 35.764 17.675 50.331 17.675 13.809 0 22.37-5.316 26.374-8.63l1.52-1.381C889.796 777.12 953.798 498.813 960.081 434.673c5.316-55.027-10.84-75.049-21.196-82.16z m-39.354 76.153c0 0.415-6.213 46.81-27.616 116.543-99.283-48.813-326.017-179.51-400.375-222.73a574.596 574.596 0 0 0 65.244-104.046c2.486 0.622 6.214 1.864 11.185 4.35L887.52 394.698l11.806 6.006c0.829 4.557 1.588 13.187 0.207 27.962zM622.674 738.665c13.325-13.118 13.67-34.521 0.76-48.053a34.452 34.452 0 0 0-47.778-0.76L470.16 792.656a29.895 29.895 0 0 0-3.314 3.728l-160.661-99.351 108.05-74.082a34.176 34.176 0 0 0 8.838-47.225 33.762 33.762 0 0 0-46.948-8.976l-121.376 83.265a33.002 33.002 0 0 0-9.045 9.459l-119.097-73.668c60.066-28.031 195.527-99.42 304.475-216.033C507.857 414.375 749.228 553.91 852.1 603.62c-32.242 86.44-91.825 209.06-194.077 309.999a91.343 91.343 0 0 1-13.325-7.043l-118.96-73.668 96.867-94.242z" /></svg>