<?xml version="1.0" standalone="no"?><!DOCTYPE svg PUBLIC "-//W3C//DTD SVG 1.1//EN" "http://www.w3.org/Graphics/SVG/1.1/DTD/svg11.dtd"><svg width="200px" height="200px" viewBox="0 0 1024 1024" version="1.1" xmlns="http://www.w3.org/2000/svg"><path d="M511.97539063 880.68251533c-206.65824258 0-374.78850205-168.12938057-374.78850118-374.78762314S305.31714805 131.10639013 511.97539063 131.10639013s374.81223164 168.13025948 374.81223252 374.78850206-168.12938057 374.78762315-374.81223253 374.78762314z m-1e-8-699.60409101c-179.09883018 0-324.816467 145.7176377-324.81646699 324.81646787s145.7176377 324.816467 324.81646699 324.81646699c179.12343867 0 324.84107636-145.7176377 324.84107637-324.81646699S691.09883018 181.07842432 511.97539063 181.07842432z"  /><path d="M346.01863115 787.43560185a24.88582354 24.88582354 0 0 1 9.29516046 33.90589073l-74.10816299 128.30239511a24.78562998 24.78562998 0 0 1-33.98059688 8.91987364 24.86121503 24.86121503 0 0 1-9.29516046-33.90589073l74.0835545-128.30239511a24.88582354 24.88582354 0 0 1 34.00520537-8.92075254z m336.28512744-0.14941142a24.73641211 24.73641211 0 0 0-9.09477246 33.78020889l74.25757442 128.57748837a24.7610206 24.7610206 0 0 0 33.83118544 9.02006719 24.66170596 24.66170596 0 0 0 9.02006719-33.78108867L716.08484727 796.30537871a24.66170596 24.66170596 0 0 0-33.78108868-9.02006718zM162.17290654 234.87188135a24.98601709 24.98601709 0 0 1-19.51403642-40.60216846A426.15885322 426.15885322 0 0 1 319.35920381 64.14449609a24.98601709 24.98601709 0 1 1 18.26425195 46.49865381 376.2870126 376.2870126 0 0 0-155.93651279 114.85974375 24.88582354 24.88582354 0 0 1-19.51403643 9.36986661z m696.45589981 0a24.93592031 24.93592031 0 0 1-19.5386458-9.3689877A375.96270146 375.96270146 0 0 0 683.17825625 110.64227099a24.93592031 24.93592031 0 0 1-14.11676104-32.38189189A24.93592031 24.93592031 0 0 1 701.4425082 64.14449609a426.03405117 426.03405117 0 0 1 176.70121348 130.12609571 25.03611386 25.03611386 0 0 1-19.51491533 40.60216846zM536.98689599 505.89489219A24.98601709 24.98601709 0 0 1 512 530.88003037H387.07079258a24.98601709 24.98601709 0 1 1 0-49.97203506H512a24.98601709 24.98601709 0 0 1 24.98601709 24.98601797z"  /><path d="M511.97539063 231.05045938c13.79157099 0 25.01062646 11.19356719 25.01062646 24.98513818v249.85929463c0 13.81618037-11.24366396 24.98601709-25.01062647 24.98601708a24.98601709 24.98601709 0 0 1-24.98689599-24.98689599V256.03647646a24.98601709 24.98601709 0 0 1 24.98689599-24.98513818z"  /></svg>