<?xml version="1.0" standalone="no"?><!DOCTYPE svg PUBLIC "-//W3C//DTD SVG 1.1//EN" "http://www.w3.org/Graphics/SVG/1.1/DTD/svg11.dtd"><svg width="200px" height="200px" viewBox="0 0 1024 1024" version="1.1" xmlns="http://www.w3.org/2000/svg"><path d="M678.3490625 665.6v115.2c0 84.825-70.291875 153.6-156.9984375 153.6C282.88625 934.4 89.6 745.28 89.6 512S282.9059375 89.6 521.350625 89.6c158.784375 0 299.8265625 82.56 372.575625 208.81875 31.0846875 53.971875 44.2565625 105.965625 39.5521875 155.98125 0 53.0109375-43.9490625 96-98.1309375 96h-39.264375c-65.030625 0-117.7340625 51.571875-117.7340625 115.2zM492.8 838.4a76.8 76.8 0 1 0 0-153.6 76.8 76.8 0 0 0 0 153.6z m-192-153.6a76.8 76.8 0 1 0 0-153.6 76.8 76.8 0 0 0 0 153.6z m-19.2-230.4a76.8 76.8 0 1 0 0-153.6 76.8 76.8 0 0 0 0 153.6z m192-115.2a76.8 76.8 0 1 0 0-153.6 76.8 76.8 0 0 0 0 153.6z m211.2 57.6a76.8 76.8 0 1 0 0-153.6 76.8 76.8 0 0 0 0 153.6z" /></svg>