<?xml version="1.0" standalone="no"?><!DOCTYPE svg PUBLIC "-//W3C//DTD SVG 1.1//EN" "http://www.w3.org/Graphics/SVG/1.1/DTD/svg11.dtd"><svg width="200px" height="200px" viewBox="0 0 1024 1024" version="1.1" xmlns="http://www.w3.org/2000/svg"><path d="M926.252 14.897H180.598c-45.568 0-82.85 37.283-82.85 82.85v82.851c0 24.855 16.57 41.425 41.425 41.425s41.425-16.57 41.425-41.425v-82.85h745.654v828.504H180.598v-82.85c0-24.855-16.57-41.425-41.425-41.425s-41.425 16.57-41.425 41.425v82.85c0 45.568 37.282 82.85 82.85 82.85h745.654c45.568 0 82.85-37.282 82.85-82.85V97.748c0-45.568-37.282-82.85-82.85-82.85zM346.3 677.7v124.277c0 24.855 16.57 41.425 41.424 41.425h414.253c24.855 0 41.425-16.57 41.425-41.425V677.7c0-95.278-53.853-173.986-128.418-219.554 28.997-28.997 45.567-66.28 45.567-111.848 0-91.135-74.565-165.7-165.7-165.7s-165.701 74.565-165.701 165.7c0 45.568 16.57 82.85 45.567 111.848C400.152 503.715 346.3 582.423 346.3 677.701zM512 346.3c0-45.569 37.283-82.851 82.85-82.851s82.85 37.282 82.85 82.85-37.282 82.85-82.85 82.85S512 391.868 512 346.3z m-82.85 331.4c0-91.135 74.565-165.7 165.7-165.7s165.701 74.565 165.701 165.7v82.851H429.15v-82.85zM56.323 346.3h165.7c24.856 0 41.426-16.571 41.426-41.426s-16.57-41.425-41.426-41.425h-165.7c-24.856 0-41.426 16.57-41.426 41.425s16.57 41.425 41.426 41.425z m0 207.125h165.7c24.856 0 41.426-16.57 41.426-41.425s-16.57-41.425-41.426-41.425h-165.7c-24.856 0-41.426 16.57-41.426 41.425s16.57 41.425 41.426 41.425z m207.126 165.701c0-24.855-16.57-41.425-41.426-41.425h-165.7c-24.856 0-41.426 16.57-41.426 41.425s16.57 41.425 41.426 41.425h165.7c24.856 0 41.426-16.57 41.426-41.425z" /></svg>