<?xml version="1.0" standalone="no"?><!DOCTYPE svg PUBLIC "-//W3C//DTD SVG 1.1//EN" "http://www.w3.org/Graphics/SVG/1.1/DTD/svg11.dtd"><svg width="200px" height="200px" viewBox="0 0 1024 1024" version="1.1" xmlns="http://www.w3.org/2000/svg"><path d="M845.06 32H179C131.12 32 92 71.24 92 119.24V170h47.46c37.44 0 67.74 30.42 67.74 67.98s-30.3 67.98-67.74 67.98H92v46.74h47.46c37.44 0 67.74 30.42 67.74 67.98s-30.3 67.92-67.74 67.98H92v46.68h47.46c37.44 0 67.74 30.42 67.74 67.92 0 37.62-30.3 67.98-67.74 67.98H92v46.74h47.46c37.44 0 67.74 30.48 67.74 67.98S176.9 854 139.46 854H92v50.76c0 48 39.12 87.24 87 87.24h666.06c47.82 0 86.94-39.24 86.94-87.3V119.24C932 71.24 892.88 32 845.06 32zM525.44 208.88c66.78 0 120.96 54.3 120.96 121.32 0 67.02-54.18 121.38-120.96 121.38s-120.96-54.3-120.96-121.32c0-67.02 54.12-121.38 120.96-121.38z m194.1 566.58h-0.36c-3.66 22.02-88.8 39.6-193.74 39.6s-190.2-17.58-193.74-39.6h-0.42v-117.9c0-86.22 54.06-159.24 129.42-186.42l64.74 86.52 64.68-86.52c75.42 27.18 129.42 100.26 129.42 186.42v117.9z" /></svg>