<?xml version="1.0" standalone="no"?><!DOCTYPE svg PUBLIC "-//W3C//DTD SVG 1.1//EN" "http://www.w3.org/Graphics/SVG/1.1/DTD/svg11.dtd"><svg width="200px" height="200px" viewBox="0 0 1024 1024" version="1.1" xmlns="http://www.w3.org/2000/svg"><path d="M405.367 759.467a38.502 38.502 0 0 1-38.434-38.434V499.166c0-21.095 17.272-38.366 38.434-38.366 21.095 0 38.366 17.271 38.366 38.434v221.867c0 21.094-17.271 38.366-38.434 38.366z m213.334 0a38.502 38.502 0 0 1-38.434-38.434V499.166c0-21.095 17.271-38.366 38.434-38.366 21.094 0 38.366 17.271 38.366 38.434v221.867c0 21.094-17.272 38.366-38.434 38.366zM951.228 230.4H750.933v-87.45c0-59.938-48.879-108.817-108.817-108.817H381.884c-59.938 0-108.817 48.88-108.817 108.817v87.45H72.772a38.639 38.639 0 0 0-38.639 38.434c0 21.095 17.408 38.366 38.64 38.366h97.894v552.55a129.16 129.16 0 0 0 38.092 92.024 129.16 129.16 0 0 0 92.024 38.093h422.434a129.16 129.16 0 0 0 92.024-38.093 129.16 129.16 0 0 0 38.092-92.024V307.2h97.895c21.23 0 38.639-17.271 38.639-38.434a38.639 38.639 0 0 0-38.64-38.366z m-601.361-87.45c0-17.749 14.336-32.017 32.017-32.017h260.232c17.75 0 32.017 14.336 32.017 32.017v87.45H349.867v-87.45z m426.666 716.8c0 29.423-23.893 53.317-53.316 53.317H300.783a53.385 53.385 0 0 1-53.316-53.317V307.2h529.066v552.55z" /></svg>