<?xml version="1.0" standalone="no"?><!DOCTYPE svg PUBLIC "-//W3C//DTD SVG 1.1//EN" "http://www.w3.org/Graphics/SVG/1.1/DTD/svg11.dtd"><svg width="200px" height="200px" viewBox="0 0 1024 1024" version="1.1" xmlns="http://www.w3.org/2000/svg"><path d="M366.656 653.824l194.176-55.168L422.08 460.8l-55.424 193.024z m518.592-377.6l-138.688-137.856L441.472 441.6l138.688 137.856 305.088-303.296z m-40.384 510.464c0 47.872-38.848 86.72-86.784 86.72H237.568a86.784 86.784 0 0 1-86.848-86.784V266.112a86.72 86.72 0 0 1 86.848-86.784h346.944a50.816 50.816 0 0 0-35.904-86.784H208.576A144.576 144.576 0 0 0 64 237.12v578.496a144.576 144.576 0 0 0 144.576 144.576h578.432a144.576 144.576 0 0 0 144.576-144.576V475.52a50.816 50.816 0 0 0-86.784-35.904v347.072z m104.832-626.304L863.04 74.24c-14.4-14.272-38.4-13.504-53.76 1.664l-41.6 41.408 138.688 137.792 41.6-41.344c15.36-15.168 16.128-39.104 1.728-53.376z" /></svg>