<?xml version="1.0" standalone="no"?><!DOCTYPE svg PUBLIC "-//W3C//DTD SVG 1.1//EN" "http://www.w3.org/Graphics/SVG/1.1/DTD/svg11.dtd"><svg width="200px" height="200px" viewBox="0 0 1024 1024" version="1.1" xmlns="http://www.w3.org/2000/svg"><path d="M959.047217 407.74651813C850.16791783 260.27271782 690.47367665 166.78979478 512 166.78979478 333.59536553 166.78979478 174.45346053 260.20367565 64.952783 407.74651813c-48.32942853 65.10664453-48.32942853 161.76550283 0 226.87214736 109.50067754 147.54284249 269.2639609 240.95672335 447.047217 240.95672335 178.40463447 0 337.54653947-93.41388208 447.047217-240.95672335 48.32942853-65.10664453 48.32942853-161.76550283 0-226.80310518zM512.69042054 746.74293965a225.76747498 225.76747498 0 0 1-225.42226409-225.56034845 225.76747498 225.76747498 0 0 1 225.42226409-225.49130626 225.76747498 225.76747498 0 0 1 225.49130628 225.49130626A225.76747498 225.76747498 0 0 1 512.62137837 746.74293965z m0-386.63543072a161.14412445 161.14412445 0 1 0 0.20712653 322.2882489A161.14412445 161.14412445 0 0 0 512.62137837 360.10750893z" /></svg>