<?xml version="1.0" standalone="no"?><!DOCTYPE svg PUBLIC "-//W3C//DTD SVG 1.1//EN" "http://www.w3.org/Graphics/SVG/1.1/DTD/svg11.dtd"><svg width="200px" height="200px" viewBox="0 0 1024 1024" version="1.1" xmlns="http://www.w3.org/2000/svg"><path d="M149.078 980.028A108.798 108.798 0 0 1 40.673 871.623V149.078A108.798 108.798 0 0 1 149.078 40.673h650.117c9.584 0.079 18.696 3.928 25.295 10.762l144.54 144.54a36.135 36.135 0 0 1 10.84 25.373v650.117a108.72 108.72 0 0 1-108.405 108.406H149.078v0.157zM689.14 546.407c61.744 0.314 111.705 50.275 112.02 112.019v249.332h70.305a36.292 36.292 0 0 0 36.135-36.135h-0.078v-635.9L784.584 112.787h-39.591V306.03a96.308 96.308 0 0 1-95.758 95.758H371.152a96.308 96.308 0 0 1-95.601-95.758V112.786H149.078a36.292 36.292 0 0 0-36.135 36.135v722.544a36.292 36.292 0 0 0 36.135 36.135h72.27V658.426a112.647 112.647 0 0 1 111.94-112.02H689.14zM293.618 658.426v249.332h433.229V658.347a39.906 39.906 0 0 0-39.67-39.67H333.21a40.063 40.063 0 0 0-39.592 39.749z m54.046-352.239a23.96 23.96 0 0 0 23.41 23.567h278.16a23.88 23.88 0 0 0 23.489-23.567V112.943H347.664v193.244z m198.664-66.771V203.28a36.135 36.135 0 0 1 54.124-31.343c11.234 6.441 18.068 18.381 18.068 31.264v36.135a36.135 36.135 0 0 1-54.203 31.265 36.135 36.135 0 0 1-18.067-31.265z" /></svg>