<?xml version="1.0" standalone="no"?><!DOCTYPE svg PUBLIC "-//W3C//DTD SVG 1.1//EN" "http://www.w3.org/Graphics/SVG/1.1/DTD/svg11.dtd"><svg width="200px" height="200px" viewBox="0 0 1024 1024" version="1.1" xmlns="http://www.w3.org/2000/svg"><path d="M962 316.7v466.62c0 46.08-35.04 83.46-78.24 83.46h-78.3v-41.7h78.3c21.6 0 39.12-18.72 39.12-41.7v-438.3H766.34c-43.26 0-78.24-37.38-78.24-83.46V73.82H335.9c-21.6 0-39.12 18.72-39.12 41.7h-39.12c0-46.08 35.04-83.46 78.3-83.46H714.8L956.3 309.5M727.22 108.44v153.12c0 23.04 17.52 41.7 39.18 41.7h132.18L727.22 108.44z m39.12 333.48v466.5c0 46.08-35.04 83.52-78.24 83.52H140.24c-43.2 0-78.24-37.38-78.24-83.52v-667.8c0-46.08 35.04-83.46 78.24-83.46h378.84l241.56 277.38M531.56 233.6v153.18c0 23.04 17.52 41.7 39.12 41.7h132.18L531.56 233.6z m-430.44 7.08v667.8c0 23.1 17.52 41.76 39.12 41.76H688.1c21.6 0 39.12-18.72 39.12-41.76V470.24H570.74c-43.2 0-78.24-37.38-78.24-83.46v-187.8H140.3c-21.66 0-39.18 18.66-39.18 41.7z m97.86 250.44h195.66v41.7H198.98v-41.7z m0-125.22h195.66v41.7H198.98v-41.7z m430.44 292.2H198.98v-41.7h430.44v41.7z m0 125.22H198.98v-41.76h430.44v41.76z" /></svg>