<?xml version="1.0" standalone="no"?><!DOCTYPE svg PUBLIC "-//W3C//DTD SVG 1.1//EN" "http://www.w3.org/Graphics/SVG/1.1/DTD/svg11.dtd"><svg width="200px" height="200px" viewBox="0 0 1024 1024" version="1.1" xmlns="http://www.w3.org/2000/svg"><path d="M264.5 933.875c-56.25 0-101.25-45-101.25-101.25V540.125l-33.75 33.75c-5.625 5.625-16.875 11.25-28.125 11.25s-22.5-5.625-28.125-11.25C67.625 562.625 62 551.375 62 540.125c0-5.625 5.625-16.875 11.25-28.125L483.875 101.375c5.625-5.625 16.875-11.25 28.125-11.25s22.5 5.625 28.125 11.25L950.75 512c5.625 11.25 11.25 22.5 11.25 28.125 0 11.25-5.625 22.5-11.25 28.125-5.625 5.625-16.875 11.25-28.125 11.25s-22.5-5.625-28.125-11.25L512 191.375 247.625 455.75v371.25c0 11.25 11.25 22.5 22.5 22.5H371.375V686.375c0-22.5 16.875-39.375 39.375-39.375h202.5c22.5 0 39.375 16.875 39.375 39.375s-16.875 39.375-39.375 39.375H450.125v163.125c0 22.5-16.875 39.375-39.375 39.375H264.5z m348.75 0c-22.5 0-39.375-16.875-39.375-39.375 0-22.5 16.875-39.375 39.375-39.375h140.625c11.25 0 22.5-11.25 22.5-22.5v-225c0-22.5 16.875-39.375 39.375-39.375 22.5 0 39.375 16.875 39.375 39.375v225c0 56.25-45 101.25-101.25 101.25h-140.625z" /></svg>