<?xml version="1.0" standalone="no"?><!DOCTYPE svg PUBLIC "-//W3C//DTD SVG 1.1//EN" "http://www.w3.org/Graphics/SVG/1.1/DTD/svg11.dtd"><svg width="200px" height="200px" viewBox="0 0 1024 1024" version="1.1" xmlns="http://www.w3.org/2000/svg"><path d="M975.467 504.533L563.307 92.587 535.68 64.96c-13.12-13.013-34.24-13.013-47.36 0L48.533 504.533c-13.12 13.12-20.16 30.507-20.053 49.067 0.427 37.547 31.68 67.52 69.227 67.52h45.333v347.413h737.92V621.12h46.293c18.24 0 35.414-7.147 48.32-20.053 12.907-12.907 19.947-30.08 19.947-48.32 0-18.134-7.147-35.307-20.053-48.214z m-403.734 387.2H452.267v-217.6h119.466v217.6zM804.16 544.32v347.413H640v-243.2c0-23.573-19.093-42.666-42.667-42.666H426.667c-23.574 0-42.667 19.093-42.667 42.666v243.2H219.84V544.32h-102.4l394.667-394.347 24.64 24.64 369.92 369.707H804.16z" /></svg>