<?xml version="1.0" standalone="no"?><!DOCTYPE svg PUBLIC "-//W3C//DTD SVG 1.1//EN" "http://www.w3.org/Graphics/SVG/1.1/DTD/svg11.dtd"><svg t="1657186106032" class="icon" viewBox="0 0 1024 1024" version="1.1" xmlns="http://www.w3.org/2000/svg" p-id="4079" xmlns:xlink="http://www.w3.org/1999/xlink" width="200" height="200"><path d="M511.784375 648.76625a137.053125 137.053125 0 1 0 0-274.108125 137.053125 137.053125 0 0 0 0 274.108125M32.0740625 580.3109375V443.2090625a22.8825 22.8825 0 0 1 22.8815625-22.8825h53.7759375c27.7275 0 53.1046875-16.5496875 63.3225-42.309375 1.5346875-4.078125 3.21375-8.0596875 4.940625-12.04125 11.0334375-25.425 4.845-55.02375-14.7271875-74.64375l-33.388125-33.388125c-13.719375-13.719375-13.62375-28.063125-4.700625-36.9853125L221.0796875 124.056875a22.8346875 22.8346875 0 0 1 32.2846875 0l38.08875 38.0409375a67.7353125 67.7353125 0 0 0 74.64375 14.728125c3.980625-1.7278125 8.0109375-3.3590625 11.9925-4.9415625 25.760625-10.17 42.358125-35.499375 42.358125-63.2259375V61.454375c0-19.38 10.21875-29.454375 22.8346875-29.454375h137.00625a22.8346875 22.8346875 0 0 1 22.83375 22.8346875v53.82375c0 27.7265625 16.5496875 53.1515625 42.3103125 63.3215625a333.031875 333.031875 0 0 1 12.04125 4.940625c25.425 11.034375 55.070625 4.8459375 74.64375-14.775l38.08875-38.0409375a22.8346875 22.8346875 0 0 1 32.2846875 0l96.9009375 96.901875a22.8346875 22.8346875 0 0 1 0 32.3325l-38.0409375 38.0409375a67.7353125 67.7353125 0 0 0-14.775 74.6915625c1.726875 3.9815625 3.358125 7.963125 4.989375 11.9925 10.12125 25.760625 35.4984375 42.3590625 63.27375 42.3590625h53.82375a22.8346875 22.8346875 0 0 1 22.8346875 22.83375v137.0540625a22.8346875 22.8346875 0 0 1-22.8346875 22.7859375h-53.82375c-27.7275 0-53.10375 16.550625-63.3215625 42.31125a341.075625 341.075625 0 0 1-4.940625 12.0403125c-11.034375 25.425-4.798125 55.0715625 14.775 74.690625l38.04 38.041875a22.8346875 22.8346875 0 0 1 0 32.2846875L802.4909375 899.3675a22.8346875 22.8346875 0 0 1-32.2846875 0l-38.0896875-38.0409375a67.7353125 67.7353125 0 0 0-74.64375-14.728125 370.595625 370.595625 0 0 1-11.9925 4.9415625c-25.760625 10.17-42.358125 35.499375-42.358125 63.2259375v47.2040625c0 19.38-10.21875 29.454375-22.8346875 29.454375H443.234375a22.8346875 22.8346875 0 0 1-22.8346875-22.8346875v-53.82375c0-27.7265625-16.5496875-53.10375-42.3103125-63.3215625a345.4884375 345.4884375 0 0 1-11.9934375-4.940625 67.6875 67.6875 0 0 0-74.690625 14.775l-38.0409375 38.1375a22.8346875 22.8346875 0 0 1-32.2846875 0L124.1778125 802.5125a22.8346875 22.8346875 0 0 1 0-32.3325l38.0409375-38.0409375a67.7353125 67.7353125 0 0 0 14.7271875-74.690625 350.094375 350.094375 0 0 1-4.940625-11.9934375 67.783125 67.783125 0 0 0-63.3225-42.3590625H55.0025A22.8825 22.8825 0 0 1 32.073125 580.3109375" p-id="4080"></path></svg>