<?xml version="1.0" standalone="no"?><!DOCTYPE svg PUBLIC "-//W3C//DTD SVG 1.1//EN" "http://www.w3.org/Graphics/SVG/1.1/DTD/svg11.dtd"><svg width="200px" height="200px" viewBox="0 0 1024 1024" version="1.1" xmlns="http://www.w3.org/2000/svg"><path d="M725.90222222 630.97856L630.97856 725.90222222q-6.50126222 6.50126222-14.95267555 6.50126223T601.07207111 725.90222222L512 636.83015111 422.92792889 725.90222222q-6.50126222 6.50126222-14.95381334 6.50126223T393.02257778 725.90222222L298.09777778 630.97856q-6.50126222-6.50126222-6.50126223-14.95267555T298.09777778 601.07207111L387.16984889 512 298.09777778 422.92792889q-6.50126222-6.50126222-6.50126223-14.95381334T298.09777778 393.02257778L393.02144 298.09777778q6.50126222-6.50126222 14.95267555-6.50126223T422.92792889 298.09777778L512 387.16984889 601.07207111 298.09777778q6.50126222-6.50126222 14.95381334-6.50126223T630.97742222 298.09777778L725.90222222 393.02144q6.50126222 6.50126222 6.50126223 14.95267555T725.90222222 422.92792889L636.83015111 512 725.90222222 601.07207111q6.50126222 6.50126222 6.50126223 14.95381334T725.90222222 630.97742222zM865.68618667 512q0-96.22300445-47.46126222-177.49333333T689.49333333 205.77507555t-177.49333333-47.46126222-177.49333333 47.46126222T205.77507555 334.50666667t-47.46126222 177.49333333 47.46126222 177.49333333T334.50666667 818.22492445t177.49333333 47.46126222 177.49333333-47.46126222T818.22492445 689.49333333t47.46126222-177.49333333z m145.63555555 0q0 135.88366222-66.96618667 250.63651555T762.63651555 944.35555555 512 1011.32174222 261.36348445 944.35555555 79.64444445 762.63651555 12.67825778 512 79.64444445 261.36348445 261.36348445 79.64444445 512 12.67825778 762.63651555 79.64444445 944.35555555 261.36348445 1011.32174222 512z" /></svg>