<?xml version="1.0" standalone="no"?><!DOCTYPE svg PUBLIC "-//W3C//DTD SVG 1.1//EN" "http://www.w3.org/Graphics/SVG/1.1/DTD/svg11.dtd"><svg width="200px" height="200px" viewBox="0 0 1024 1024" version="1.1" xmlns="http://www.w3.org/2000/svg"><path d="M820.16 392.6l-43.92 43.92a31.2 31.2 0 0 1-43.92 0L552.8 257V712.4a31.08 31.08 0 0 1-31.2 31.08h-62.04a31.08 31.08 0 0 1-31.2-31.2V257.12L249.08 436.4a31.2 31.2 0 0 1-43.92 0l-43.92-43.92a31.2 31.2 0 0 1 0-44.04L468.68 41.12a31.2 31.2 0 0 1 43.92 0l307.56 307.44a31.08 31.08 0 0 1 0 44.04zM552.8 992H428.48V867.68H552.8V992z" /></svg>