<?xml version="1.0" standalone="no"?><!DOCTYPE svg PUBLIC "-//W3C//DTD SVG 1.1//EN" "http://www.w3.org/Graphics/SVG/1.1/DTD/svg11.dtd"><svg width="200px" height="200px" viewBox="0 0 1024 1024" version="1.1" xmlns="http://www.w3.org/2000/svg"><path d="M912.49777778 75.09333333H111.50222222c-21.84533333 0-36.40888889 14.56355555-36.40888889 36.40888889v800.99555556c0 21.84533333 14.56355555 36.40888889 36.40888889 36.40888889h400.49777778c21.84533333 0 36.40888889-14.56355555 36.40888889-36.40888889s-14.56355555-36.40888889-36.40888889-36.40888889H147.91111111V147.91111111h728.17777778v364.08888889c0 21.84533333 14.56355555 36.40888889 36.40888889 36.40888889s36.40888889-14.56355555 36.40888889-36.40888889V111.50222222c0-21.84533333-14.56355555-36.40888889-36.40888889-36.40888889z"  /><path d="M599.38133333 548.40888889H766.86222222c21.84533333 0 36.40888889-14.56355555 36.40888889-36.40888889s-14.56355555-36.40888889-36.40888889-36.40888889H512c-3.64088889 0-10.92266667 0-14.56355555 3.64088889-7.28177778 3.64088889-14.56355555 10.92266667-18.20444445 18.20444445-3.64088889 3.64088889-3.64088889 10.92266667-3.64088889 14.56355555v254.86222222c0 21.84533333 14.56355555 36.40888889 36.40888889 36.40888889s36.40888889-14.56355555 36.40888889-36.40888889V599.38133333l265.78488889 265.78488889c7.28177778 7.28177778 18.20444445 10.92266667 25.48622222 10.92266667s18.20444445-3.64088889 25.48622222-10.92266667c14.56355555-14.56355555 14.56355555-36.40888889 0-50.97244444L599.38133333 548.40888889z"  /></svg>