<?xml version="1.0" standalone="no"?><!DOCTYPE svg PUBLIC "-//W3C//DTD SVG 1.1//EN" "http://www.w3.org/Graphics/SVG/1.1/DTD/svg11.dtd"><svg width="200px" height="200px" viewBox="0 0 1024 1024" version="1.1" xmlns="http://www.w3.org/2000/svg"><path d="M38.464 662.383a30.636 30.636 0 1 1 55.528-25.776c45.07 97.211 138.305 174.98 256.21 213.055a30.636 30.636 0 0 1-18.853 58.253C197.831 864.759 90.972 775.575 38.464 662.383zM943.78 253.065a30.636 30.636 0 1 1-54.13 28.574 390.17 390.17 0 0 0-173.286-167.174 30.636 30.636 0 1 1 26.954-55.013A451.443 451.443 0 0 1 943.78 253.065zM676.817 417.587h272.486a40.063 40.063 0 0 1 39.032 40.947v448.718a39.916 39.916 0 0 1-39.032 40.873h-466.76a40.063 40.063 0 0 1-39.033-40.873V621.73H170.435a40.063 40.063 0 0 1-39.032-40.947V132.066a39.916 39.916 0 0 1 39.032-40.946h467.35a40.063 40.063 0 0 1 39.032 40.946v285.521zM170.435 580.784h467.35V132.066h-467.35v448.718z m532.6-13.771l-85.723 233.16h38.075l20.988-59.948h95.223l20.989 59.947h36.675l-86.164-233.16h-40.063z m-18.559 142.723l37.117-105.606 39.548 105.606h-76.665zM387.688 186.342h29.531v59.432h113.413v157.6h-29.679v-18.632H417.22v109.436h-28.132V384.742h-81.451V403.3h-29.458V245.774h110.835l-1.4-59.432z m-80.052 167.91h81.009V276.19h-81.01v78.064z m109.583 0h83.808V276.19h-83.808v78.064z" /></svg>