<?xml version="1.0" standalone="no"?><!DOCTYPE svg PUBLIC "-//W3C//DTD SVG 1.1//EN" "http://www.w3.org/Graphics/SVG/1.1/DTD/svg11.dtd"><svg width="200px" height="200px" viewBox="0 0 1024 1024" version="1.1" xmlns="http://www.w3.org/2000/svg"><path d="M773.3 437.3v-112S773.3 64 512 64 250.7 325.3 250.7 325.3v112h-112V960h746.6V437.3h-112z m-224 288.4V848h-74.7V725.7c-22.2-12.9-37.3-36.8-37.3-64.3 0-41.3 33.5-74.7 74.7-74.7s74.7 33.4 74.7 74.7c0 27.5-15.2 51.3-37.4 64.3m149.4-288.4H325.3V325.8c0.4-31.3 11.4-187.1 186.7-187.1s186.2 155.9 186.7 186.7v111.9z" /></svg>