<?xml version="1.0" standalone="no"?><!DOCTYPE svg PUBLIC "-//W3C//DTD SVG 1.1//EN" "http://www.w3.org/Graphics/SVG/1.1/DTD/svg11.dtd"><svg width="200px" height="200px" viewBox="0 0 1024 1024" version="1.1" xmlns="http://www.w3.org/2000/svg"><path d="M805.20874999 409.143125V632q0 21.4284375-15 36.4284375t-36.4284375 15-36.4284375-15-15-36.4284375V443.4284375H668.06562499V932q0 24.643125-17.6784375 42.3215625T608.06562499 992t-42.320625-17.6784375T548.06562499 932V683.4284375H513.78124999V932q0 24.643125-17.6784375 42.3215625T453.78031249 992t-42.3215625-17.6784375T393.78124999 932V443.4284375h-34.2853125V632q0 21.4284375-15 36.4284375t-36.429375 15-36.4284375-15-15-36.4284375V409.143125q0-42.8578125 30-72.8578125t72.8578125-30h342.856875q42.856875 0 72.856875 30t30 72.8578125z m-154.2853125-240q0 49.8215625-35.0896875 84.9103125t-84.9103125 35.0896875-84.91125-35.0896875-35.08875-84.9103125 35.08875-84.91125 84.91125-35.08875 84.9103125 35.08875 35.0896875 84.91125z" /></svg>