<?xml version="1.0" standalone="no"?><!DOCTYPE svg PUBLIC "-//W3C//DTD SVG 1.1//EN" "http://www.w3.org/Graphics/SVG/1.1/DTD/svg11.dtd"><svg width="200px" height="200px" viewBox="0 0 1024 1024" version="1.1" xmlns="http://www.w3.org/2000/svg"><path d="M870.4 844.8H665.6a153.6 153.6 0 0 1-307.2 0H153.6a51.2 51.2 0 0 1-51.2-51.2v-51.2h102.4V435.2a307.2 307.2 0 0 1 256-302.08V76.8a51.2 51.2 0 0 1 102.4 0v56.32a307.2 307.2 0 0 1 256 302.08v307.2h102.4v51.2a51.2 51.2 0 0 1-51.2 51.2zM512 896a51.2 51.2 0 0 0 51.2-51.2H460.8A51.2 51.2 0 0 0 512 896z m204.8-460.8A204.8 204.8 0 0 0 512 230.4a204.8 204.8 0 0 0-204.8 204.8v307.2h409.6z" /></svg>