<?xml version="1.0" standalone="no"?><!DOCTYPE svg PUBLIC "-//W3C//DTD SVG 1.1//EN" "http://www.w3.org/Graphics/SVG/1.1/DTD/svg11.dtd"><svg width="200px" height="200px" viewBox="0 0 1024 1024" version="1.1" xmlns="http://www.w3.org/2000/svg"><path d="M921.707 644.96h-101.44V543.627A68.341 68.341 0 0 0 752 475.36H546.133V372.395h102.294a68.341 68.341 0 0 0 68.266-68.267V137.376a68.341 68.341 0 0 0-68.266-68.267H375.86a68.341 68.341 0 0 0-68.266 68.267v166.752a68.341 68.341 0 0 0 68.266 68.267h102.006v103.008h-204.8a68.341 68.341 0 0 0-68.267 68.266v101.334H102.4a68.341 68.341 0 0 0-68.267 68.266v171.222a68.341 68.341 0 0 0 68.267 68.266h272.427a68.341 68.341 0 0 0 68.266-68.266V713.227a68.341 68.341 0 0 0-68.266-68.267H272.98V543.733l0.064-0.064h478.859l0.064 0.064V644.96H649.173a68.341 68.341 0 0 0-68.266 68.267V884.49a68.341 68.341 0 0 0 68.266 68.266h272.534a68.341 68.341 0 0 0 68.266-68.266V713.227a68.341 68.341 0 0 0-68.266-68.267zM375.86 304.075V137.44l0.064-0.064h272.406l0.064 0.064v166.635l-0.064 0.064H375.915z m-1.066 409.216v171.136l-0.064 0.064H102.4l-0.064-0.064V713.29l0.064-0.064h272.363z m546.912 171.136l-0.064 0.064H649.237l-0.064-0.064V713.29l0.064-0.064H921.6l0.064 0.064z" /></svg>