<?xml version="1.0" standalone="no"?><!DOCTYPE svg PUBLIC "-//W3C//DTD SVG 1.1//EN" "http://www.w3.org/Graphics/SVG/1.1/DTD/svg11.dtd"><svg width="200px" height="200px" viewBox="0 0 1024 1024" version="1.1" xmlns="http://www.w3.org/2000/svg"><path d="M895.84375 840.3246875c15.4809375 0 28.03125 12.5475 28.03125 28.025625 0 15.2559375-12.1940625 27.665625-27.369375 28.0171875l-0.661875 0.0075H110.96875C95.4878125 896.375 82.9375 883.8275 82.9375 868.3503125c0-15.256875 12.1940625-27.665625 27.369375-28.0171875l0.661875-0.0084375h784.875zM616.8409375 135.98375c32.229375-30.495 82.8825-29.7984375 114.260625 1.5721875l79.9903125 79.9725c31.99875 31.9921875 31.99875 83.859375 0 115.8515625l-288.1575 288.09375a243.66375 243.66375 0 0 1-91.2459375 57.478125L255.8246875 740.965625c-16.8459375 5.94-35.3184375-2.896875-41.259375-19.7390625a32.3296875 32.3296875 0 0 1-1.0753125-17.75625l36.0046875-162.3234375a243.5878125 243.5878125 0 0 1 70.3940625-124.18875z" /></svg>