<?xml version="1.0" standalone="no"?><!DOCTYPE svg PUBLIC "-//W3C//DTD SVG 1.1//EN" "http://www.w3.org/Graphics/SVG/1.1/DTD/svg11.dtd"><svg width="200px" height="200px" viewBox="0 0 1024 1024" version="1.1" xmlns="http://www.w3.org/2000/svg"><path d="M701.29 70.13a82.887 82.887 0 0 1 58.622 24.304l130.204 130.204a82.85 82.85 0 0 1 0 117.095L351.993 879.856a27.617 27.617 0 0 1-14.508 7.66l-255.99 47.72a27.617 27.617 0 0 1-32.256-32.182l47.796-256.063a27.617 27.617 0 0 1 7.585-14.434L642.743 94.434c15.466-15.54 36.602-24.303 58.548-24.303z m264.386 804.865c16.128 0 25.186 6.997 27.175 21.137l0.442 6.48c0 18.411-9.206 27.617-27.617 27.617h-460.28c-16.129 0-25.187-7.07-27.249-21.21l-0.368-6.407c0-18.411 9.205-27.617 27.617-27.617h460.28zM167.513 647.727l-17.822 17.822-38.81 208.047 208.046-38.81 17.822-17.823-169.236-169.236z m798.163 98.39c16.128 0 25.186 6.996 27.175 21.136l0.442 6.48c0 18.412-9.206 27.618-27.617 27.618H615.863c-16.128 0-25.187-7.07-27.249-21.21l-0.368-6.407c0-18.411 9.206-27.617 27.617-27.617h349.813z m-394.59-501.963L206.546 608.622 375.78 777.858 740.323 413.39 571.087 244.154z m394.59 373.084c16.128 0 25.186 6.997 27.175 21.137l0.442 6.48c0 18.412-9.206 27.617-27.617 27.617H763.153c-16.129 0-25.187-7.07-27.249-21.21l-0.368-6.407c0-18.41 9.205-27.617 27.617-27.617h202.523zM681.775 133.466l-71.656 71.582 169.235 169.236 71.657-71.509a27.617 27.617 0 0 0 0-39.032L720.807 133.466a27.617 27.617 0 0 0-39.032 0z" /></svg>