<?xml version="1.0" standalone="no"?><!DOCTYPE svg PUBLIC "-//W3C//DTD SVG 1.1//EN" "http://www.w3.org/Graphics/SVG/1.1/DTD/svg11.dtd"><svg width="200px" height="200px" viewBox="0 0 1024 1024" version="1.1" xmlns="http://www.w3.org/2000/svg"><path d="M695.36 253.653a8.373 8.373 0 0 0-8.427-8.32h-400a8.373 8.373 0 0 0-8.32 8.32v50.027c0 4.587 3.734 8.32 8.32 8.32h400c4.587 0 8.32-3.733 8.32-8.32v-50.027z m-8.373 141.707h-400a8.373 8.373 0 0 0-8.32 8.32v49.973c0 4.587 3.733 8.374 8.32 8.374h400c4.586 0 8.32-3.734 8.32-8.374v-49.92a8.373 8.373 0 0 0-8.32-8.373z m-208.32 149.92h-191.68a8.373 8.373 0 0 0-8.32 8.32v50.027c0 4.586 3.733 8.32 8.32 8.32h191.68c4.586 0 8.32-3.734 8.32-8.32V553.6a8.373 8.373 0 0 0-8.32-8.32zM428.64 866.133H195.36V132.8h583.307v358.293c0 4.587 3.733 8.374 8.32 8.374h58.346c4.587 0 8.32-3.734 8.32-8.374v-400A33.28 33.28 0 0 0 820.32 57.76H153.653a33.28 33.28 0 0 0-33.333 33.333v816.694c0 18.453 14.933 33.333 33.333 33.333h275.04c4.534 0 8.32-3.733 8.32-8.32v-58.347a8.373 8.373 0 0 0-8.373-8.32z m371.733-77.546a150.027 150.027 0 1 0-201.653 0 204.693 204.693 0 0 0-103.36 168.906 8.373 8.373 0 0 0 8.32 8.64h50.133c4.32 0 8-3.466 8.267-7.946a137.76 137.76 0 0 1 137.44-129.6c73.227 0 133.333 57.546 137.387 129.6a8.373 8.373 0 0 0 8.32 7.946h50.133c4.8 0 8.533-4 8.32-8.64A204.32 204.32 0 0 0 800.32 788.64zM699.52 594.24a83.307 83.307 0 1 1 0 166.613 83.307 83.307 0 0 1 0-166.613z" /></svg>