<?xml version="1.0" standalone="no"?><!DOCTYPE svg PUBLIC "-//W3C//DTD SVG 1.1//EN" "http://www.w3.org/Graphics/SVG/1.1/DTD/svg11.dtd"><svg width="200px" height="200px" viewBox="0 0 1024 1024" version="1.1" xmlns="http://www.w3.org/2000/svg"><path d="M40.619 997.717a12.412 12.412 0 0 1-8.761-3.64c-4.438-4.438-4.893-11.606-0.91-16.498L358.4 571.506c2.162-2.73 5.461-4.438 8.988-4.551 3.528-0.228 6.94 1.137 9.444 3.64l78.62 78.621c2.504 2.503 3.755 5.916 3.641 9.444-0.227 3.527-1.82 6.712-4.55 8.988L48.355 994.987a12.359 12.359 0 0 1-7.737 2.73z m328.476-399.929L122.652 903.396 428.26 656.953l-59.165-59.165z m531.57-162.702c-19.797 0-38.343-7.737-52.338-21.731L612.58 177.607c-28.9-28.9-28.9-75.89 0-104.79 28.9-28.899 75.89-28.899 104.789 0l235.747 235.748c28.9 28.9 28.9 75.89 0 104.79-13.994 13.994-32.654 21.731-52.451 21.731zM664.917 100.58c-6.371 0-12.629 2.389-17.521 7.168-9.672 9.67-9.672 25.258 0 34.93l235.747 235.747c9.33 9.33 25.6 9.33 34.93 0 9.671-9.671 9.671-25.259 0-34.93L682.439 107.748c-4.779-4.78-11.15-7.168-17.522-7.168zM616.903 852.878c-6.371 0-12.63-2.39-17.408-7.282L180.338 426.44c-9.671-9.671-9.671-25.259 0-34.93 27.99-27.989 65.194-43.349 104.79-43.349s76.8 15.36 104.788 43.35l244.509 244.508c57.799 57.799 57.799 151.78 0 209.578-4.893 4.893-11.15 7.282-17.522 7.282zM234.951 411.193l379.79 379.79c8.875-15.019 13.654-32.313 13.654-50.176 0-26.396-10.24-51.2-28.9-69.86L354.987 426.44c-18.66-18.66-43.463-28.9-69.86-28.9-17.977 0-35.157 4.78-50.176 13.654zM625.664 686.99c-6.485 0-12.857-2.617-17.408-7.282l-262.03-261.916c-4.893-4.892-7.51-11.72-7.168-18.773 0.341-6.94 3.64-13.426 9.102-17.863l279.438-226.987c9.785-7.965 24.121-7.282 32.996 1.707l209.578 209.578c8.989 8.989 9.672 23.21 1.707 32.996L644.892 677.774c-4.437 5.462-10.922 8.761-17.863 9.102-0.455 0.114-0.91 0.114-1.365 0.114zM400.498 402.204L623.73 625.436 819.428 384.57 641.479 206.507 400.498 402.204z" /></svg>