<?xml version="1.0" standalone="no"?><!DOCTYPE svg PUBLIC "-//W3C//DTD SVG 1.1//EN" "http://www.w3.org/Graphics/SVG/1.1/DTD/svg11.dtd"><svg width="200px" height="200px" viewBox="0 0 1024 1024" version="1.1" xmlns="http://www.w3.org/2000/svg"><path d="M512 21.47221031C298.40049476 21.47221031 158.5047493 179.83808263 158.5047493 356.58570799l154.65417218 0c0-88.37381268 58.94533306-176.74762534 158.36587232-195.1293784 75.55960983-13.96306241 206.17610496-11.04672658 224.64623181 103.1322394C710.22246182 351.8135221 600.37381268 434.00116789 545.14017975 456.00624725 483.45525851 480.57416716 423.62618732 540.8451074 423.62618732 540.8451074L423.62618732 710.08095867l176.74762536 0L600.37381268 596.43223557c0 0 272.89833355-111.08588254 246.73968497-320.88531381C825.02004449 98.7992964 721.8878051 21.47221031 512 21.47221031z"  /><path d="M423.62618732 798.45477136l176.74762536 0 0 176.74762534-176.74762536 0 0-176.74762534Z"  /></svg>