<?xml version="1.0" standalone="no"?><!DOCTYPE svg PUBLIC "-//W3C//DTD SVG 1.1//EN" "http://www.w3.org/Graphics/SVG/1.1/DTD/svg11.dtd"><svg width="200px" height="200px" viewBox="0 0 1024 1024" version="1.1" xmlns="http://www.w3.org/2000/svg"><path d="M512 1003.536a491.536 491.536 0 1 1 0-983.072 491.536 491.536 0 0 1 0 983.072z m0-72.818a418.718 418.718 0 1 0 0-837.501 418.718 418.718 0 0 0 0 837.566z m0-236.641a42.072 42.072 0 0 1 17.476 3.625 48.286 48.286 0 0 1 24.402 24.337 42.072 42.072 0 0 1 3.625 17.476 42.072 42.072 0 0 1-3.625 17.541 48.286 48.286 0 0 1-24.337 24.337 42.072 42.072 0 0 1-17.541 3.69 42.072 42.072 0 0 1-17.476-3.69 48.286 48.286 0 0 1-24.402-24.337 42.072 42.072 0 0 1-3.625-17.476 42.072 42.072 0 0 1 3.625-17.541 48.286 48.286 0 0 1 24.337-24.337A42.072 42.072 0 0 1 512 694.077z m12.233-436.907c43.691 0 77.996 11.845 102.916 35.665 24.855 23.82 37.348 58.254 37.348 103.24 0 20.97-5.05 40.389-15.082 58.318-10.032 17.93-25.567 37.347-46.538 58.319-12.687 12.298-22.72 22.654-30.163 31.134-7.444 8.544-12.946 16.181-16.7 22.978a63.303 63.303 0 0 0-7.184 19.936 136.444 136.444 0 0 0-1.683 22.33c0 27.962-11.78 41.943-35.341 41.943-9.191 0-16.376-0.647-21.684-1.941a22.849 22.849 0 0 1-12.104-6.926 25.761 25.761 0 0 1-5.566-13.14 129.13 129.13 0 0 1-1.295-19.936c0-44.596 22.655-89.129 68.158-133.725 10.486-10.033 18.965-18.448 25.567-25.244 6.537-6.732 11.65-13.075 15.405-18.965a50.487 50.487 0 0 0 7.185-17.735c1.1-5.826 1.618-12.945 1.618-21.295 0-19.677-5.826-34.694-17.67-45.18-11.781-10.485-28.157-15.728-49.193-15.728-20.907 0-37.736 5.955-50.422 17.994a62.526 62.526 0 0 0-20.325 43.561c-1.294 25.826-13.98 38.707-37.994 38.707-25.373 0-37.995-12.493-37.995-37.348 0-35.858 13.981-67.769 41.943-95.73 27.509-27.51 63.109-41.297 106.8-41.297z" /></svg>