<?xml version="1.0" standalone="no"?><!DOCTYPE svg PUBLIC "-//W3C//DTD SVG 1.1//EN" "http://www.w3.org/Graphics/SVG/1.1/DTD/svg11.dtd"><svg width="200px" height="200px" viewBox="0 0 1024 1024" version="1.1" xmlns="http://www.w3.org/2000/svg"><path d="M1003.52 79.15899307c-0.66749653-26.88189653-21.1171552-43.75134827-50.36562987-43.14453334-29.3698368 0.60681493-44.4795264 18.50785173-49.2733632 45.32906667-2.48794027 13.95674027-1.6990816 28.52029653-1.82044373 42.78044373-0.30340693 24.3939552-0.1213632 48.72722987-0.1213632 73.12118507l-11.4081184 5.1579264c-12.74311147-12.25765973-25.36485973-24.8187264-38.41137813-36.83365973-117.60071147-108.3771264-257.0467552-148.73031147-413.24088854-124.76112534C218.30162987 74.6685632 54.8257184 258.35140693 35.65037013 487.5453632c-18.0224 214.99448853 120.75614827 422.7678816 328.89362987 492.67294827 210.68610347 70.6939264 445.03798507-11.5901632 563.5489184-198.06435627 7.58518507-12.01493333 15.53445973-24.3332736 20.20693333-37.6225184 9.04154027-25.78962987 4.49042987-49.75881493-20.995792-63.5335104-24.5153184-13.2892448-47.7563264-7.88859307-65.17191146 14.5635552-8.73813333 11.2867552-15.35241493 24.15122987-23.48373334 35.8627552-73.42459307 106.07122987-174.33789653 163.84-303.407408 170.15087467-172.94222187 8.4347264-331.38157013-103.70465173-381.80788053-269.001008a384.41718507 384.41718507 0 0 1 173.91312533-444.37048854c149.64053333-87.19928853 341.75810347-62.1378368 462.81765974 60.8028448 8.92017813 9.04154027 14.8669632 20.87442987 29.2484736 41.56681387-47.3315552 0-83.6797632-1.94180693-119.7852448 0.60681493-33.37481493 2.24521493-50.9724448 22.08805973-50.6690368 49.94085974 0.2427264 27.12462187 19.11466667 49.51608853 51.21517013 50.36562986 83.7404448 2.00248853 167.48088853 1.21362987 251.22133333 0.36408854 27.6707552-0.30340693 50.48699307-16.08059307 51.33653334-43.32657814a4840.56177813 4840.56177813 0 0 0 0.72817813-269.42577706z" /></svg>