<?xml version="1.0" standalone="no"?><!DOCTYPE svg PUBLIC "-//W3C//DTD SVG 1.1//EN" "http://www.w3.org/Graphics/SVG/1.1/DTD/svg11.dtd"><svg width="200px" height="200px" viewBox="0 0 1024 1024" version="1.1" xmlns="http://www.w3.org/2000/svg"><path d="M960.08 960.08c-34.8 34.8-91.14 34.8-125.94 0l-157.2-157.2c-64.68 41.4-141.06 66.12-223.5 66.12-229.56 0-415.62-186.06-415.62-415.56S223.88 37.82 453.44 37.82c229.5 0 415.56 186.06 415.56 415.62 0 82.44-24.72 158.88-66.12 223.5l157.14 157.14c34.8 34.86 34.8 91.2 0.06 126zM451.7 151.88c-165.54 0-299.82 134.28-299.82 299.82 0 165.6 134.22 299.76 299.82 299.76S751.46 617.24 751.46 451.7c0.06-165.54-134.16-299.82-299.76-299.82z" /></svg>