<?xml version="1.0" standalone="no"?><!DOCTYPE svg PUBLIC "-//W3C//DTD SVG 1.1//EN" "http://www.w3.org/Graphics/SVG/1.1/DTD/svg11.dtd"><svg width="200px" height="200px" viewBox="0 0 1024 1024" version="1.1" xmlns="http://www.w3.org/2000/svg"><path d="M853.333333 85.333333a42.666667 42.666667 0 0 1 42.666667 42.666667v384h-85.333333V170.666667H213.333333v682.666666h256v85.333334H170.666667a42.666667 42.666667 0 0 1-42.666667-42.666667V128a42.666667 42.666667 0 0 1 42.666667-42.666667h682.666666z m-66.133333 505.088a170.666667 170.666667 0 0 1 42.496 221.610667l64.170667 64.170667-60.330667 60.330666-64.170667-64.170666a170.666667 170.666667 0 1 1 17.834667-281.941334zM682.666667 640a85.333333 85.333333 0 1 0 0 170.666667 85.333333 85.333333 0 0 0 0-170.666667z m-255.658667 0v85.333333H298.666667v-85.333333h128.341333zM512 469.333333v85.333334H298.666667v-85.333334h213.333333z m128-170.666666v85.333333H298.666667V298.666667h341.333333z" /></svg>