<?xml version="1.0" standalone="no"?><!DOCTYPE svg PUBLIC "-//W3C//DTD SVG 1.1//EN" "http://www.w3.org/Graphics/SVG/1.1/DTD/svg11.dtd"><svg width="200px" height="200px" viewBox="0 0 1024 1024" version="1.1" xmlns="http://www.w3.org/2000/svg"><path d="M875.76523438 558.19970703l68.175-42.67441406a30.01464844 30.01464844 0 0 0 13.33476562-32.10029297l-33.37470703-146.43017578a29.99970703 29.99970703 0 0 0-25.93564453-23.14511719l-80.05429688-8.90947265a30.04541015 30.04541015 0 0 1-20.16035156-11.13046875L784.35546875 276.98046875a29.97070313 29.97070313 0 0 1-6.33076172-22.10976562l9.19511719-79.88994141a30.02958985 30.02958985 0 0 0-16.78447266-30.46464844L635.10488281 79.35488281a29.99970703 29.99970703 0 0 0-34.25976562 5.85L543.99482422 142.23535156a30.01464844 30.01464844 0 0 1-21.23964844 8.81982422h-21.46552734a29.99970703 29.99970703 0 0 1-21.23964844-8.81982422l-56.85029297-57.03046875a29.99970703 29.99970703 0 0 0-34.25976562-5.85L253.64023437 144.51523438a29.99970703 29.99970703 0 0 0-16.78535156 30.44970703l9.16523438 79.98046874a29.99970703 29.99970703 0 0 1-6.34570313 22.10976563l-13.34970703 16.75458985a29.93994141 29.93994141 0 0 1-20.14453125 11.11552734l-80.1 8.92441406A29.99970703 29.99970703 0 0 0 100.14453125 336.99482422L66.73994141 483.425a29.99970703 29.99970703 0 0 0 13.33476562 32.10029297l68.2048828 42.68935547a30.02607422 30.02607422 0 0 1 13.33564455 18.75058594l4.78476562 20.95488281a30.02958985 30.02958985 0 0 1-3.86982422 22.69511719L119.58505859 688.66894531a29.99970703 29.99970703 0 0 0 1.91953126 34.70976563l93.69052734 117.45a30.01464844 30.01464844 0 0 0 33.40458984 9.60029297l75.96035156-26.71523438a29.99970703 29.99970703 0 0 1 22.95 1.26035156l19.32011719 9.28476563a29.99970703 29.99970703 0 0 1 15.32988281 17.17558594l26.44453126 76.01923828a29.99970703 29.99970703 0 0 0 28.33593749 20.14541015h150.19453125a29.99970703 29.99970703 0 0 0 28.3350586-20.14453124l26.44453125-76.02011719a29.97070313 29.97070313 0 0 1 15.33076173-17.17558594l19.31923827-9.28476563a29.95488281 29.95488281 0 0 1 22.95-1.26035156l75.96035156 26.71523438a29.99970703 29.99970703 0 0 0 33.40458985-9.60029297l93.69052734-117.45a29.99970703 29.99970703 0 0 0 1.91953125-34.70976563l-42.96005859-68.06953125a29.95488281 29.95488281 0 0 1-3.88476563-22.66523437l4.76982422-20.93994141a30.10078125 30.10078125 0 0 1 13.35058593-18.79541015z m-339.5100586 93.33105469a144.81035156 144.81035156 0 0 1-166.92011719-167.02558594c9.74970703-59.95546875 58.05-108.34541015 117.97558594-118.24541015a144.79541015 144.79541015 0 0 1 167.24970703 167.4149414c-9.94570313 59.91064453-58.36552734 108.15029297-118.30517578 117.85517578z" /></svg>