<?xml version="1.0" standalone="no"?><!DOCTYPE svg PUBLIC "-//W3C//DTD SVG 1.1//EN" "http://www.w3.org/Graphics/SVG/1.1/DTD/svg11.dtd"><svg   viewBox="0 0 1024 1024" version="1.1" xmlns="http://www.w3.org/2000/svg"  xmlns:xlink="http://www.w3.org/1999/xlink" width="200" height="200"><path d="M781.251765 4.999529c55.416471 0 108.423529 22.166588 147.395764 61.560471a210.341647 210.341647 0 0 1 60.837647 148.118588c0 55.416471-21.805176 108.724706-60.837647 148.058353a207.510588 207.510588 0 0 1-147.335529 61.560471 207.570824 207.570824 0 0 1-151.190588-65.41553L435.260235 476.882824a210.883765 210.883765 0 0 1 8.011294 100.894117l166.008471 66.981647a207.570824 207.570824 0 0 1 172.032-91.557647c55.416471 0 108.423529 22.226824 147.395765 61.560471a210.341647 210.341647 0 0 1 60.837647 148.178823c0 55.416471-21.805176 108.724706-60.837647 148.058353a207.510588 207.510588 0 0 1-147.33553 61.500236 207.570824 207.570824 0 0 1-147.395764-61.500236 210.401882 210.401882 0 0 1-58.066824-182.272l-166.068706-67.041882a207.510588 207.510588 0 0 1-172.032 91.557647A207.510588 207.510588 0 0 1 90.352941 691.681882 210.341647 210.341647 0 0 1 29.515294 543.563294c0-55.416471 21.865412-108.724706 60.837647-148.058353a207.510588 207.510588 0 0 1 147.395765-61.56047c55.416471 0 108.423529 22.166588 147.395765 61.56047l3.674353 3.794824 195.041882-118.061177a210.944 210.944 0 0 1 49.995294-214.678588A207.570824 207.570824 0 0 1 781.372235 4.999529z m0 638.614589c-31.081412 0-61.018353 12.468706-83.124706 34.755764a119.265882 119.265882 0 0 0-25.298824 37.827765l-0.963764 2.529882a120.591059 120.591059 0 0 0 26.202353 128.602353c22.166588 22.347294 52.103529 34.816 83.245176 34.816 31.141647 0 61.078588-12.468706 83.184941-34.755764 22.166588-22.347294 34.695529-52.766118 34.69553-84.510118s-12.528941-62.162824-34.69553-84.510118a117.157647 117.157647 0 0 0-83.184941-34.755764zM237.808941 424.297412c-31.141647 0-61.078588 12.468706-83.184941 34.816a119.988706 119.988706 0 0 0 0 168.96c22.106353 22.287059 52.043294 34.816 83.184941 34.816s61.078588-12.468706 83.245177-34.816c10.842353-10.902588 19.335529-23.792941 25.298823-37.827765l0.90353-2.529882a120.470588 120.470588 0 0 0-5.782589-101.014589 45.718588 45.718588 0 0 1-5.541647-9.216 117.157647 117.157647 0 0 0-98.183529-53.187764z m543.563294-328.944941c-31.141647 0-61.078588 12.468706-83.245176 34.816a119.988706 119.988706 0 0 0-19.998118 142.095058 45.357176 45.357176 0 0 1 4.577883 7.710118 117.157647 117.157647 0 0 0 98.665411 53.970824c31.141647 0 61.078588-12.468706 83.184941-34.816a120.048941 120.048941 0 0 0 0-168.96 117.157647 117.157647 0 0 0-83.184941-34.816z" ></path></svg>