<?xml version="1.0" standalone="no"?><!DOCTYPE svg PUBLIC "-//W3C//DTD SVG 1.1//EN" "http://www.w3.org/Graphics/SVG/1.1/DTD/svg11.dtd"><svg width="200px" height="200px" viewBox="0 0 1024 1024" version="1.1" xmlns="http://www.w3.org/2000/svg"><path d="M512 997.452c-268.122 0-485.452-217.33-485.452-485.452S243.878 26.548 512 26.548 997.452 243.878 997.452 512 780.122 997.452 512 997.452z m0-60.682c234.594 0 424.77-190.176 424.77-424.77S746.594 87.23 512 87.23 87.23 277.406 87.23 512 277.406 936.77 512 936.77zM345.126 481.66a75.852 75.852 0 1 1 0-151.705 75.852 75.852 0 0 1 0 151.705z m333.748 0a75.852 75.852 0 1 1 0-151.705 75.852 75.852 0 0 1 0 151.705zM342.455 730.18c60.53-44.024 122.275-66.477 184.715-66.477s124.185 22.454 184.715 66.477a30.34 30.34 0 0 1-35.68 49.091c-50.7-36.893-100.217-54.916-149.035-54.916s-98.304 18.023-149.033 54.916a30.34 30.34 0 1 1-35.68-49.09z" /></svg>