<?xml version="1.0" standalone="no"?><!DOCTYPE svg PUBLIC "-//W3C//DTD SVG 1.1//EN" "http://www.w3.org/Graphics/SVG/1.1/DTD/svg11.dtd"><svg width="200px" height="200px" viewBox="0 0 1024 1024" version="1.1" xmlns="http://www.w3.org/2000/svg"><path d="M930.63398094 641.98338781a60.31461281 60.31461281 0 1 1 0 120.62922656H278.68457281l133.09984219 96.28754344a60.31461281 60.31461281 0 0 1-70.74676313 97.60655063L57.45105125 751.10127594a60.31461281 60.31461281 0 0 1 35.37338156-109.11788813h837.92945813zM684.21940813 44.71283375L968.76528687 279.37624906a60.31461281 60.31461281 0 0 1-38.371125 106.83960375H92.58461281a60.31461281 60.31461281 0 0 1 0-120.50931656h670.29560344L607.59706625 137.40308375A60.19470375 60.19470375 0 0 1 684.21940813 44.71283375z" /></svg>