<?xml version="1.0" standalone="no"?><!DOCTYPE svg PUBLIC "-//W3C//DTD SVG 1.1//EN" "http://www.w3.org/Graphics/SVG/1.1/DTD/svg11.dtd"><svg width="200px" height="200px" viewBox="0 0 1024 1024" version="1.1" xmlns="http://www.w3.org/2000/svg"><path d="M209.91949483 58.91160519h604.16101034A151.00788963 151.00788963 0 0 1 965.08839481 209.91949483v604.16101034A151.00788963 151.00788963 0 0 1 814.08050517 965.08839481H209.91949483A151.00788963 151.00788963 0 0 1 58.91160519 814.08050517V209.91949483A151.00788963 151.00788963 0 0 1 209.91949483 58.91160519z m310.36555036 604.09628444H231.53828295a37.73579037 37.73579037 0 1 0 0 75.53630778h288.6820352a113.27209927 113.27209927 0 0 0 213.79299556 0h63.95019036a37.73579037 37.73579037 0 1 0 0-75.53630778h-63.95019036a113.27209927 113.27209927 0 0 0-213.59881444 0h-0.12945408zM291.92849408 285.45580259h-62.59092594a37.73579037 37.73579037 0 1 0 0 75.53630778H291.92849408a113.27209927 113.27209927 0 0 0 213.59881443 0h289.97657259a37.73579037 37.73579037 0 0 0 0-75.53630778H505.52730851a113.27209927 113.27209927 0 0 0-213.59881443 0z" /></svg>