<?xml version="1.0" standalone="no"?><!DOCTYPE svg PUBLIC "-//W3C//DTD SVG 1.1//EN" "http://www.w3.org/Graphics/SVG/1.1/DTD/svg11.dtd"><svg width="200px" height="200px" viewBox="0 0 1024 1024" version="1.1" xmlns="http://www.w3.org/2000/svg"><path d="M149.42814827 328.4385184C149.42814827 228.7388448 231.8942816 147.91111147 333.5964448 147.91111147s184.28965973 80.82773333 184.28965867 180.52740693S435.41997013 508.9659264 333.5964448 508.9659264c-101.7628448 0-184.22897813-80.82773333-184.22897813-180.527408z m253.22382186 497.8915552v-12.50038507c0-91.9931264 47.93837013-172.94222187 120.33137814-220.57718506a240.9054816 240.9054816 0 0 0-104.7969184-24.09054827H264.5409184C133.10482987 569.1619552 26.54814827 673.53410347 26.54814827 802.36088853v15.049008c0 52.6715264 106.5566816 52.6715264 237.99277013 52.67152534h146.84918507a106.19259307 106.19259307 0 0 1-8.73813334-43.75134827z m327.07318507-555.72100693c-84.34725973 0-152.91733333 67.0530368-152.91733333 149.88325973 0 82.70885973 68.5700736 149.82257813 152.91733333 149.82257707 84.52930347 0 152.91733333-67.1137184 152.91733333-149.88325867s-68.32734827-149.88325973-152.91733333-149.88325973z m0 0c-84.34725973 0-152.91733333 67.0530368-152.91733333 149.88325973 0 82.70885973 68.5700736 149.82257813 152.91733333 149.82257707 84.52930347 0 152.91733333-67.1137184 152.91733333-149.88325867s-68.32734827-149.88325973-152.91733333-149.88325973z m-57.2226368 349.70737813c-109.16598507 0-197.57890347 86.6531552-197.57890347 193.57392533v12.43970347c0 43.69066667 88.4129184 43.69066667 197.57890347 43.69066667h127.43111147c109.10530347 0 197.51822187-1.5777184 197.51822186-43.69066667v-12.50038507c0-106.86008853-88.4129184-193.5739264-197.45754026-193.57392533h-127.49179307z" /></svg>