<?xml version="1.0" standalone="no"?><!DOCTYPE svg PUBLIC "-//W3C//DTD SVG 1.1//EN" "http://www.w3.org/Graphics/SVG/1.1/DTD/svg11.dtd"><svg width="200px" height="200px" viewBox="0 0 1024 1024" version="1.1" xmlns="http://www.w3.org/2000/svg"><path d="M785.067 1003.52c-422.343 0-764.587-342.244-764.587-764.587 0-120.149 98.304-218.453 218.453-218.453s218.454 98.304 218.454 218.453c0 92.843-56.434 171.122-140.175 203.89 50.973 116.509 145.636 212.992 263.965 263.965 32.768-83.74 111.047-140.175 203.89-140.175 120.149 0 218.453 98.304 218.453 218.454s-98.304 218.453-218.453 218.453zM238.933 93.298c-80.1 0-145.635 65.536-145.635 145.635 0 382.294 309.475 691.77 691.769 691.77 80.1 0 145.635-65.537 145.635-145.636S865.166 639.43 785.067 639.43c-70.998 0-131.072 50.973-143.815 121.97-1.82 10.923-7.282 20.025-18.205 25.486-9.102 5.461-20.025 7.282-30.947 3.641-165.66-60.075-298.553-192.967-356.808-360.448-3.64-10.923-1.82-21.845 3.641-30.948 5.462-9.102 14.564-16.384 25.487-18.204 70.997-10.923 121.97-72.818 121.97-143.815-1.821-78.28-67.357-143.815-147.457-143.815z" /></svg>