<?xml version="1.0" standalone="no"?><!DOCTYPE svg PUBLIC "-//W3C//DTD SVG 1.1//EN" "http://www.w3.org/Graphics/SVG/1.1/DTD/svg11.dtd"><svg width="200px" height="200px" viewBox="0 0 1024 1024" version="1.1" xmlns="http://www.w3.org/2000/svg"><path d="M512 32q97.5 0 186.4284375 38.0353125t153.2146875 102.3215625 102.3215625 153.2146875T992 512q0 96.9646875-37.768125 185.893125T852.1784375 851.106875 698.965625 953.6965625 512 992t-186.9646875-38.0353125T172.090625 851.375 70.034375 698.1603125 32 512t38.0353125-186.4284375 102.3215625-153.2146875T325.5715625 70.0353125 512 32z m331.606875 723.75q79.8215625-109.8215625 79.8215625-243.75 0-83.5715625-32.6784375-159.643125t-87.856875-131.25-131.25-87.856875T512 100.5715625 352.356875 133.25t-131.25 87.856875-87.856875 131.25T100.5715625 512q0 133.9284375 79.8215625 243.75Q215.75 580.5715625 344.3215625 580.5715625 414.5 649.143125 512 649.143125t167.6784375-68.5715625Q808.25 580.5715625 843.606875 755.75zM717.715625 409.143125q0-85.1784375-60.268125-145.4465625T512 203.4284375t-145.4465625 60.268125-60.268125 145.4465625 60.268125 145.4465625T512 614.856875t145.4465625-60.2671875 60.268125-145.4465625z" /></svg>