<?xml version="1.0" standalone="no"?><!DOCTYPE svg PUBLIC "-//W3C//DTD SVG 1.1//EN" "http://www.w3.org/Graphics/SVG/1.1/DTD/svg11.dtd"><svg width="200px" height="186.69px" viewBox="0 0 1097 1024" version="1.1" xmlns="http://www.w3.org/2000/svg"><path d="M349.6784375 512q-86.7853125 2.6784375-141.96375 68.5715625h-71.78625Q92 580.5715625 62 558.875T32 495.393125Q32 306.284375 98.4284375 306.284375q3.2146875 0 23.3034375 11.25t52.2328125 22.768125 63.75 11.518125q35.8921875 0 71.25-12.3215625-2.679375 19.8215625-2.679375 35.356875 0 74.4646875 43.393125 137.143125z m573.75 341.25q0 64.2853125-39.106875 101.518125T780.393125 992H312.1784375q-64.8215625 0-103.9284375-37.231875T169.143125 853.25q0-28.393125 1.875-55.4465625t7.5-58.393125 14.1965625-58.125T215.75 629.0534375t33.2146875-43.393125T294.768125 557 354.5 546.2853125q5.356875 0 23.0353125 11.518125t39.1078125 25.7146875 57.3215625 25.71375T546.284375 620.75t72.3215625-11.518125 57.3215625-25.71375 39.106875-25.7146875 23.03625-11.518125q32.6784375 0 59.731875 10.7146875t45.8034375 28.6603125 33.2146875 43.393125 23.0353125 52.231875 14.1965625 58.125 7.5 58.393125 1.875 55.4465625zM374.856875 169.143125q0 56.7853125-40.1784375 96.96375T237.715625 306.2853125 140.75 266.106875 100.5715625 169.143125 140.75 72.1784375 237.7146875 32t96.96375 40.1784375 40.1784375 96.9646875zM752 374.856875q0 85.1784375-60.268125 145.4465625t-145.4465625 60.268125-145.445625-60.268125-60.268125-145.4465625 60.268125-145.4465625 145.445625-60.2671875 145.4465625 60.2671875T752 374.856875z m308.5715625 120.53625q0 41.7853125-30 63.481875t-73.9284375 21.6965625h-71.78625Q829.6784375 514.6784375 742.893125 512q43.3921875-62.6784375 43.3921875-137.143125 0-15.5353125-2.6784375-35.356875 35.3578125 12.3215625 71.25 12.3215625 31.6078125 0 63.75-11.518125t52.2328125-22.768125 23.3034375-11.25q66.4284375 0 66.4284375 189.1078125z m-68.5715625-326.25q0 56.7853125-40.1784375 96.96375t-96.9646875 40.1784375-96.96375-40.1784375-40.1784375-96.96375 40.1784375-96.9646875T854.856875 32t96.9646875 40.1784375T992 169.143125z" /></svg>