<?xml version="1.0" standalone="no"?><!DOCTYPE svg PUBLIC "-//W3C//DTD SVG 1.1//EN" "http://www.w3.org/Graphics/SVG/1.1/DTD/svg11.dtd"><svg width="200px" height="200px" viewBox="0 0 1024 1024" version="1.1" xmlns="http://www.w3.org/2000/svg"><path d="M512 64.03115234C263.99023437 64.03115234 63.01513672 265.00537109 63.01513672 513.01513672 63.01513672 761.02578125 263.99023437 962 512 962c248.00976563 0 448.98486328-200.97421875 448.98486328-448.98486328C960.98486328 265.11171875 759.90341797 64.03115234 512 64.03115234z m0 845.15976563c-218.8265625 0-396.17578125-177.34921875-396.17578125-396.17578125C115.82421875 294.18945312 293.17431641 116.84023437 512 116.84023437s396.17578125 177.34921875 396.17578125 396.17578125C908.06767578 731.84082031 730.71845703 909.19003906 512 909.19003906z m0-620.66777344c-20.63232422 0-37.41503906 16.78359375-37.41503906 37.41503906v243.20039063c0 20.63232422 16.78271484 37.41503906 37.41503906 37.41503906s37.41503906-16.78271484 37.41503906-37.41503906V325.9390625c-0.10634766-20.63232422-16.78271484-37.41503906-37.41503906-37.41503906z m0 374.15390625c-20.63232422 0-37.41503906 16.78359375-37.41503906 37.41503906 0 20.63232422 16.78271484 37.41503906 37.41503906 37.41503907s37.41503906-16.78271484 37.41503906-37.41503907c-0.10634766-20.63144531-16.78271484-37.41503906-37.41503906-37.41503906z m0 0" /></svg>