<?xml version="1.0" standalone="no"?><!DOCTYPE svg PUBLIC "-//W3C//DTD SVG 1.1//EN" "http://www.w3.org/Graphics/SVG/1.1/DTD/svg11.dtd"><svg width="200px" height="200px" viewBox="0 0 1024 1024" version="1.1" xmlns="http://www.w3.org/2000/svg"><path d="M956.68693333 510.96106667c0 245.89546667-200.05546667 445.9488-445.9488 445.9488S64.79146667 756.85653333 64.79146667 510.96106667c0-245.89333333 200.05546667-445.9488 445.94666666-445.9488s445.9488 200.05546667 445.9488 445.9488z m-83.61493333 0c0-199.78453333-162.5344-362.3296-362.3328-362.3296S148.40746667 311.17653333 148.40746667 510.96106667c0 199.78666667 162.5344 362.33386667 362.3328 362.33386666s362.33173333-162.54826667 362.33173333-362.33493333zM566.48426667 343.73333333v167.22666667c0 30.784-24.95893333 55.744-55.744 55.744-30.784 0-55.744-24.95893333-55.744-55.744V343.73333333c0-30.784 24.95893333-55.744 55.744-55.744 30.784 0 55.744 24.95893333 55.744 55.744z m0 334.4576c0 30.7872-24.95893333 55.7472-55.744 55.7472-30.784 0-55.744-24.95893333-55.744-55.7472 0-30.78186667 24.95893333-55.7408 55.744-55.7408 30.784 0 55.744 24.95893333 55.744 55.7408z" /></svg>