<?xml version="1.0" standalone="no"?><!DOCTYPE svg PUBLIC "-//W3C//DTD SVG 1.1//EN" "http://www.w3.org/Graphics/SVG/1.1/DTD/svg11.dtd"><svg   viewBox="0 0 1024 1024" version="1.1" xmlns="http://www.w3.org/2000/svg"  xmlns:xlink="http://www.w3.org/1999/xlink" width="200" height="200"><path d="M302.72 48a48 48 0 1 0-96 0v275.712a48 48 0 1 0 96 0V233.856h296.64a48 48 0 0 0 0-96H302.784V48z" ></path><path d="M737.28 0a48 48 0 0 1 48 48v89.856h89.792A116.928 116.928 0 0 1 992 254.72v620.288a116.928 116.928 0 0 1-116.928 116.928H116.928A116.928 116.928 0 0 1 0 875.072V254.784a116.928 116.928 0 0 1 116.928-116.928 48 48 0 1 1 0 96 20.928 20.928 0 0 0-20.928 20.928v158.72H896v-158.72a20.928 20.928 0 0 0-20.928-20.928H785.28v89.856a48 48 0 0 1-96 0V48a48 48 0 0 1 48-48zM896 509.568H96v365.504a20.928 20.928 0 0 0 20.928 20.928h758.144a20.928 20.928 0 0 0 20.928-20.928V509.504z" ></path><path d="M455.68 842.432l41.856-131.072h1.408l41.6 131.072h67.712l60.096-256h-76.16L566.784 729.6h-1.408l-42.112-143.168h-50.432l-41.856 144.064h-1.408l-25.6-144.064h-76.16l60.352 256z" ></path></svg>